<?xml version="1.0" standalone="no"?>
<!DOCTYPE svg PUBLIC "-//W3C//DTD SVG 1.1//EN" "http://www.w3.org/Graphics/SVG/1.1/DTD/svg11.dtd" >
<svg xmlns="http://www.w3.org/2000/svg">
<metadata>
This is a custom SVG webfont generated by Font Squirrel.
Designer    : Apostrophe
Foundry URL : http://www.cheapprofonts.com/
</metadata>
<defs>
<font id="webfont1pAe198X" horiz-adv-x="1044" >
<font-face units-per-em="1000" ascent="800" descent="-200" />
<missing-glyph horiz-adv-x="329" />
<glyph unicode=" "  horiz-adv-x="329" />
<glyph unicode="&#x09;" horiz-adv-x="329" />
<glyph unicode="&#xa0;" horiz-adv-x="329" />
<glyph unicode="!" horiz-adv-x="217" d="M121 141q-4 -8 -10 -8q-9 0 -9 11q0 4 1 7q66 131 112 233.5t74 177.5q1 4 7.5 8t14 6t15.5 2.5t13 -1.5q6 -1 9 -27t-3 -35q-1 -3 -5 -4l-10 -2q-4 -1 -8.5 -1.5t-5.5 -2.5l-40 -69q-22 -40 -49 -94l-65 -124zM82 18q0 -6 -15 -12.5t-27 -6.5q-7 0 -10 4.5t-7 27.5 q-5 24 0 30q4 5 19.5 12.5t25.5 7.5q4 0 6 -2q8 -8 8 -61z" />
<glyph unicode="&#x22;" horiz-adv-x="288" d="M218 408q-3 -5 -8 -3t-5 5q0 4 1 5l80 149q4 8 14 8q23 0 23 -19q0 -3 -3 -7q-38 -48 -102 -138zM323 405q-4 -5 -7 -3q-6 1 -6 5q0 3 1 4l81 150q5 8 14 8q23 0 23 -19q0 -2 -3 -8l-46 -58z" />
<glyph unicode="#" horiz-adv-x="485" d="M29 43l35 56l46 77h-55q-16 0 -25.5 -0.5t-13.5 -0.5q-12 0 -12 4q0 2 4 5.5t9 6.5t10 5t8 2h88l31 49l43 68h-57q-17 0 -27.5 -1t-14.5 -1q-12 0 -12 5q0 4 12 11.5t18 7.5h95l59 84l53 73q7 5 17 5q16 0 3 -17l-32 -44l-73 -101h105q17 27 45 66l67 91q7 5 17 5 q16 0 3 -17l-37 -51l-68 -94h67q15 0 15 -6q0 -4 -10 -10t-14 -6h-32q-12 0 -22.5 -1t-19.5 -1l-32 -47l-45 -68h78q16 0 16 -5t-10 -11t-15 -6h-35q-14 0 -26 -0.5t-22 -0.5l-37 -55l-51 -77q-12 -20 -19 -20q-2 0 -2 3q0 6 7 17l81 132h-111l-38 -55l-50 -77 q-14 -20 -19 -20q-2 0 -2 3q0 6 7 17zM222 313l-19 -29q-10 -14 -24 -36l-34 -50h109q9 16 28 45l46 72h-52q-18 0 -31.5 -1t-22.5 -1z" />
<glyph unicode="$" horiz-adv-x="464" d="M153 46l51 81l64 104q7 7 1 10q-61 53 -61 107q0 43 41 78q62 53 184 77q3 0 7 4q15 20 35 50q8 8 16 8q6 0 6 -4q-1 -1 -1 -2t-1 -2q-6 -10 -14 -22l-19 -28q-1 -1 -1 -2q-1 -1 0 -1h3q56 0 76 -28q3 -5 3 -11q0 -13 -12 -13q-8 0 -11 8q-11 25 -70 21q-2 2 -8 -4 l-71 -110l-62 -103q-4 -5 1 -10q59 -56 72 -80q7 -14 7 -33q0 -46 -47 -78q-74 -51 -189 -51q2 0 -5 -5q-11 -19 -37 -59q-4 -7 -15 -7q-8 0 -8 4q0 2 3 8q11 14 20 28l18 29q1 3 -4 4q-104 15 -104 39q0 8 8.5 14t16.5 6q4 0 5 -2q38 -25 92 -29q7 0 10 4zM284 220l-56 -88 l-54 -88q-1 -4 3 -4q19 -2 40.5 -0.5t41.5 6.5t37 13t28 17q25 19 25 45q0 20 -18 52q-6 10 -16 22t-25 27q-3 3 -6 -2zM296 278l44 69l77 124l1 4q-1 1 -7 0q-52 -12 -86 -28.5t-54 -37.5q-20 -23 -20 -50q0 -39 38 -82q4 -4 7 1z" />
<glyph unicode="%" horiz-adv-x="677" d="M342 510l4 -1q3 -1 7 -1.5t8 -0.5h5q59 -1 123 -1t135 -1q9 0 38 14q1 1 8 5.5t21 12.5l17 9q6 3 10 3q9 0 9 -8q0 -7 -12 -16q-80 -59 -163 -131.5t-171 -158.5q-199 -193 -217 -264q-5 -21 -11 -21q-1 3 -1.5 8.5t-0.5 16.5q7 58 177 235q75 78 152 148.5t158 136.5 q1 1 -14 1q-215 0 -219 -8l-11 -6q-5 -4 -3 -10q3 -30 -4 -66q-8 -25 -21 -48t-34 -43q-23 -23 -46.5 -37.5t-50.5 -22.5q-14 -3 -26 -3q-59 0 -59 60q0 8 1 17t4 20q5 18 15 35.5t24 34.5l32 41q12 15 14 20q-1 4 3 18q3 8 32 8q18 18 34 18q17 0 33 -14zM538 241 q32 20 59 23q64 6 64 -62q0 -18 -8 -45q-8 -25 -21 -47.5t-33 -43.5q-42 -45 -95 -59q-13 -4 -27 -4q-61 0 -61 62q0 15 5 35q14 46 43 84q35 44 74 57zM592 246q-38 -1 -76 -33q-59 -51 -69 -111q-1 -5 -2 -11t-1 -12q0 -33 18.5 -48.5t41.5 -10.5q41 8 78 44t54 92 q6 19 6 38q0 55 -50 52zM328 490q-24 -2 -43 -8t-35 -20q-58 -51 -70 -111q-1 -6 -1.5 -12t-0.5 -11q0 -33 18.5 -49t41.5 -11q40 8 77.5 44.5t54.5 92.5q6 21 6 38q0 48 -48 47z" />
<glyph unicode="&#x26;" horiz-adv-x="780" d="M671 298l-23 -50l-30 -62l-34 -70l-35 -70q-6 -12 -12.5 -27t-15.5 -29l-10 -18q-5 -8 -11 -16q-21 -33 -49 -60t-62 -30q-20 -2 -35.5 8t-27 28t-19 42.5t-11.5 52.5q-9 -1 -18 -1h-17q-51 3 -83.5 30.5t-45 70t-3.5 94.5t41 104q-20 -1 -33 -1.5t-17 -2.5q-8 -3 -14 -9 l-11 -14q-4 -5 -10.5 -2.5t-12.5 7.5t-10 12t-2 13q4 14 10.5 16.5t26.5 3.5h31q24 0 58 1q22 30 52 56.5t64.5 48.5t71 38t71.5 24q9 3 12.5 10.5t-0.5 10.5l-17 19q-10 11 -18.5 27t-12.5 37t2 47q7 31 27.5 55.5t47.5 41.5t57 25.5t56 7.5q28 -1 47.5 -18t27.5 -37 q5 -12 2.5 -24t-7.5 -19t-11 -6.5t-8 13.5q-3 21 -15 38t-33 24q-18 7 -43 5t-49 -15t-41.5 -36.5t-19.5 -59.5q-2 -33 8.5 -59t28 -44.5t39 -30.5t42.5 -18q10 -3 12.5 -8.5t-0.5 -11t-10.5 -9.5t-17.5 -3q-24 3 -66 3t-89 -12t-94 -40t-83 -80q49 0 109.5 1t124.5 1.5 t126 0t115 -2.5q27 0 44 0.5t38 -3.5q2 -2 8 -3.5t11 -3t7 -2.5t-4 -2q15 -12 26 -30t11 -38q0 -14 -5 -24q-10 -24 -58 -69q-9 -9 -13 -9q-2 0 -2 1q0 5 8 15q54 55 54 104q0 38 -45 43q-12 2 -28.5 3t-37.5 -1zM322 186q-9 -35 -13 -76.5t-2 -79.5q45 1 84.5 17.5t72 39 t57.5 47.5l42 42q5 5 13 16.5t17 26t17.5 30t14.5 29.5q5 12 3.5 16.5t-12.5 4.5h-30h-57h-76h-85q-44 0 -86.5 -0.5t-76.5 -1.5q-2 -5 -4.5 -9.5t-4.5 -9.5q-21 -42 -25 -84.5t6 -77t34 -57.5t59 -27q5 -1 10.5 -1t10.5 -1q-4 45 2.5 88t20.5 72zM588 180 q-47 -52 -82.5 -84.5t-67.5 -52t-62.5 -29t-66.5 -15.5q3 -26 9 -48t15.5 -38.5t23 -25.5t30.5 -8t34 12.5t33 29.5t30 41t25 47zM314 190q6 13 8 11.5t0 -14.5z" />
<glyph unicode="'" horiz-adv-x="182" d="M218 408q-3 -5 -8 -3t-5 5q0 4 1 5l80 149q4 8 14 8q23 0 23 -19q0 -3 -3 -7q-38 -48 -102 -138z" />
<glyph unicode="(" horiz-adv-x="381" d="M562 595q2 1 4 1h5q10 0 10 -5q0 -7 -15 -10q-171 -36 -291 -201q-116 -161 -116 -335q0 -26 3.5 -51t9.5 -49q0 -2 8.5 -7.5t7.5 -14.5q-2 -13 -12.5 -22.5t-21.5 -9.5t-14 13q-17 62 -17 122q0 192 127 358q126 166 312 211z" />
<glyph unicode=")" horiz-adv-x="409" d="M-61 -99q-3 -1 -8 -1q-10 0 -10 5q0 7 14 10q170 36 291 201q59 80 87 163t28 171q0 53 -12 101q0 2 -9 7.5t-8 14.5q3 13 13 22.5t21 9.5q12 0 15 -13q16 -58 16 -123q0 -193 -126 -358t-312 -210z" />
<glyph unicode="*" horiz-adv-x="363" d="M405 580l-27 -56l-28 -58q32 11 68 27t70 28q8 5 9.5 -0.5t-3.5 -8.5q-34 -18 -74 -36l-71 -32l41 -36l34 -30q11 -11 7 -15t-9 -1l-42 32l-46 37q-8 -17 -18 -40.5t-18 -45t-11.5 -37t2.5 -15.5q3 0 -0.5 -2.5t-7.5 -4.5q-11 -3 -10.5 9.5t6.5 34t15 47.5t16 49 q-29 -17 -60.5 -32t-55.5 -33q-2 -1 -1 -4.5t-5 -4.5q-14 -2 -17.5 9.5t10.5 22.5q9 7 24 15t33 16l38 17q20 8 37 17q-19 11 -35.5 23t-37.5 22q-1 0 -4 -2.5t-6 2.5q-5 4 -5 10.5t4 11t10.5 6.5t15.5 -2q19 -8 36 -24t36 -31q11 26 22 49.5t19 44.5q3 7 3 14.5t10 13.5 q9 5 14.5 5.5t8.5 -1.5t3.5 -5.5t-0.5 -5.5z" />
<glyph unicode="+" horiz-adv-x="418" d="M394 265q-36 -8 -84.5 -11t-98.5 -4q-20 -37 -36.5 -72.5t-28.5 -66.5q-2 -4 -3 -9.5t-1 -10t3 -6t10 1.5q5 2 10 5t11 5q3 5 4.5 3.5t-2.5 -6.5q-4 -6 -19 -15t-24 -11q-8 -2 -12 -0.5t-5.5 5t-0.5 8.5t2 9q11 34 31.5 76t43.5 84q-45 0 -82 2t-60 5q-3 0 -8 4t-10 9 l-11 10q-5 4 -8 7q-3 5 -2 7t2 1q7 -6 17 -10l19 -7q31 -5 70 -8t81 -4q29 54 58 99t48 70q1 2 7 6t13 7l15 7q7 3 11 4q5 1 6.5 -1.5t-0.5 -3.5q-8 -3 -18 -11t-15 -15q-24 -32 -52.5 -74.5t-54.5 -87.5q41 0 78.5 2.5t67.5 10.5q4 0 8.5 1.5t8 4t3.5 6t-5 8.5q-7 9 -17 13 q-5 2 -4 4t6 2q6 -1 19 -10t18 -17q10 -12 4 -18.5t-13 -7.5z" />
<glyph unicode="," horiz-adv-x="165" d="M-27 -114q-2 -3 -6 -3q-7 0 -7 8q0 3 4 7q63 44 71 105q1 8 -2.5 18t-10.5 24q-4 7 16 22t27 13q8 -2 14 -20t6 -34q0 -6 -1 -8q-18 -54 -111 -132z" />
<glyph unicode="-" horiz-adv-x="260" d="M87 166q-17 0 -17 9q0 18 32 18h141q17 0 17 -10q0 -17 -26 -17h-147z" />
<glyph unicode="." horiz-adv-x="161" d="M81 18q0 -6 -15 -12.5t-28 -6.5q-6 0 -9 4.5t-7 27.5q-3 26 0 30q1 3 6.5 6.5t12.5 6.5t14 5t12 2q2 0 6 -2q8 -8 8 -61z" />
<glyph unicode="/" horiz-adv-x="326" d="M-42 -78q-5 -21 -11 -21q-2 6 -2 24q7 67 263 318l214 201q97 86 175 143q11 8 20 8t9 -8q0 -7 -12 -16q-81 -60 -177.5 -144t-209.5 -193q-125 -120 -192.5 -198t-76.5 -114z" />
<glyph unicode="0" horiz-adv-x="488" d="M232 442q4 4 15.5 11t26 15t30 15.5t28.5 11.5q46 25 92 29q59 5 95 -28t36 -100q0 -41 -15 -92q-15 -52 -43.5 -98.5t-69.5 -89.5q-86 -93 -196 -122q-27 -7 -54 -7q-57 0 -92.5 33t-35.5 96q0 31 11 70q22 72 64 135.5t108 120.5zM419 498q-79 0 -165 -73 q-57 -48 -97 -119q-19 -32 -31.5 -62t-17.5 -57q-2 -14 -3.5 -27t-1.5 -26q0 -32 8 -55.5t24 -41.5q27 -30 71 -30q98 0 193 102q81 87 113 192q13 40 13 81q0 117 -106 116z" />
<glyph unicode="1" horiz-adv-x="381" d="M164 -2q-143 0 -192 -6q-18 -2 -18 9q0 20 18 22l52 5q33 3 81 5q38 69 99 163l147 217q4 5 4 12t-7 7q-4 0 -10 -2q-41 -16 -81 -29l-80 -26q-11 -3 -15 -3q-10 0 -8 6q2 5 18 11q105 38 178.5 71t118.5 59q6 3 11 3q12 0 12 -12q0 -10 -7 -14q-9 -6 -21 -13t-29 -18 q-4 -2 -5 -11l-4 -19q-18 -14 -52 -53.5t-84 -105.5q-51 -67 -85 -117.5t-51 -84.5q-2 -6 -4 -11t-2 -9q0 -19 39 -25q44 -6 73.5 -9.5t45.5 -1.5q20 2 20 -7q0 -11 -29 -12t-101 -1h-32z" />
<glyph unicode="2" horiz-adv-x="476" d="M395 0q-39 3 -95 3q-130 0 -281 -12q-18 -2 -18 11q0 24 36 32q39 8 76.5 20t72.5 28q89 42 164 100q111 87 126 179q6 32 -19 68q-29 40 -75 50q-10 2 -20.5 3t-21.5 1q-67 0 -140 -41q-5 -3 -5 2q0 20 21 31q45 24 90.5 35t90.5 7q34 -2 59.5 -14.5t42.5 -32.5 q29 -35 29 -83q0 -95 -142 -203q-57 -45 -114 -76t-115 -52q-13 -4 -13 -11q0 -20 250 -20q24 0 24 -14q0 -13 -23 -11z" />
<glyph unicode="3" horiz-adv-x="407" d="M370 105q-41 -83 -173 -139q-109 -46 -196 -47q-99 -3 -99 33q0 11 7 22t17 11q14 0 16 -22q1 -31 58 -31q74 0 170 44q58 26 96 58.5t55 72.5q9 21 9 43q0 50 -38 79q-46 36 -136 31q-7 0 -7 4q0 6 7.5 12.5t16.5 6.5q58 0 129 41q33 20 56 39t35 40q14 22 14 45 q0 43 -44 43q-71 0 -143 -34q-7 -4 -7 4q0 16 16 25q66 39 158 39q79 0 79 -61q0 -25 -13 -44q-48 -74 -186 -125q-8 -3 -8 -9t9 -7q25 -2 46 -12t37 -25.5t25 -36.5t9 -44q0 -14 -4 -28t-11 -28z" />
<glyph unicode="4" horiz-adv-x="462" d="M221 -90q-2 -12 -8 -12q-10 0 -8 15q3 38 26.5 91.5t69.5 125.5q-30 3 -113 3q-53 1 -88 -0.5t-55 -4.5q-11 -2 -22 -17q-11 -14 -15 -14q-8 0 -8 16q0 11 6 19q3 5 21 14q5 2 9.5 4.5t10.5 6.5q27 31 73 73t112 96l116 92q51 39 89 62q2 1 6 1q12 0 12 -12q0 -7 -8 -11 q-36 -22 -90.5 -61.5t-126.5 -97.5q-138 -109 -163 -141q33 6 88 6q42 0 101 -3l44 -3q15 -1 16 -1l109 149l136 184q18 23 59 23q11 0 11 -5q0 -2 -1 -3q-29 -33 -67 -81l-86 -109l-78 -103q-29 -40 -40 -58q85 -5 98 -2q5 1 5 -2q0 -5 -11 -13.5t-20 -8.5q-34 0 -55.5 0.5 t-31.5 1.5l-44 -63q-18 -24 -23 -33q-51 -80 -56 -124z" />
<glyph unicode="5" horiz-adv-x="456" d="M389 77q-91 -105 -247 -105q-54 0 -102 15q-50 15 -50 36q0 11 11.5 20t24.5 9q9 0 12 -5q37 -42 135 -42q93 0 152 36q50 32 50 91q0 32 -22 54q-55 54 -209 93q-11 4 -11 14q0 12 23 44l71 97l61 75q7 10 22 10q5 0 16.5 -3t30.5 -11l8 -5q5 -4 12 -6q35 -1 87 -1h118 q10 0 10 -6q0 -14 -23 -14q-75 0 -147 -1.5t-141 -3.5q-72 -67 -107 -126q-10 -17 4 -23q46 -17 72 -27.5t34 -13.5q35 -16 61 -30t43 -30q30 -27 30 -67t-29 -74z" />
<glyph unicode="6" horiz-adv-x="465" d="M409 95q-16 -23 -38 -43.5t-51 -38.5q-68 -41 -131 -41q-25 0 -49 8q-81 25 -81 114q0 129 130 269q171 186 341 216q3 1 6 1h6q11 0 11 -5q0 -6 -19 -9q-103 -20 -210 -116q-44 -39 -81.5 -84t-72.5 -98q97 39 179 39q23 0 33 -5q67 -21 67 -93q0 -59 -40 -114zM360 269 q-23 11 -64 11q-37 0 -70.5 -6.5t-63.5 -20.5q-60 -72 -60 -167q0 -54 28 -78q22 -19 58 -19q51 0 110 35q57 35 83 88q9 18 13 36.5t4 36.5q0 66 -38 84z" />
<glyph unicode="7" horiz-adv-x="413" d="M53 -92q2 -8 -5 -14.5t-15 -6.5q-16 0 -13 23q12 80 446 540q4 3 4 8q0 9 -19 12q-33 5 -130 6q-86 1 -108 -2q-9 -1 -22 -6l-32 -11q-5 -5 -12 -5q-8 0 -8 8q0 12 30 26q25 12 41 15q52 1 122 3l160 3q5 -1 20 2q4 3 11.5 7t18.5 9q21 4 21 -24q0 -16 -11 -27l-297 -290 q-111 -108 -160 -178.5t-42 -97.5z" />
<glyph unicode="8" horiz-adv-x="489" d="M462 157q5 -73 -99 -145q-51 -35 -100 -52t-98 -17q-31 0 -58 8.5t-47 25t-31.5 40t-11.5 54.5q0 32 11 58q25 61 126 134l66 43l102 63q-29 55 -29 95q0 31 17 50q13 16 33.5 28.5t47.5 23.5q51 20 98 21q22 2 44 -10q25 -10 23 -24q2 -20 -7 -20q-3 0 -5.5 1t-4.5 2 l-13 8l-12 9q-21 15 -51 15q-17 0 -37.5 -4.5t-34.5 -15.5q-46 -35 -46 -87q0 -33 18 -72q24 11 57 29t75 44t71 47t46 37q13 12 20 12q3 0 3 -4q0 -30 -263 -183q36 -63 51 -96q17 -36 27 -65.5t12 -52.5zM65 122q-14 -26 -14 -57q0 -92 106 -110q61 -10 151 39 q106 60 106 158q0 24 -6.5 50.5t-23.5 57.5l-18 31l-36 57q-210 -115 -265 -226z" />
<glyph unicode="9" horiz-adv-x="429" d="M170 446q32 45 91 83q71 43 133 43q25 0 51 -8q82 -27 82 -117q0 -61 -34 -129.5t-105 -145.5q-172 -187 -350 -219q-4 -1 -11 -1q-11 0 -11 5q0 8 20 11q51 10 103 35t106 70q98 81 163 192q-75 -37 -169 -37q-28 0 -46 6q-66 19 -66 90q0 61 43 122zM416 279 q65 79 65 177q0 53 -28 79q-23 20 -60 20q-51 0 -109 -35q-59 -38 -84 -91q-21 -47 -21 -86q0 -57 35 -78q25 -15 70 -15q74 0 132 29z" />
<glyph unicode=":" horiz-adv-x="167" d="M61 18q0 -6 -15 -12.5t-28 -6.5q-6 0 -9 4.5t-7 27.5q-3 26 0 30q1 3 6.5 6.5t12.5 6.5t14 5t12 2q2 0 6 -2q8 -8 8 -61zM170 202q0 -5 -15 -12t-28 -7q-6 0 -9 5t-7 28q-2 12 -2.5 19.5t2.5 9.5q3 6 19 13.5t26 7.5q3 0 5 -2q9 -9 9 -62z" />
<glyph unicode=";" horiz-adv-x="159" d="M-46 -114q-2 -3 -6 -3q-7 0 -7 8q0 3 4 7q63 44 71 105q1 8 -2.5 18t-10.5 24q-4 7 16 22t27 13q8 -2 14 -20t6 -34q0 -6 -1 -8q-18 -54 -111 -132zM165 202q0 -5 -15 -12t-28 -7q-6 0 -9 5t-7 28q-2 12 -2.5 19.5t2.5 9.5q3 6 19 13.5t26 7.5q3 0 5 -2q9 -9 9 -62z" />
<glyph unicode="&#x3c;" horiz-adv-x="717" d="M621 487q-1 0 -19 -8l-47 -21l-65 -31l-76 -35l-74 -34l-66 -30l-46 -22q-18 -8 -18 -9q-1 -5 1 -12t11 -14q11 -9 36 -27l56 -40l66 -47l68 -45q33 -21 61 -37t44 -22q9 -5 26 -7.5t37 -7.5q7 2 10 0.5t5 -0.5l7 -8q2 -3 0 -8q-6 -6 -16.5 -9t-30.5 -1q-16 2 -29 3 t-21 5l-73 45l-99 63l-109 68q-55 33 -101 58q-6 7 -20 10q-6 1 -8.5 0.5t-16.5 -1.5q-23 11 -6 43q2 4 40 20t95 38l126 48l133 48l118 42q52 19 77 27z" />
<glyph unicode="=" horiz-adv-x="540" d="M118 176q-18 0 -18 8q0 15 37 15h324q21 0 21 -8q0 -14 -30 -14q-23 0 -66.5 -0.5t-91.5 -0.5h-96h-80zM157 277q-19 0 -19 8q0 15 38 15h323q21 0 21 -7q0 -15 -30 -15q-23 0 -66 -0.5t-92 -0.5h-96h-79z" />
<glyph unicode="&#x3e;" horiz-adv-x="718" d="M176 50q1 0 32 14l76 35l99 45l99 46l75 35q30 14 31 15q1 5 -1 11.5t-12 14.5l-36 27l-55 40l-68 47l-68 45q-32 21 -60 37t-44 22q-9 5 -25.5 7.5t-36.5 6.5q-7 -1 -10.5 0t-5.5 0q-3 5 -5.5 8.5t-0.5 8.5q5 5 16 8.5t31 1.5l29 -3q12 -2 20 -5q28 -16 74 -45l98 -63 l109 -67q55 -34 101 -59q5 -5 9 -6.5t12 -3.5q6 -1 8.5 -0.5t15.5 1.5q25 -12 7 -43q-2 -5 -39.5 -21t-94.5 -38l-127 -48l-134 -48l-117 -42l-78 -26z" />
<glyph unicode="?" horiz-adv-x="392" d="M174 119q0 -7 -7 -7q-14 0 -32 24q-11 14 -15 24t-4 17t6 9q81 23 139.5 46t99.5 44q151 79 151 185q0 28 -11 66q-9 28 -26 51.5t-39.5 39.5t-48 25t-50.5 9q-52 0 -77 -36q-8 -11 -13 -11q-4 0 -4 4t2 7.5t4 8.5q19 25 41 39.5t45 20.5q10 2 19 3.5t18 1.5q32 0 61 -12 t55 -38q41 -41 59 -97q12 -41 12 -77q0 -101 -99 -159q-20 -11 -54 -27.5t-85 -38.5q-51 -21 -86 -34t-56 -20q-12 -3 -17 -17q-2 -7 -0.5 -15t4.5 -15.5t5.5 -13t2.5 -7.5zM149 8q-3 -5 -17 -11t-25 -6q-8 0 -12.5 4.5t-7.5 26.5q-4 23 0.5 29t20.5 14q18 8 24 8 q5 0 9.5 -3.5t7.5 -28.5q2 -14 1.5 -22t-1.5 -11z" />
<glyph unicode="@" horiz-adv-x="1013" d="M332 16q-10 -7 -23 -7q-25 0 -25 34q0 72 111 183q51 51 96.5 82t83.5 47q21 8 41 8q24 0 48 -9q17 -2 19 -1q15 3 27 13q3 3 5 3q5 0 7.5 -5t1.5 -8l-57 -88l-55 -89q-42 -70 -65.5 -134.5t-32.5 -122.5q-1 -5 -1 -10v-9q0 -67 78 -67q35 0 70 12q19 6 47 22t58 37 t57.5 44.5t45.5 44.5q47 55 71.5 129t24.5 149q0 74 -26.5 135t-73.5 105t-111.5 68.5t-141.5 24.5q-133 0 -238 -70q-46 -31 -82 -71l-22 -27q-11 -13 -22 -28q-15 -22 -29 -45.5t-25 -49.5q-13 -32 -23 -65t-15 -67l-4 -26l-2 -23.5t-1 -24.5v-31q0 -22 3 -44.5t8 -44.5 q9 -48 29 -93q44 -97 125 -157q53 -38 118 -59t140 -21q52 0 100 8t89 20.5t75 28t58 31.5q-67 -57 -150 -87.5t-175 -30.5q-101 0 -187 36t-148.5 100t-98 151.5t-35.5 189.5q0 111 39.5 206.5t108.5 166.5t161.5 111.5t198.5 40.5q86 0 157 -26.5t121.5 -75t78.5 -116 t28 -149.5t-28.5 -161t-82.5 -135q-15 -15 -30.5 -28.5t-35.5 -27.5q-44 -31 -82 -53t-65 -32t-58 -10q-49 0 -81 26q-36 28 -33 78q3 83 59 203q17 37 33.5 68t33.5 57q6 11 -1 11q-3 0 -4 -3q-24 -29 -58 -60l-77 -70q-43 -37 -81 -64.5t-70 -47.5zM349 101q-5 -9 -5 -23 q0 -24 18 -24q7 0 15 5q56 36 118.5 95t132.5 144q3 3 3 8q0 11 -12.5 20t-33.5 9q-36 0 -68.5 -24.5t-73.5 -69.5q-66 -74 -94 -140z" />
<glyph unicode="A" d="M1076 330q-8 5 -8 12q-2 6 4 6q3 0 5.5 -2t5.5 -4q37 -33 50 -65q5 -14 -29 -27q-20 -7 -112 11q-11 -57 -17 -101t-6 -78q0 -35 7 -56q0 -1 3.5 -3t7.5 -4t7 -4t3 -3q-2 -15 -20 -15q-7 0 -8 4q-16 33 -16 116q0 31 2.5 68t7.5 81l-114 24q-60 13 -127 29 q-48 -51 -105.5 -100t-126.5 -97q-97 -69 -177 -102t-143 -34t-97.5 35t-34.5 99q0 53 26 119q48 117 157 145q23 6 50.5 8.5t61.5 2.5q152 0 388 -51q58 61 162 186l101 125q44 56 73 101q5 5 13 5q17 0 38 -14t19 -21l-45 -138q-20 -58 -32 -98q-23 -73 -36.5 -126.5 t-19.5 -87.5q51 -15 83 -15t32 16q0 24 -33 53zM216 361q-93 -21 -135 -128q-19 -50 -19 -101q0 -56 26 -89q15 -19 36 -29t50 -9q66 2 142 33.5t166 95.5q55 39 109.5 86.5t108.5 102.5q-194 48 -371 48q-35 0 -63 -2.5t-50 -7.5zM741 338q57 -17 113.5 -31t112.5 -25 q12 121 103 399q2 10 2 13q0 16 -9 16q-5 0 -8 -2.5t-8 -7.5q-76 -101 -152 -191t-154 -171z" />
<glyph unicode="B" horiz-adv-x="498" d="M183 -8q-16 1 -21.5 4.5t-4.5 7t7 6t12 2.5q51 -2 102.5 7t93.5 28q18 8 31 22.5t17.5 32t-1.5 35.5t-26 33q-13 10 -38.5 19.5t-53.5 17.5t-55 13.5t-43 7.5l-27 -38q-22 -29 -47.5 -67.5t-49.5 -79t-37 -68.5q-9 -20 -15 -21t2 23q6 20 23.5 53t39.5 69l44 71 q22 36 39 61q-7 2 -12 3t-12 4q-8 3 -12 7.5t-4.5 9t2 8t5.5 3.5q9 1 26.5 2.5t30.5 5.5q22 31 43 64l41 66q19 32 34 61t25 51q2 4 4.5 11.5t3 14t-1.5 12t-9 6.5q-6 1 3 8t22 11.5t24 3t8 -16.5q-3 -14 -13.5 -38t-26.5 -52l-33 -58l-35 -58l-32 -49l-22 -34q14 2 40.5 8 t59 14.5t69 19.5t71 24.5t64 28.5t49.5 31q19 15 35 36t22 44.5t-2.5 48.5t-39.5 48q-47 35 -102 57t-114.5 34.5t-121.5 17.5t-123 6q-9 0 -31.5 1t-52 -0.5t-63 -6t-64.5 -14.5t-56.5 -27.5t-38.5 -43.5q-8 -15 -2 -31t18 -30.5t26.5 -25t23.5 -15.5q15 -8 14 -15.5 t-19 3.5q-17 10 -37 23.5t-35.5 29.5t-21.5 34t6 39q12 23 40.5 38.5t64 26.5t73.5 17.5t70.5 9.5t55.5 4t27 1q68 -1 131.5 -4.5t123.5 -15t116 -32.5t109 -58q34 -24 48 -52t10 -56.5t-23.5 -55.5t-51.5 -48q-39 -26 -86 -46.5t-94.5 -35.5t-92 -25t-77.5 -16 q-13 -2 -13 -8t12 -8q31 -4 59.5 -13t52 -20t40.5 -22t25 -19q23 -23 24.5 -43.5t-9 -38.5t-29 -33t-35.5 -27q-34 -23 -83.5 -35.5t-112.5 -8.5z" />
<glyph unicode="C" horiz-adv-x="801" d="M379 -4q-122 3 -208 55q-96 58 -96 149q0 109 129 240q112 114 280 205q159 86 266 99q27 3 54 3q76 0 109 -30l13 13q1 5 7 3q5 -1 5 -7q0 -3 -13 -19q14 -17 14 -57q0 -39 -13.5 -73t-48.5 -75q-22 -25 -46 -45.5t-52 -36.5q-3 -1 -17 0q-16 3 -16 7q0 56 57 146 q43 70 86 116q-18 40 -99 40q-11 0 -23.5 -1t-26.5 -3q-169 -32 -367 -179q-209 -158 -255 -309q-7 -24 -7 -49q0 -74 63 -120q74 -53 206 -50q152 3 314 69q149 60 242 145q6 7 11 7q4 0 4 -5q0 -4 -7 -11q-91 -93 -248 -159q-84 -35 -163 -52.5t-154 -15.5zM772 447 q-1 -7 2 -9q4 -3 9 0q37 24 64.5 56t44.5 72q13 30 13 62q0 28 -10 45q-19 -20 -38 -46t-37 -61q-35 -67 -48 -119z" />
<glyph unicode="D" horiz-adv-x="644" d="M399 706q-38 13 -93.5 21.5t-118 10t-126.5 -6t-119.5 -28t-97 -55t-59.5 -86.5q-14 -39 -6.5 -77.5t25.5 -73t41.5 -64t42.5 -50.5q18 -20 12.5 -25.5t-25.5 12.5q-68 66 -100.5 129t-21.5 126q11 60 53.5 102t102.5 68.5t131.5 38.5t141 14t130.5 -5t100 -19 q92 -30 157 -76t102.5 -101.5t48 -118t-6 -125t-59 -122t-110.5 -109.5q-25 -18 -65.5 -40t-87.5 -41t-97.5 -32t-95 -13t-79.5 16.5t-52 56.5q-4 8 -6.5 8.5t-7.5 -8.5l-11 -31q-6 -15 -11 -36q-3 -17 -10.5 -17.5t-3.5 20.5q4 20 13 45l17 49q2 5 1.5 6.5t-2.5 8.5 q-20 50 24 53q4 0 2.5 0t0.5 4q20 41 45 87.5l52 93.5l56 92l54 84l48 70q23 32 40 51q6 6 14.5 9.5t16 3.5t11 -3.5t-1.5 -10.5q-19 -24 -48 -64l-61 -88l-67 -102l-64 -101l-53 -90q-23 -41 -33 -66q-6 -14 -6 -32.5t8 -32.5q14 -24 43 -35.5t68 -13t84 6t90.5 22.5t88 37 t75.5 49q59 47 94.5 102.5t47.5 114t1 116t-45.5 109t-92.5 93.5t-139 69z" />
<glyph unicode="E" horiz-adv-x="821" d="M1080 637q2 -13 -9.5 -14.5t-22.5 2.5q-22 4 -57.5 8.5t-76 7.5t-82 5t-75.5 2q-61 -60 -118.5 -135t-103.5 -147q40 3 87 5t94 2.5t93 -0.5t85 -4q14 -2 14.5 -11t-14.5 -9q-24 0 -57 -1.5t-70 -3.5t-75 -5t-73.5 -6.5t-65 -8t-48.5 -9.5l-28 -51q-15 -29 -28 -61.5 t-22 -67.5t-10 -71q0 -27 11 -45t28.5 -28t39 -13t42.5 -1q30 3 69.5 10.5t82.5 20.5t87 30t82 39q11 6 12.5 -1t-5.5 -11q-36 -29 -78.5 -51t-86 -37t-86 -23t-78.5 -8q-13 0 -36.5 5.5t-47.5 19t-43 37t-22 59.5q-2 27 4.5 60.5t17.5 65.5t24 61t25 47q-8 0 -17 1t-14 9 q-3 2 -7 6.5t-6.5 10t-2.5 11t5 10.5q4 4 13 6t20 3l22 4q10 1 18 3l100 143q52 72 108 140q-42 0 -92 -5t-101 -16.5t-100.5 -30t-92.5 -45.5q-54 -35 -92.5 -88t-43.5 -125q-4 -52 12.5 -100.5t44.5 -93.5q4 -6 3.5 -9.5t-3 -5t-6.5 0t-8 6.5q-27 38 -47 92.5t-21 109.5 q-2 78 33.5 135t110.5 107q48 32 98 51.5t104 31t113 17t124 9.5q10 11 18 18.5t17 14.5q6 4 9 -0.5t6 -12.5t9 -15t19 -7q74 -1 135.5 -8t110.5 -15q22 -7 22 -27z" />
<glyph unicode="F" horiz-adv-x="429" d="M767 746q-13 11 -6.5 11.5t15.5 -4.5q27 -16 41 -42.5t11.5 -53t-22.5 -48t-60 -25.5q-62 -7 -126.5 5.5t-131.5 34.5t-137.5 48t-144.5 46.5t-151.5 29t-159.5 -4.5q-58 -9 -96 -46t-57 -90.5t-19.5 -116t16 -123t49 -111.5t79.5 -81q36 -23 78.5 -26.5t81.5 10.5 t70.5 44t44.5 74q1 3 9 4.5t8 -4.5q-6 -45 -39 -78.5t-76 -51.5t-88 -19t-76 18q-63 39 -104 98.5t-60 128t-15 139.5t30 132q24 56 66.5 88t96.5 45t116.5 10t126.5 -16t126.5 -33.5t117.5 -41.5q109 -43 197 -65t145.5 -22t80 22.5t0.5 68.5q-7 15 -16 25zM470 615 q6 5 12 3t9 -8t2.5 -14t-7.5 -15l-24 -31l-38 -52q-22 -30 -43.5 -66.5t-37.5 -73.5q-4 -11 -2.5 -13t13.5 -4q27 -5 60.5 -6.5t66.5 -1.5t60.5 1t41.5 1q17 0 16 -4t-17 -7q-14 -5 -46 -7t-69 -3t-72 -1t-56 -1q-11 -1 -16.5 -5.5t-9.5 -16.5l-25 -73q-14 -39 -25 -78 t-17.5 -76t-4.5 -67q0 -6 2.5 -8.5t4.5 -4t3.5 -4.5t0.5 -10q-7 -23 -20 -28.5t-15 17.5q-3 21 2 61t14.5 87.5t22.5 96.5t27 87q4 12 -4.5 16.5t-18.5 4.5q-6 0 -12 -1.5t-9.5 -3t-5.5 -1.5t-1 5q3 12 15 18.5t37 12.5q12 3 17.5 6.5t13.5 18.5q17 35 39.5 76.5t48.5 81.5 q10 16 0.5 15t-24.5 -8q-8 -4 -11.5 -3t-3.5 4t2.5 6t6.5 4q28 14 55 36.5t42 36.5z" />
<glyph unicode="G" horiz-adv-x="924" d="M312 -91q59 65 224 112q30 8 96 22.5t169 33.5q17 40 42 93l57 120q5 11 5 15q0 2 -1 2t-12 -8q-63 -45 -132.5 -87t-149.5 -80q-97 -46 -176 -68t-142 -24q-83 -1 -136 35q-56 39 -56 114q0 18 3 38t10 40q64 197 348 356q275 153 518 138q63 -3 110 -46q44 -40 62 -99 q3 -5 3 -10t-5 -4q-4 1 -7 8q-8 19 -18 33.5t-21 26.5q-44 45 -121 53q-11 1 -22 1h-22q-234 0 -487 -144q-259 -147 -316 -318q-15 -47 -15 -82q0 -57 41.5 -86.5t126.5 -30.5q68 -1 159 26.5t207 85.5q97 48 163.5 89.5t101.5 75.5q1 1 5 6q40 94 64 125l20 17l27 24 q3 3 5 3q6 0 8 -13q2 -14 -1 -23q-18 -71 -45 -99q-2 -2 -8 -3.5t-14 -4.5q-7 -12 -32 -60l-68 -136q17 -17 28 -54q-5 -8 -13 -18l-17 -20q-6 -3 -51 -16q-69 -123 -125.5 -198t-101.5 -105q-104 -69 -169 -70q-75 -2 -118 34q-39 33 -39 86q0 51 38 94zM703 42 q-115 -26 -197 -55q-124 -45 -181 -95q-41 -38 -41 -85q0 -20 8 -36.5t26 -29.5q37 -27 111 -25q89 3 164 63q86 68 199 283zM874 163q-6 -14 -16 -33t-22 -45q8 2 16 7l20 10q12 9 13 28q2 20 -11 33z" />
<glyph unicode="H" horiz-adv-x="1031" d="M1330 756q-41 -46 -83 -100.5t-80.5 -111.5t-71.5 -113t-56 -105q11 0 22 1t19 -1q7 -2 9 -6t0.5 -7.5t-6 -6.5t-11.5 -1q-9 1 -19.5 0t-24.5 -1q-9 -18 -23 -49t-27 -68.5t-22 -77.5t-8 -75q1 -14 11.5 -18.5t18.5 0.5q7 4 9 0t-2 -11q-4 -5 -14 -12q-6 -2 -13 1t-13 9 t-11 14t-6 14q-5 27 -1 62.5t13.5 73t22.5 74t26 63.5q-22 0 -58 -1t-75.5 -2.5t-78 -4t-65.5 -6.5q-53 -72 -112.5 -140.5t-124.5 -127.5t-135 -103.5t-143 -68.5q-49 -16 -84.5 -14.5t-58 13.5t-32.5 32.5t-7 42.5q3 19 12 39t21.5 38t26 33.5t25.5 26.5q8 8 13 4.5 t-3 -11.5q-9 -11 -19.5 -25.5t-20 -32t-16.5 -36.5t-9 -38q-3 -30 6.5 -46t30 -20.5t49 0.5t62.5 17q41 14 84.5 39.5t86.5 58t84.5 71t79.5 79.5t71 82.5t60 80.5q-8 -1 -21.5 -3.5t-24.5 -2.5q-9 0 -16 6.5t-10 14.5t-1 15t12 8q17 3 40 2.5t47 1.5q14 17 29.5 43t29 54 t24 55.5t14.5 47.5q11 52 3 90t-33 60.5t-67 28t-100 -8.5q-96 -23 -188 -87t-168 -152q0 -13 -2 -18t-6 -11q-8 -11 -21 -24t-26 -21q-6 -4 -11.5 0.5t-8.5 12.5t-3 17.5t4 15.5q37 55 88.5 104t108.5 88t115 65.5t108 37.5q65 14 114 5.5t80 -35.5t43 -70.5t4 -99.5 q-3 -23 -12 -50.5t-20 -54.5t-24 -51t-25 -42q22 1 56.5 0.5t72.5 -1t74 -0.5t60 1q18 39 44 85l56 91l55 85q27 40 47 66q5 6 2 9.5t-11 0.5q-5 -1 -7.5 2.5t1.5 7.5l27 31l32 32l30 30q15 14 25 25q5 5 11 2.5t11 -8.5t7.5 -14.5t1.5 -14.5z" />
<glyph unicode="I" horiz-adv-x="478" d="M757 739q-45 -98 -99 -203t-115.5 -201t-128.5 -175.5t-137 -124.5q-27 -18 -57 -28t-57.5 -13t-52 2t-41.5 19q-11 9 -18 28.5t-11 36.5q-3 9 4 11t9 -7q5 -17 15.5 -31.5t22.5 -24.5q13 -11 32.5 -15t43 -2t49 11t49.5 25q42 29 84 74.5t82 101.5t78 119t71.5 127.5 t62.5 126t51 114.5q-60 -11 -120 -30t-114.5 -42.5t-102.5 -51t-85 -55.5q-25 -20 -49.5 -46.5t-32.5 -65.5q-4 -20 1 -38t10 -29q2 -5 -0.5 -8t-6.5 2q-9 11 -15 32t-7 40q-2 35 20 67t62 66q34 29 84 57.5t109 54t125.5 46.5t134.5 36q15 3 22 12q4 4 10 3.5t10.5 -4 t7 -8.5t0.5 -9z" />
<glyph unicode="J" horiz-adv-x="487" d="M746 744l-64 -132l-68 -136l-68 -128l-57 -110q-5 -8 -3 -14.5t9 -6.5q8 0 7.5 -5t-8.5 -7q-4 -1 -13 -5l-17 -6q-55 -94 -113.5 -184t-130.5 -173q-36 -42 -77 -81t-88.5 -72t-102 -58.5t-117.5 -40.5q-45 -11 -77 -2t-46.5 33t-9.5 60.5t35 80.5q33 49 83 97t109 92.5 t125.5 84.5t132.5 73.5t129 59t117 42.5l67 128l66 132l62 126q29 61 50 110q-66 0 -132.5 -18t-127 -51.5t-112 -81.5t-87.5 -107q-15 -24 -28.5 -54t-21.5 -62t-7 -65t16 -63q4 -8 0.5 -10.5t-8.5 6.5q-14 25 -21.5 57.5t-6.5 68.5t10 72.5t28 69.5q33 57 78.5 97.5 t95.5 69t101 46.5t96 29.5t79.5 18t51.5 12.5q14 2 23.5 8.5t15.5 13.5q4 4 9 3t9.5 -4t6.5 -7t0 -7zM425 186q-84 -28 -178.5 -73t-184 -103t-168 -126t-131.5 -141q-30 -42 -37 -73t4.5 -49t38.5 -23t65 5q60 16 112 43t97 60.5t83.5 71t71.5 75.5q25 28 56 71l62 92 l60 92z" />
<glyph unicode="K" horiz-adv-x="363" d="M86 190q-4 -4 -5.5 -8.5t-1.5 -7.5q0 -6 5 -6q4 0 16 10q26 26 74 68q6 35 16 41q9 4 17 -8q131 111 263 193q98 60 174.5 87t131.5 23q17 -2 17 -9q0 -8 -17 -5q-60 4 -142 -28t-186 -104q-73 -49 -229 -183q29 -85 52 -145t42 -100q92 -198 195 -259q36 -22 77 -22 q88 0 156 74q11 9 15 9q3 0 3 -5t-8 -14q-84 -78 -169 -78q-40 0 -85 20q-153 71 -313 491q-12 -5 -37.5 -29.5t-65.5 -70.5q-77 -87 -97 -120q-3 -6 -14 -6q-17 0 -17 9q0 4 2 6q27 38 69 107l102 175q132 235 165 332q6 15 6 33q0 53 -57 58q-47 3 -112 -22t-151 -82 q-85 -57 -135.5 -107t-67.5 -98q-4 -12 -4 -20q0 -17 20 -24q13 -7 39 -7q13 -3 13 -7q0 -7 -11 -7q-17 -3 -28.5 -4.5t-16.5 1.5l-12 10q-7 6 -13 14t-9 17.5t-1 21.5q1 2 1 6t1 6q19 56 72.5 110.5t143.5 113.5q170 111 265 106q42 -3 66 -53q12 -20 16.5 -37t2.5 -31 q-9 -89 -233 -435z" />
<glyph unicode="L" horiz-adv-x="627" d="M1 156q-2 15 23 35q11 8 19 13t16 7q5 1 11 1.5t11 0.5q26 0 62 -9.5t84 -29.5q6 -2 39 -18l94 -44q30 81 55 142l45 106q94 214 171 294q22 23 63 46q27 15 50 22t43 8q60 2 108.5 -43t75.5 -129q1 -3 2 -5.5t1 -4.5q0 -9 -6 -9t-10 11q-12 32 -31 59.5t-44 51.5 q-49 48 -98 52q-63 6 -134 -74q-77 -86 -174 -298q-14 -30 -39 -89l-60 -150l80 -43l79 -44q74 -39 140.5 -70.5t126.5 -54.5q84 -33 154.5 -49.5t129.5 -18.5q91 -2 153 46q13 10 25.5 27t22.5 37.5t16.5 44t8.5 47.5q3 17 7 17q6 0 6 -18q0 -44 -22 -99q-23 -53 -51 -74 q-9 -5 -24 -11.5t-38 -12.5q-26 -8 -51.5 -11t-50.5 -4q-115 -3 -296.5 61t-429.5 194q-15 -44 -52 -77t-73 -34q-74 -1 -156 75q-38 36 -59 67t-23 59zM240 -32q74 -2 105 106q-183 88 -275 102q-38 5 -38 -22q0 -9 5 -22q28 -66 92 -116q60 -47 111 -48z" />
<glyph unicode="M" horiz-adv-x="890" d="M262 414q-137 -271 -248 -391q-3 -4 -10.5 -9.5t-18.5 -10.5q-11 -8 -19 -10.5t-12 -2.5q-8 0 -8 22q0 59 108 200q43 57 89.5 108.5t97.5 100.5q22 42 40 85.5t33 88.5q27 84 27 120q0 34 -15.5 46t-52.5 8q-108 -12 -281 -148q-180 -141 -180 -229q0 -17 25 -25 q13 -5 21.5 -6t12.5 0q14 2 14 -2t-16 -9q-16 -6 -34 0q-11 4 -23 21t-12 37q0 62 92 156q85 85 198 152q115 69 180 74q30 1 62 -23q32 -25 31 -52q-2 -42 -21 -104.5t-54 -144.5q127 111 177 111q20 0 35 -16.5t13 -35.5q-15 -118 -139 -374q-8 -17 7 -17q8 0 14 10 q49 65 114 138t150 154q105 103 178.5 153.5t116.5 52.5q26 2 42 -29q14 -28 14 -56q0 -17 -5 -22l-93 -151q-38 -63 -58 -99q-101 -184 -119 -303q-1 -4 -1 -8v-6q0 -39 31 -32q14 4 33.5 14.5t44.5 29.5q47 36 70 65q9 12 14 12q3 0 3 -3q0 -6 -8 -17q-21 -31 -65 -68 q-26 -23 -48.5 -36t-42.5 -19q-17 -5 -32 19q-16 24 -16 49q-2 91 88 276q35 74 77 150t93 154q14 22 14 37q0 22 -30 22q-13 0 -28 -4q-89 -23 -286 -217q-173 -170 -305 -344q-10 -13 -31 -13q-16 0 -16 10v3l2 5q173 329 197 466q6 33 -23 33q-39 0 -112 -57 q-62 -47 -96 -89zM2 35q23 26 53.5 68.5t67.5 101.5q76 118 98 173q-58 -50 -127 -143q-82 -108 -109 -184q-11 -27 2 -27q7 0 15 11z" />
<glyph unicode="N" horiz-adv-x="535" d="M226 733q42 -2 69 -41q23 -34 23 -85q0 -23 -5 -46q-14 -54 -59.5 -146.5t-125.5 -226.5q-7 -11 -7 -18q0 -4 4 -4q7 0 16 16q41 52 90.5 106t109.5 112q82 81 144.5 123t105.5 50q14 2 24 -5t21 -20q14 -16 16 -29.5t2 -27.5q0 -6 -0.5 -12t-2.5 -10l-72 -131l-71 -132 q-18 -33 -46 -90l-57 -125l-59 -139q-30 -72 -51.5 -134t-32 -107.5t-2.5 -61.5q2 -5 0 -10.5t-2 -10.5q0 -30 16 -30q42 0 146 103q12 12 15 12q2 -2 2 -4q0 -4 -9 -17q-17 -28 -66 -68q-53 -42 -80 -42q-11 0 -19 7t-14 17t-9 22t-3 23q1 16 13.5 61.5t33.5 107.5l45 132 l50 136l48 123q23 56 39 89l145 294q11 21 11 38q0 21 -23 21q-15 0 -36 -9q-45 -19 -98.5 -57t-116.5 -98q-51 -48 -100 -102.5t-98 -116.5q-80 -102 -111 -151q-10 -16 -25 -16q-13 0 -13 11q0 3 1 6l4 9q243 400 286 536q5 16 7.5 31t2.5 29q0 83 -73 89q-72 5 -194 -66 q-124 -71 -215 -165q-100 -103 -100 -178q0 -27 26 -32q15 -3 30.5 -3.5t29.5 2.5q12 2 12 -4q0 -5 -12 -8q-35 -11 -60 -6q-48 9 -45 75q3 64 97 164q93 100 211 169q130 76 217 71z" />
<glyph unicode="O" horiz-adv-x="852" d="M122 319q25 97 119 189q-4 13 -4 29q0 58 52 119q60 70 155 109q46 19 93 27.5t96 8.5q39 0 75 -6q116 -18 186 -119q58 -84 58 -172q0 -7 -0.5 -13.5t-1.5 -11.5q-21 -147 -126 -267q-45 -53 -101.5 -93t-123.5 -71q-123 -57 -234 -51q-103 5 -174 62q-81 66 -81 173 q0 42 12 87zM744 712q10 -1 10 -7q0 -10 -11 -7q-26 6 -56 6q-120 0 -265 -77q-126 -65 -165 -121q5 -33 41 -62q35 -28 78 -28q11 0 11 -7q0 -10 -16 -7q-44 1 -81 30q-35 26 -46 60q-14 -13 -29.5 -32t-32.5 -46q-16 -27 -27.5 -51t-16.5 -45q-6 -22 -8.5 -42.5 t-2.5 -40.5q0 -93 63 -147.5t175 -59.5q118 -6 252 64q68 36 123.5 80.5t99.5 99.5q96 118 96 238q0 95 -56 168q-64 80 -185 98q-14 2 -29 3t-29 1q-98 0 -192 -39q-90 -36 -144 -93q-48 -51 -48 -101q0 -10 2 -20q71 71 187 126q132 64 245 64q15 0 29 -1.5t28 -3.5z" />
<glyph unicode="P" horiz-adv-x="598" d="M293 267q4 -12 21 -17q32 -16 89 -16q53 0 96.5 10t77.5 28q79 40 79 131q0 112 -105 213q-57 53 -120 96.5t-133 75.5q-77 35 -149.5 52t-144.5 17q-157 0 -177 -114q-3 -20 -3 -39q0 -106 45 -173q5 -8 5 -12l-2 -2q-5 0 -10 8q-15 12 -26.5 33.5t-20.5 50.5 q-15 49 -15 101q0 18 3 33q8 55 70 93q68 42 166 37q81 -5 159.5 -25.5t157.5 -59.5q60 -29 113 -65.5t101 -79.5q128 -114 128 -233q0 -109 -117 -156q-40 -16 -87.5 -24.5t-104.5 -8.5q-23 0 -44 2t-37 5.5t-26 8.5t-10 11q0 8 21 19zM-73 -40q-30 15 -47 41q-6 9 -6 15 t5 6q4 0 13 -9q17 -21 46 -33q12 -5 27.5 -3.5t35.5 6.5q70 26 206 262q124 215 177 374q4 4 3 4q3 0 5 -18q2 -19 -1 -26q-56 -159 -131 -305q-123 -241 -234 -302q-31 -17 -69 -17q-17 0 -30 5z" />
<glyph unicode="Q" horiz-adv-x="1026" d="M378 557q-5 -10 -8 -10q-2 0 -4 10q-2 13 4 29q41 85 153 144q121 64 254 60q157 -6 242 -97q84 -87 84 -222q0 -68 -22 -137q-45 -141 -224 -260q-181 -119 -354 -119q-36 0 -69 6l153 -77q63 -31 100 -47q186 -82 274 -79q70 2 117 35q29 22 44 51.5t15 70.5 q0 34 -10 68q-1 5 -1.5 8t0.5 6q0 4 3 3q6 -3 11 -12q5 -6 9 -18t9 -31q10 -37 7 -60q-6 -36 -69 -87q-29 -24 -52 -38t-40 -16q-14 -3 -27.5 -4t-28.5 -1q-111 0 -277 71q-23 10 -97 47l-204 101q-91 45 -159.5 71.5t-118.5 39.5q-8 2 -15.5 3t-12.5 1q-35 0 -35 -27 q0 -11 5 -19q2 -8 9 -19.5t21 -23.5q17 -17 1 -17t-42 35q-25 33 -22 54q2 13 33 37q15 12 26 17.5t18 6.5q9 1 29.5 -4.5t52.5 -16.5l58 -20q26 -10 45 -20q-45 37 -45 138q0 16 1 31.5t4 30.5q22 124 136 253q102 117 226 184q9 6 16 6t7 -4q0 -7 -14 -15 q-94 -50 -202 -180q-122 -144 -145 -256q-4 -17 -5 -35t-1 -34q0 -185 238 -179q78 2 154.5 22.5t154.5 58.5q193 97 271 269q31 68 31 135q0 117 -82 199q-87 87 -231 91q-136 4 -254 -57q-108 -55 -138 -127q-2 -5 -3.5 -11t-3.5 -13z" />
<glyph unicode="R" horiz-adv-x="571" d="M226 217q0 21 20 21q6 0 10.5 -4.5t23.5 -10.5q31 -2 67.5 4t81.5 18q89 26 149 63q105 64 105 169q0 100 -87 175q-68 61 -194 97q-123 36 -260 36q-127 0 -229 -31q-98 -29 -98 -108q0 -29 14 -60q4 -8 6.5 -14t4.5 -10l4 -8q0 -1 -3 -1t-11 8q-30 33 -30 82 q0 90 108 125q106 34 241 34q139 0 263 -34q129 -35 202 -92q107 -83 107 -188q0 -119 -134 -194q-52 -30 -134 -55q-46 -14 -88 -22t-82 -10q-7 0 -5 -13q8 -47 42 -127q37 -86 69 -118q34 -34 64 -34q13 0 26 5q4 1 6.5 1.5t4.5 0.5q4 -2 3 -3q-1 -4 -8 -7 q-19 -11 -41 -11q-32 0 -75 33q-29 23 -86 135t-57 148zM401 569l-90 -135l-90 -135q-71 -108 -103.5 -174t-29.5 -92q1 -10 -18 -10q-18 0 -21 12q-15 48 321 522q11 11 5 24q-2 4 -2 5q0 9 8 9q5 0 10 -5q15 -16 10 -21z" />
<glyph unicode="S" horiz-adv-x="569" d="M129 202q70 30 158.5 51t196.5 30l-74 99l-89 121q-58 76 -58 137q0 67 70 112q148 95 347 95q37 0 67 -3.5t54 -11.5q19 -6 34.5 -18t28.5 -27q25 -38 25 -81q0 -14 -2.5 -28.5t-8.5 -29.5q-4 -10 -8 -14q-3 -5 -4 0q-1 4 1.5 18.5t2.5 31.5q0 50 -28 86q-26 32 -69 44 q-26 8 -56 11t-64 3q-182 0 -304 -89q-60 -45 -60 -102q0 -48 49 -121l74 -94l106 -137h42q24 0 55 1q11 0 11 -4q0 -5 -36 -6q-50 -1 -61 -3q28 -47 28 -96q0 -100 -107 -145q-46 -19 -94.5 -29t-100.5 -10q-77 0 -132 20q-82 28 -82 92q0 58 88 97zM492 269 q-49 -6 -87.5 -12.5t-66.5 -12.5q-119 -24 -195 -64q-85 -43 -85 -88q0 -21 26 -44q18 -16 41 -22q29 -8 58 -11t60 -3q53 0 101 11.5t93 33.5q89 45 89 121q0 50 -34 91z" />
<glyph unicode="T" horiz-adv-x="219" d="M687 678q-32 3 -92 11.5t-136 21.5l-66 -113l-71 -127l-70 -133l-62 -128q-29 -61 -50 -114t-31 -91q-5 -19 -1.5 -35t8.5 -27q3 -8 -2 -14.5t-12 -8.5t-13.5 2.5t-6.5 18.5q-1 33 16.5 90.5t46.5 128.5t66 150l75 154l74 141l62 112l-148 22q-78 11 -153.5 18.5 t-144.5 10.5t-122 -3q-20 -2 -47 -8.5t-48.5 -20t-32.5 -35.5t3 -55q16 -40 42.5 -81t49.5 -69q9 -12 12 -17.5t1 -6t-7.5 3t-11.5 9.5q-35 35 -59 66t-44 68q-19 34 -9.5 63t33.5 50.5t54.5 35.5t54.5 19q40 8 108 7t149.5 -7t169.5 -15l170 -18q8 11 13.5 19.5t10.5 13.5 q4 4 2.5 8.5t-5.5 3.5l-12 -3q-7 -1 -13 -4q-11 -4 -11 1t9 10q6 5 14.5 11.5t18.5 12.5t19 10.5t17 5.5q14 2 20.5 -9t-1.5 -23q-18 -29 -41 -61q69 -8 125 -13t90 -5q17 0 22.5 9t3.5 18l-4 17q-1 7 -6 18q-8 20 -2.5 23t16.5 -15q3 -5 7.5 -14t8.5 -19.5t4.5 -22.5 t-3.5 -22q-4 -5 -8.5 -13.5t-12.5 -15.5q-10 -8 -18 -13t-19 -4z" />
<glyph unicode="U" horiz-adv-x="656" d="M550 1q4 -9 4 -40q-2 -14 -12 -14q-9 0 -11 17q0 37 7 65q15 58 86 213l57 127q19 42 20 44q9 26 -1 26q-6 0 -13 -8q-48 -45 -114 -101l-152 -126q-226 -181 -302 -204q-6 -2 -12 -2q-12 0 -23.5 5.5t-20 15.5t-12.5 23t-2 27q11 72 85 196l64 105l63 106 q34 58 50 103.5t16 76.5q0 29 -22 57q-24 30 -67 33q-119 9 -256 -75q-67 -41 -115 -89t-79 -103q-9 -17 -13 -35t-4 -38q0 -64 62 -105q8 -4 8 -10q0 -4 -6 -4q-4 0 -11 4q-27 21 -44 40t-23 38q-7 22 -7 48q0 38 17 73q52 108 185 192q144 92 286 86q37 -1 76 -45 q37 -42 36 -80q-3 -76 -63 -191q-2 -4 -30 -54l-84 -147q-34 -59 -55 -105t-28 -79q-3 -9 -3 -17q0 -28 28 -28q12 0 30 8q43 20 116.5 71t177.5 138l131 109l131 113q14 11 28 28t34 38q4 6 13 6t15 -7.5t4 -17.5l-5 -18q-2 -10 -6 -21q-22 -29 -53 -83.5t-73 -135.5 q-45 -89 -71.5 -150.5t-36.5 -98.5z" />
<glyph unicode="V" horiz-adv-x="314" d="M105 16q-16 -19 -34 -19q-10 0 -18 5.5t-13.5 14t-8.5 18.5t-3 19q3 42 31 123.5t82 205.5q105 241 108 309v4q0 2 1 7v14q0 44 -44 44h-9q-5 0 -10 -1q-125 -18 -245 -144q-111 -117 -120 -212q-3 -40 19 -53q3 -2 9 -2.5t14 -2.5q10 -1 10 -7q0 -9 -15 -12q-10 0 -19 8 q-6 2 -12.5 8.5t-14.5 19.5q-14 25 -12 44q14 119 137 241t238 135q40 5 71 -25q32 -29 31 -71q-1 -35 -26 -111.5t-74 -194.5q-52 -127 -81.5 -207.5t-35.5 -117.5q-2 -14 0 -28q3 -18 12 -18t21 16q109 141 198 245.5t158 174.5q228 228 371 228q27 0 51 -7q12 -7 12 -9 q0 -5 -12 -2q-10 2 -19 3t-18 1q-104 0 -257 -127q-57 -46 -123 -112.5t-141 -154.5l-104 -124z" />
<glyph unicode="W" horiz-adv-x="777" d="M69 1q-5 -7 -15 -7q-26 0 -26 18q0 4 2 10q319 552 305 676q-8 80 -86 80q-112 0 -297 -116q-188 -117 -226 -225q-15 -45 6 -64q16 -13 59 -13q11 0 11 -2q0 -4 -12 -6q-35 -13 -60 0q-12 6 -21 27.5t-9 42.5q0 10 2 15q22 96 198 221q88 62 166.5 98t148.5 45 q50 7 95 -27q42 -30 44 -76q3 -89 -78 -276q-32 -75 -69.5 -147t-81.5 -144q-5 -12 -5 -15q0 -8 6 -6q6 1 15 10l149 171l189 215q0 2 15 25q8 17 16 15q11 -4 20 -20t9 -30q0 -6 -2 -10q-32 -61 -55.5 -113.5t-37.5 -95.5q-32 -98 -33 -197q-1 -32 20 -52.5t54 -20.5h8 q4 0 8 1q55 7 164 109q109 101 186 223q91 143 94 246q2 36 -3.5 62t-16.5 43q-7 7 -7 13q0 4 3 4q6 0 15 -11q31 -35 31 -111q0 -99 -90 -243q-39 -64 -86.5 -121t-104.5 -111q-113 -105 -181 -120q-6 -1 -11.5 -1.5t-10.5 -0.5q-38 0 -65 25t-30 65q-1 9 -1 17v20 q0 157 97 342q4 7 4 16t-6 9t-13 -7l-144 -166l-197 -230q-12 -14 -26.5 -35t-32.5 -44z" />
<glyph unicode="X" horiz-adv-x="752" d="M0 -118q-6 -21 -11 -21q-4 0 -2 20q9 82 67 165q53 75 192 184q61 48 119.5 87t117.5 74l11 173q3 56 3 54q0 13 -0.5 22.5t-1.5 18.5q-5 39 -46 30q-101 -24 -192 -152q-2 -3 -3.5 -5.5t-3.5 -3.5q-3 -2 -5 0q-2 4 0 10q2 7 3 8q31 63 104 118q75 58 129 55q15 0 35 -18 q21 -18 21 -29q2 -44 -0.5 -108t-10.5 -150q103 59 188.5 115t154.5 113q15 12 10 34q9 5 23 16.5t31 28.5q2 2 4 2q15 0 15 -38q0 -9 -4 -13q-22 -26 -74 -64.5t-134 -92.5l-114 -72l-104 -61q-6 -87 -6 -145q0 -138 31 -182q32 -45 90 -41q70 5 159 64q10 6 14 0 q6 -6 -5 -11q-103 -71 -165 -80q-9 -2 -23 2t-29.5 11.5t-30.5 17.5t-27 22q-48 47 -48 225v54q0 20 0.5 31t0.5 12q-63 -37 -121 -76.5t-113 -84.5q-122 -97 -174 -169q-56 -75 -75 -150z" />
<glyph unicode="Y" horiz-adv-x="662" d="M510 50q19 25 80 152l40 82l38 81q3 10 2 11q-1 4 -6 -1q-127 -112 -276 -214q-193 -130 -317 -165q-9 -2 -17.5 1.5t-16 12t-12 19.5t-4.5 24q0 11 4 20q17 55 99 176l87 131l46 72q67 115 67 188q0 88 -110 97q-96 7 -239 -79q-73 -45 -120.5 -92t-70.5 -98 q-16 -35 -16 -66q0 -23 8 -41t34 -35q11 -8 21.5 -12.5t19.5 -5.5q14 -1 14 -7t-19 -3q-66 12 -85 55q-5 13 -8 27t-3 31q0 18 3 33.5t8 29.5q40 101 173 190q142 95 263 98q59 1 108 -46q50 -48 50 -99q0 -34 -16.5 -79.5t-51.5 -102.5q-17 -29 -50 -79l-84 -123 q-42 -60 -66.5 -100.5t-34.5 -63.5q-11 -25 -11 -37q0 -14 14 -14q9 0 33 6q120 33 317 169q91 63 160.5 119t118.5 107l2 5l18 25l20 31q10 15 29 15q2 0 4 -2q9 -21 -1 -31q-8 -5 -16 -13l-19 -19l-58 -127l-66 -145q5 -5 11 -13.5t10.5 -16.5t7.5 -15.5t3 -10.5 q0 -9 -19 -34q-9 -11 -16 -17t-13 -7q-8 -1 -21 -5l-29 -9q-32 -53 -58.5 -90.5t-47.5 -63.5q-61 -76 -122 -110q-96 -55 -169 -53q-61 1 -97 31q-34 27 -34 67q0 49 49 88q130 100 458 151zM497 24q-48 -7 -98 -18t-104 -25q-80 -22 -137.5 -46t-93.5 -53q-46 -36 -46 -81 q0 -75 114 -73q83 1 162 53q31 21 60.5 49t56.5 64q12 16 33 48zM591 147l-19 -39l-27 -51q8 1 18 4l24 7q21 12 22 32q1 21 -18 47z" />
<glyph unicode="Z" horiz-adv-x="559" d="M344 463q2 -5 4 -9t2 -6q0 -4 -3 -4t-14 14q-18 24 -31 68q-8 26 -11.5 47t-3.5 41q0 18 4 31.5t20 19.5q2 2 6.5 7t12.5 15q8 12 16 18.5t17 10.5q24 9 56 14t73 5q114 0 358 -49q1 0 6 3t12 6.5t14 6.5t12 3q18 0 18 -37q0 -15 -8 -21q-6 -3 -39 3q-55 -48 -106.5 -108 t-99.5 -132h35q9 0 15.5 -0.5t9.5 -0.5q13 0 13 -4q0 -9 -23 -9q-2 0 -18.5 -1.5t-46.5 -5.5q-78 -103 -140.5 -171.5t-107.5 -106.5l136 -87l152 -90q133 -75 233 -120t169 -59q14 -2 26.5 -4t23.5 -2q155 0 156 206q0 15 7 15q6 0 7 -13q4 -45 1.5 -80.5t-16.5 -59.5 q-15 -26 -29.5 -40.5t-26.5 -22t-21 -10.5t-14 -6q-23 -11 -53 -10t-64 9q-137 30 -383 161l-128 71l-205 119l-49 -31q-21 -13 -35 -20q-26 -13 -52 -21t-53 -14q-15 -3 -39 -3q-64 0 -99 27t-39 82q-3 37 16 81q9 20 17.5 32.5t19.5 17.5q0 20 9 29t38 9q34 0 146 -68 l69 -42l68 -42q17 11 43.5 37t61.5 68q58 69 104 134q-15 13 -15 32q0 9 6 12q8 1 18.5 2.5t25.5 4.5q13 20 38 51l60 73q43 52 70 82t40 38q-20 6 -54 12.5t-82 14.5q-66 11 -122.5 17.5t-102.5 6.5q-60 0 -97 -9q-56 -14 -64 -71q-2 -8 -2 -16v-17q0 -81 32 -134zM175 16 q45 9 89 29t87 54q-48 36 -121 78q-49 29 -82.5 43t-53.5 14q-3 0 -5.5 -0.5t-5.5 -1.5q-60 -28 -61 -125q-1 -48 40 -73q16 -9 36.5 -14.5t44.5 -5.5q9 0 16.5 0.5t15.5 1.5z" />
<glyph unicode="[" horiz-adv-x="587" d="M380 693q14 28 29.5 50t25.5 27q10 3 25.5 1t19.5 -19q19 4 47.5 6.5t56.5 3t51.5 -1.5t34.5 -8q7 -2 7.5 -6.5t-2.5 -10t-7 -11t-5 -9.5q-20 7 -49.5 8.5t-61.5 -2t-62.5 -11t-52.5 -16.5q-49 -70 -97 -158.5t-90 -182t-74.5 -185.5t-49.5 -169q-2 -16 -2.5 -25t2 -13.5 t8.5 -7.5t18 -7q27 -9 69 -11t85.5 0.5t80 8.5t51.5 14q9 5 15 4.5t7 -4.5t-3.5 -11t-16.5 -15q-14 -9 -47.5 -17t-74.5 -13.5t-84.5 -8t-77.5 -1.5q-16 1 -26.5 12t-17 27.5t-9.5 35.5t-4 36q-2 25 6 64t21.5 82.5t30 86t32.5 74.5z" />
<glyph unicode="\" horiz-adv-x="531" d="M568 -78q-9 36 -76.5 114t-192.5 198q-113 109 -209.5 193t-177.5 144q-12 9 -12 16q0 8 9 8q8 0 19 -8q154 -113 390 -344q254 -251 263 -318q0 -18 -2 -24q-5 0 -11 21z" />
<glyph unicode="]" horiz-adv-x="474" d="M333 -29q-14 -28 -29.5 -50t-25.5 -27q-5 -2 -11.5 -2t-13.5 1.5t-12.5 6t-6.5 12.5q-20 -4 -48.5 -6.5t-56.5 -3t-52 1.5t-34 8q-8 3 -8 7t3 9.5t7 10.5t5 10q20 -7 49.5 -8t61.5 2t62.5 10.5t53.5 16.5q48 70 96.5 158.5t90 182t74 185.5t49.5 169q1 16 2 25t-1.5 13.5 t-8.5 7.5t-18 7q-27 9 -69 11t-85.5 -0.5t-80 -8.5t-51.5 -14q-9 -5 -15 -4.5t-7 5t3.5 11.5t16.5 15q14 9 47.5 17t74.5 13t84.5 7.5t77.5 1.5q16 -1 26.5 -12t17 -27.5t9.5 -36t4 -35.5q1 -25 -6.5 -64t-21 -82.5t-30 -86.5t-32.5 -74z" />
<glyph unicode="^" horiz-adv-x="376" d="M503 591q-28 -7 -61.5 -19.5t-74.5 -29.5q-12 -7 -12 2q0 3 2 5l4 4q8 5 29.5 15.5t56.5 30.5q58 31 59 31q6 -2 100 -80q4 -4 4 -8q0 -3 -5 -5t-9 3l-25 16l-25 16q-35 20 -43 19z" />
<glyph unicode="_" horiz-adv-x="515" d="M45 -41q-20 0 -20 6q0 7 29 7h425q18 0 18 -5q0 -8 -25 -8h-427z" />
<glyph unicode="`" horiz-adv-x="266" d="M201 431q5 -4 3 -9q-5 -3 -9 0l-63 42l-80 55q-6 4 -6 10q0 22 22 22q6 0 10 -4l54 -49z" />
<glyph unicode="a" horiz-adv-x="367" d="M55 13q-13 -8 -23 -8q-25 0 -25 35q0 71 111 182q101 100 180 130q19 8 41 8q12 0 24 -2.5t24 -6.5q17 -2 19 -1q18 3 26 13q2 2 6 2t7 -5t2 -7l-57 -89l-56 -88q-21 -35 -41 -80.5t-36.5 -92t-28.5 -88.5t-16 -71q-1 -5 -1 -10v-9q0 -34 21 -50.5t57 -16.5t71 12 q53 18 138 86q41 33 73.5 68t56.5 66q9 10 12 10q1 -1 1 -3q0 -4 -4 -11q-23 -34 -55.5 -72t-77.5 -76q-42 -34 -75.5 -56t-61.5 -32q-14 -5 -28 -7.5t-30 -2.5q-24 0 -44 8t-36 18q-19 12 -26.5 32t-6.5 46q1 21 8.5 56t19.5 74.5t26 78.5t28 69q17 36 33.5 67t33.5 57 q7 11 -1 11q-1 0 -3 -2q-24 -29 -57.5 -61t-77.5 -70q-88 -74 -151 -111zM71 98q-4 -11 -4 -23q0 -24 18 -24q7 0 15 5q56 35 118 94.5t133 144.5q3 3 3 7q0 11 -13 20.5t-33 9.5q-11 0 -23 -3q-47 -12 -119 -91q-34 -38 -57.5 -73t-37.5 -67z" />
<glyph unicode="b" horiz-adv-x="408" d="M142 326q2 4 3 5q2 6 3.5 8t-2.5 -6v7q372 841 795 866q143 9 256 -87q113 -95 101 -214q-3 -36 -22 -74q-95 -181 -510 -338q-144 -55 -291 -96t-299 -70q-14 -26 -30.5 -66t-37.5 -97q-14 -36 -21 -58q17 16 50 38l82 55q60 39 104.5 65t73.5 38q8 4 20 4q34 0 33 -37 q-2 -7 -5 -14.5t-7 -15.5q-58 -97 -180 -170q-123 -74 -226 -72q-2 0 -6 2q-8 2 -13.5 9t-5.5 15q4 10 14 24l48 112l65 152q2 0 3 5v3q0 1 1 1.5t1 1.5l1 1v-2q2 4 3 7q0 -1 -1 -2zM1255 858q8 16 11.5 31.5t6.5 32.5q9 107 -89 187q-103 85 -243 79q-121 -5 -243.5 -95.5 t-248.5 -266.5q-78 -109 -144.5 -229.5t-122.5 -254.5q183 38 345 87t306 112q340 148 422 317zM102 102q-24 -20 -32 -55q0 -1 0.5 -1t0.5 -1q-1 -1 -1 -2t-1 -2l1 -4q-3 -14 5 -15q10 -3 46 4q74 16 152 73q81 58 108 122l4 16q2 31 -22 31q-22 0 -130 -72 q-44 -29 -76 -53z" />
<glyph unicode="c" horiz-adv-x="301" d="M360 314q-6 -8 -14 -11.5t-13.5 -3t-6 6.5t9.5 17q12 15 13.5 26.5t-5 18.5t-19 7t-27.5 -8q-37 -21 -74.5 -55.5t-71.5 -72.5l-12 -16l-24 -33q-12 -19 -23 -40t-19 -43.5t-9 -46.5q-2 -22 3.5 -36t15.5 -21.5t22.5 -10t25.5 -1.5q33 4 70.5 18t65.5 30q8 5 11.5 2 t-4.5 -9q-11 -8 -26 -17.5t-33 -18.5t-37 -16.5t-38 -10.5q-15 -3 -32.5 3.5t-33 19.5t-25.5 30.5t-9 37.5q3 54 30.5 109.5t66.5 102.5t83 80.5t80 44.5q19 6 36 1.5t27 -16.5t10.5 -29.5t-14.5 -38.5z" />
<glyph unicode="d" horiz-adv-x="396" d="M404 340l37 64l35 60l-16 2q-7 1 -14 3q-14 2 -25 16.5t-11 30.5q0 10 7 17q48 53 147 74h2l54 79q25 35 48 64q227 291 463 374q40 14 78.5 21t76.5 7q127 0 214 -72q82 -70 82 -167q0 -74 -51 -140q-57 -74 -165 -124q-402 -188 -787 -188h-36q-17 0 -34 1l-44 -78 l-44 -82q-94 -183 -93 -288q0 -4 6 -11q4 -1 8 -1.5t9 -1.5q5 -2 2 -8q-4 -6 -8 -7q-11 -6 -22 6q-5 8 -8.5 20t-3.5 26q0 58 58 211q6 17 -5 17q-3 0 -6 -4q-26 -32 -60 -68t-78 -75q-51 -45 -91.5 -74.5t-72.5 -42.5q-6 -2 -10 -2q-37 0 -37 34q0 67 118 179 q54 51 98.5 83.5t82.5 46.5q19 8 41 8q11 0 24.5 -2.5t30.5 -7.5zM1137 1112q-325 -138 -619 -636q14 -1 28 -1h31q417 0 775 208q208 120 208 254q0 85 -84 144q-86 60 -196 60q-74 0 -143 -29zM73 87q-2 -6 -3.5 -11t-1.5 -11q0 -22 17 -22q8 0 16 5q66 43 129 98t124 126 q12 15 12 26q0 23 -36 23q-13 0 -26 -3q-26 -6 -57.5 -29t-70.5 -61q-39 -39 -64 -74t-39 -67zM448 484q8 -2 17.5 -3t20.5 -2l38 61l36 57q-44 -12 -75 -31t-52 -44q-7 -7 -7 -18q0 -17 22 -20z" />
<glyph unicode="e" horiz-adv-x="320" d="M496 278q-10 -11 -32.5 -26.5t-50.5 -19.5q-17 -3 -50.5 -4t-73.5 -2t-80 -1h-70l-23 -33q-13 -19 -24 -40t-19 -43.5t-9 -46.5q-2 -44 19.5 -58t47.5 -11q33 4 70.5 18t64.5 30q8 5 12 2t-4 -9q-11 -8 -26 -17.5t-33 -18.5t-37.5 -16.5t-37.5 -10.5q-15 -3 -33 4 t-33 19.5t-25 30t-9 37.5q2 36 15.5 73.5t34.5 72.5t47.5 67t54.5 58t56 44.5t51 27.5q19 7 33.5 -0.5t23.5 -22.5t10 -33t-7 -33q-16 -28 -54.5 -47t-88.5 -27h56q28 0 54 0.5t48.5 1.5t38.5 3q21 2 42.5 13t33.5 22q5 7 8.5 5t-1.5 -9zM335 325q10 16 11 28t-5 18.5 t-17.5 6t-26.5 -8.5q-37 -21 -75 -55.5t-72 -71.5q26 0 54 6t53 17.5t45.5 26.5t32.5 33z" />
<glyph unicode="f" horiz-adv-x="202" d="M-532 -186q14 5 14.5 1.5t-13.5 -9.5q-51 -23 -92 -70.5t-58 -113.5q-14 -55 0.5 -97t49 -66t84.5 -26.5t108 22.5q57 25 115 79.5t114.5 126.5t109.5 154.5l100 162.5l84 152l65 121q8 14 2 21.5t-13 12.5q-8 5 -17.5 9.5t-5.5 13.5q2 8 12 7.5t16 -0.5q11 0 22 -1t23 1 l36 52l41 53t43 49t44 40q21 16 46.5 30.5t53 25t55.5 15t54 0.5q12 -2 20.5 -11.5t8.5 -15.5q0 -2 -2 -6.5t-5 -9t-6.5 -7t-6.5 -0.5q-17 17 -39 26t-45 6q-41 -6 -79.5 -35t-72.5 -67t-61.5 -77.5t-44.5 -67.5h164q8 0 7.5 -5t-11.5 -5q-39 -1 -78.5 -3.5t-82.5 -4.5 q-8 -1 -11 -3t-5 -5l-65 -115l-90 -158l-110 -177q-58 -91 -121 -170.5t-128.5 -140t-128.5 -85.5q-75 -30 -132 -23.5t-93.5 36t-50.5 75t-3 93.5q7 33 25.5 63t43.5 55t53.5 43.5t56.5 28.5z" />
<glyph unicode="g" horiz-adv-x="391" d="M375 287q4 0 6 -2q8 -3 14.5 -9.5t6.5 -14.5q-2 -12 -11 -24l-39 -116l-53 -158q153 27 289 27q25 0 43.5 -1.5t32.5 -3.5q11 -2 22.5 -9t21 -17.5t15.5 -22.5t6 -25q0 -12 -5 -22q-13 -25 -65 -66q-9 -8 -15 -8q-2 0 -2 1q0 6 10 13q59 55 59 99q0 36 -49 40 q-14 1 -32.5 1.5t-41.5 0.5q-91 0 -164.5 -5.5t-131.5 -18.5q-296 -843 -715 -868q-143 -9 -264 87q-121 95 -121 213q0 37 16 75q76 179 479 338q274 109 574 166q23 52 54 163q5 17 8.5 31.5t7.5 26.5q-17 -16 -47 -38l-76 -55q-57 -40 -99 -65.5t-71 -38.5q-8 -3 -19 -3 q-36 0 -36 36q0 14 9 31q47 96 164 170q117 73 219 72zM-768 -574q-12 -32 -12 -64q0 -106 105 -187q111 -85 250 -79q242 9 460 362q67 109 122.5 229t99.5 255q-180 -38 -337.5 -87t-294.5 -112q-327 -150 -393 -317zM314 182q12 11 19 24t9 31q0 1 -0.5 1t-0.5 1q0 3 1 4 q0 18 -7 19q-11 4 -46 -5q-73 -17 -145 -72q-76 -60 -97 -122q-1 -5 -1.5 -8t-0.5 -8q0 -32 24 -32q21 0 123 73q41 29 71 53z" />
<glyph unicode="h" horiz-adv-x="397" d="M266 430l-102 -175l-108 -193q5 4 13 13t22 23q32 32 68 64.5t74 63.5q47 38 78 56t47 20q4 5 39 14q6 1 15 -6.5t9 -15.5q0 -4 -1 -5q-17 -21 -36 -50.5t-40 -66.5q-49 -89 -49 -125q0 -26 27 -26q12 0 22 1.5t23 7.5t31.5 18t46.5 33q3 2 5.5 3t3.5 2q1 -1 1 -1.5 t1 -1.5l-7 -7q-32 -26 -54 -42t-38.5 -25t-30 -12t-28.5 -3q-18 0 -37 18q-24 19 -18 41q9 40 35.5 88t71.5 107q4 5 4 13q0 14 -15 14q-9 0 -20 -7q-56 -30 -156 -126q-84 -81 -129 -135q-2 4 -11 -8q-2 -5 -5 -5q-8 0 -8 16q0 5 1 8q40 85 95 188l128 226q-5 1 -12.5 2 t-16.5 3q-14 3 -25 18t-11 29q0 6 2 10t5 8q49 52 147 73q140 211 280.5 338.5t286.5 178.5q78 28 155 28q128 0 214 -72q82 -70 82 -167q0 -74 -51 -140q-55 -73 -165 -124q-402 -189 -792 -189q-17 0 -34 0.5t-33 1.5zM275 447l35 -2q19 -1 39 -1q83 0 167.5 10t173.5 31 q224 52 421 166q208 121 208 254q0 85 -84 144q-86 60 -196 60q-73 0 -142 -29q-168 -70 -322 -227.5t-300 -405.5zM244 449l36 58l37 57q-42 -12 -71.5 -30.5t-49.5 -41.5q-8 -8 -8 -19q0 -17 22 -20q14 -2 22.5 -3t11.5 -1z" />
<glyph unicode="i" horiz-adv-x="182" d="M243 78q-24 -24 -51 -44.5t-71 -40.5q-6 -3 -18.5 -0.5t-25 9.5t-22 20t-9.5 31q0 16 8 41.5t20 54t26 57.5l26 54l20 42q8 18 9 22q2 12 12 16.5t19 1.5t13.5 -14t-5.5 -29l-52 -99l-26 -50q-9 -16 -10.5 -19.5t-2.5 -6.5t-4.5 -11t-15.5 -33t-12.5 -38.5t6.5 -19.5 t17.5 -5.5t20.5 2.5q38 9 66.5 27t55.5 44q9 9 13 10t4.5 -2t-2.5 -8.5t-9 -11.5zM260 439q-3 -17 -28 -39q-22 -21 -37 -18q-22 4 -22 17q0 14 23 37q23 24 37 27q11 2 20.5 -6.5t6.5 -17.5z" />
<glyph unicode="j" horiz-adv-x="150" d="M28 -10q7 16 16.5 43l19.5 57l18 62q9 32 15.5 57.5t9.5 43t1 19.5q2 11 15 22t22 14q11 3 18 -1t6 -13q-1 -11 -11 -24q-7 -18 -18 -50l-23 -72l-26 -80q-13 -40 -25 -72q46 8 100 14.5t104.5 9.5t93 3t67.5 -5q13 -3 27 -12.5t24 -23t13.5 -30t-4.5 -31.5 q-13 -23 -29 -36l-36 -30q-14 -11 -16 -7.5t9 14.5q20 18 35 40t21 41q8 27 -6 41.5t-40 16.5q-26 3 -71.5 3t-98.5 -3t-106 -8.5t-94 -14.5q-27 -76 -63.5 -168t-84.5 -186.5t-106.5 -184t-129.5 -161t-154 -117t-178 -51.5q-55 -3 -109.5 10.5t-101.5 40.5t-85 64 t-60.5 80t-27 89t14.5 91q22 52 69 99t111 89.5t140.5 79.5t158 69.5t164.5 59t159 48t141 36.5t111 24zM-1002 -542q-15 -39 -11 -79t23.5 -77.5t53 -70t76.5 -56.5t94.5 -36.5t106.5 -10.5q94 4 177.5 55.5t154.5 131t129 175.5t102.5 189t74.5 171.5t45 123.5 q-104 -21 -214.5 -51t-216.5 -67t-203.5 -81.5t-176.5 -94.5t-135 -106t-80 -116zM215 427q-3 -17 -27 -39q-25 -22 -38 -18q-21 4 -21 17q0 14 23 37q23 24 37 27q10 2 20 -6.5t6 -17.5z" />
<glyph unicode="k" horiz-adv-x="342" d="M306 401h-29q-15 0 -29 1q-4 -2 -8.5 -3t-8.5 -3q-13 -26 -35 -64l-55 -93q189 137 258 137q29 0 32 -23q0 -9 -2.5 -21t-10.5 -28q-13 -26 -40 -47.5t-69 -40.5q-78 -35 -150 -35q29 -51 71.5 -103.5t101.5 -106.5q125 -116 223 -145q17 -5 31 -5q68 0 92 54q3 7 7 5 q1 -1 1 -3.5t1 -4.5q-8 -17 -20.5 -35t-33.5 -32q-5 -3 -49 3q-21 2 -33 6t-19 6q-181 49 -420 345q-20 -32 -41 -79l-46 -106q-2 -5 -6 -5q-5 0 -10 16q0 5 1 8l46 115q20 48 35 77q-8 26 0.5 40t22.5 11l52 89l45 75h-4q-5 1 -12.5 1.5t-16.5 2.5q-14 3 -25 18t-11 29 q0 11 7 18q25 26 62 44.5t85 29.5q140 210 280.5 338t286.5 179q79 27 155 27q131 0 215 -71q81 -69 81 -168q0 -73 -51 -139q-54 -73 -165 -125q-402 -189 -792 -189zM248 420q17 -1 35.5 -1.5t38.5 -0.5q83 0 167.5 9.5t173.5 30.5q227 54 421 166q208 120 208 255 q0 85 -84 144q-85 59 -195 59q-74 0 -143 -29q-168 -70 -322 -227.5t-300 -405.5zM322 238q26 20 37 39.5t10 40.5q-2 29 -34 24q-15 -2 -42 -15.5t-65 -38.5q-32 -21 -53.5 -38t-32.5 -29l5 -13q3 -7 9 -17q3 -1 13 -1q16 0 35.5 3t42.5 11q24 8 43 16t32 18zM217 422 l37 58l36 58q-81 -25 -121 -73q-8 -7 -8 -19q0 -14 22 -19q14 -2 22.5 -3.5t11.5 -1.5z" />
<glyph unicode="l" horiz-adv-x="197" d="M72 89q-2 52 12 108.5t39 114.5v3q371 841 794 866q145 9 256 -87q114 -96 102 -214q-3 -36 -22 -74q-94 -179 -511 -338q-143 -54 -289.5 -95.5t-298.5 -70.5q-17 -47 -28 -98.5t-13 -92.5q-1 -47 13 -68t35.5 -24t48 8t50.5 28q9 7 13 7.5t4 -2t-2.5 -7t-6.5 -7.5 q-35 -31 -69.5 -45.5t-62 -10.5t-45.5 28t-19 71zM1232 833q14 29 17 64q6 53 -16.5 99.5t-72.5 87.5q-102 85 -243 79q-121 -5 -243 -95.5t-248 -266.5q-150 -210 -259 -464h1l-4 -10q-2 -5 -5 -10q183 38 345 87t305 112q342 150 423 317z" />
<glyph unicode="m" horiz-adv-x="561" d="M0 1q-3 -1 -4 4q-1 8 0 13q1 4 4 10l7 13q27 52 87 136q29 42 52 71t39 45q6 5 17 9.5t16 1.5q4 -3 -4 -9q-7 -4 -41 -45q-39 -45 -69 -99q-13 -23 -2 -23q5 0 11 6q60 62 146 115q63 39 91 30q10 -3 10 -15q0 -10 -11.5 -36t-33.5 -69q-6 -9 -6 -17q0 -11 9 -11 q6 0 10 4q70 63 130.5 106.5t111.5 67.5q6 3 11 3q17 0 13 -21q-4 -4 -8 -9l-11 -13q-20 -44 -46.5 -93.5t-61.5 -106.5q-10 -17 -10 -24q0 -8 7 -8q4 0 8 2t10 4q74 34 185 69q78 24 142.5 38t117.5 17q43 2 78 -3.5t62 -21.5q55 -32 55 -79q0 -14 -4 -26q-7 -20 -25 -27 q-8 -5 -13 -5q-4 0 -4 3q0 4 7.5 9t16.5 26q7 17 7 28q0 35 -36 59q-38 26 -105 26q-8 0 -17 -0.5t-18 -1.5q-147 -15 -292 -67q-153 -54 -255 -132q-5 -3 -9 -3q-12 0 -12 11q0 4 3 7l24 24q-3 10 1 24q82 101 117 193q7 14 7 27q0 17 -14 17q-8 0 -20 -9 q-150 -120 -192 -180q-2 -2 -7.5 -6t-16.5 -8l-21 -10q-8 -3 -13 -6q-6 -3 -12.5 4t-2.5 12q30 44 51.5 84.5t33.5 78.5q4 9 4 19q0 18 -15 18q-4 0 -13 -3q-10 -5 -28 -17.5t-44 -35.5q-58 -48 -100 -96q-11 -12 -25 -30.5t-31 -43.5q-3 -5 -24 -13q-11 -4 -17 -7t-8 -5z " />
<glyph unicode="n" horiz-adv-x="341" d="M12 24q-11 -2 -12 4q-4 4 2 16q23 49 78 133q26 40 49 71.5t43 55.5q3 5 8.5 8t16.5 5q6 1 7 0q0 -4 -3 -7q-38 -44 -65.5 -87.5t-47.5 -88.5q-4 -5 -4 -13q0 -11 8 -11q6 0 12 7q28 27 58 53l63 53q75 60 101 70q14 12 25 16q22 10 35 4q14 -5 -1 -23q-71 -91 -128 -210 q-27 -59 -41.5 -106t-17.5 -82q-3 -47 19 -71q21 -22 55 -22q16 0 29 4q57 16 143 89q95 81 95 130q0 10 -4.5 14.5t-10.5 6t-10.5 1.5t-4.5 3q0 6 8.5 10t15.5 4q17 0 17 -23q0 -11 -6 -29q-9 -29 -32 -61t-58 -67q-96 -95 -208 -107q-40 -4 -66 22q-28 30 -23 94 q3 35 19 80.5t44 100.5q23 46 48.5 88.5t54.5 82.5q3 4 3 10q0 16 -18 16q-8 0 -16 -5q-57 -40 -113.5 -94t-115.5 -123q-10 -13 -51 -22z" />
<glyph unicode="o" horiz-adv-x="354" d="M64 -17q-14 -2 -29.5 9t-15.5 27q2 83 134 245q4 7 -2 9q-9 5 -18 11.5t-9 12.5q0 3 3 8t26 6q37 1 38 1q4 0 11 4q22 21 44 22q8 1 19.5 -4.5t25.5 -13.5q2 -1 3.5 -2t3.5 -2q23 -1 55.5 -1.5t74.5 -2.5q15 0 15 -4q0 -6 -15 -6q-31 0 -40 -12q-2 -3 0 -6l2 -6 q1 -3 1 -5q-3 -38 -32.5 -81.5t-89.5 -94.5q-119 -102 -205 -114zM50 36q-6 -11 -6 -22q0 -24 32 -18q68 11 163 98q100 89 115 162q7 30 -38 35q-24 3 -45 0.5t-39 -9.5q-2 1 -17 -9q-107 -99 -165 -237z" />
<glyph unicode="p" horiz-adv-x="393" d="M-74 -164q7 15 14 34l18 41q-76 -1 -152.5 -13.5t-158.5 -36.5q-233 -70 -397 -210q-91 -78 -136.5 -158t-45.5 -165q0 -54 19.5 -98.5t57.5 -82.5q72 -72 173 -72q65 0 121 31q113 61 229 231q43 62 86 137t84 166l44 98zM49 -92q-22 4 -35 3.5t-31 -0.5l-16 -39 l-16 -40q-121 -301 -247.5 -486.5t-255.5 -255.5q-68 -37 -137 -37q-109 0 -181 87q-74 87 -74 210q0 179 159 316q81 71 182.5 123.5t224.5 85.5q88 23 172 36.5t169 14.5l17 32l14 30l15 30q8 16 20 36q22 38 43 78l42 78q-20 18 -17 30q6 17 53 36l18 28l12 18l18 28 l38 58q5 8 36 20q13 4 13 -3q0 -4 -3 -5t-9 -10l-21 -30q-5 -9 -10 -17l-12 -22l-27 -47q41 16 73 23t58 7q72 0 72 -66q0 -52 -46 -116q122 32 140 33q4 1 7 0q1 -2 0 -3q-3 -3 -7 -4q-35 -10 -78 -24l-94 -30q-42 -38 -94.5 -62t-118.5 -31q-21 -3 -21 19q0 6 4 10 q13 8 67 27.5t150 51.5q51 58 51 121q0 54 -60 54q-23 0 -52.5 -10t-67.5 -30q-19 -32 -40 -62l-44 -68q-24 -38 -52.5 -88t-61.5 -120q16 0 30.5 -0.5t28.5 -2.5q30 -5 47.5 -26.5t17.5 -47.5q0 -12 -5 -22q-13 -25 -65 -66q-9 -8 -15 -8q-2 0 -2 1q0 6 10 13q59 55 59 99 q0 18 -10 29t-35 13z" />
<glyph unicode="q" horiz-adv-x="375" d="M3 73q38 110 171 210q52 38 97 64t85 37q43 13 67 13q19 0 34 -8q33 6 33 -5q0 -5 -6 -12l-66 -78q-39 -46 -82 -115l-102 -161l-108 -170q-53 -87 -100 -174t-79 -171q-69 -178 -48 -267.5t139 -94.5q67 -2 150 17.5t180 61.5q36 16 68 33l63 34q-26 -19 -57 -39 t-67 -37q-109 -50 -199 -70t-159 -18q-78 2 -116.5 36t-44 95t19.5 145.5t74 186.5t118.5 218.5t154.5 241.5l20 28l29 42l26 38q11 16 12 18q4 4 4 10q0 7 -8 7q-11 0 -18 -9q-98 -97 -185 -152q-33 -21 -59 -21q-44 0 -44 46q0 9 3 20zM390 300q14 16 14 33t-9.5 26 t-23.5 7q-43 -8 -92 -36t-106 -78q-125 -108 -125 -186q0 -25 22 -25q45 0 169 109q51 45 88 82.5t63 67.5z" />
<glyph unicode="r" horiz-adv-x="274" d="M-9 -13q-5 -6 -6 0q-2 5 1 10q97 150 132 231q6 15 6 25q0 2 -3 11q-1 4 0 7q12 4 75 42q1 2 4 2q6 0 8 -5q4 -6 -1 -11l-55 -77q-22 -32 -33 -54q-3 -6 -3 -10q0 -5 11 -1q9 4 12 8q39 47 101 97q64 52 100 67q31 1 46 -6q1 -1 1 -2q0 -3 -3.5 -8.5t-8 -10t-9.5 -7 t-8 -0.5q-20 9 -54 -9q-148 -82 -264 -272q0 -3 -8 -7q-8 -3 -18 -7.5t-23 -12.5z" />
<glyph unicode="s" horiz-adv-x="326" d="M186 106q81 45 157 69t151 37l1 -1q-70 -14 -143.5 -43.5t-153.5 -75.5q13 -17 18.5 -28.5t5.5 -18.5q0 -28 -66 -56q-56 -25 -91 -25q-12 0 -21 3q-14 -2 -22.5 -4t-13.5 0q-13 1 -6 13q17 21 135 103l-32 43q-21 29 -24 54q-9 65 136 151q143 85 255 83q6 0 11 -6 q4 -9 0 -13q-7 -10 -22.5 -20t-22.5 -8q-23 8 -39 11t-27 3q-6 0 -11.5 -0.5t-10.5 -1.5q-57 -14 -132 -67q-95 -65 -88 -114q3 -20 22 -51q21 -30 34 -37zM53 -14q-8 -9 4 -11q18 -4 61 11q20 8 33.5 14t18.5 14q4 5 4 11q0 16 -23 37q-16 -10 -49 -34q-20 -14 -32 -24 t-17 -18z" />
<glyph unicode="t" horiz-adv-x="155" d="M89 -556q-40 0 -73 15.5t-59 44.5t-33.5 65.5t-7.5 79.5q0 141 115 404q51 116 102 209t102 167q12 13 12 30q0 18 -18 28q-36 14 -28 31q3 6 29.5 9t74.5 3q4 0 1 3t-1 6q48 75 111 149l132 155q6 7 56 26q24 8 34.5 12.5t22.5 4.5q11 0 11 -9q0 -4 -10 -7 q-94 -19 -311 -317q-16 -23 7 -23h145q59 0 91.5 -0.5t40.5 -0.5q9 0 12 -3q0 -2 -5.5 -10.5t-14.5 -9.5q-57 -2 -130.5 -6.5t-167.5 -9.5q-17 -3 -25 -16q-53 -78 -100.5 -155t-91.5 -167q-70 -143 -109.5 -259.5t-47.5 -209.5q-1 -13 -1 -25v-23q0 -174 123 -174 q17 0 36 2.5t42 10.5q122 38 251 175q128 136 145 243q0 94 -67 83q-15 -2 -26 -9t-16 -7q-10 0 -8 9q5 8 14.5 14t35.5 17q4 1 12 1q32 0 61 -43q14 -22 22 -39.5t6 -28.5q-18 -131 -191 -287q-87 -78 -162.5 -118t-142.5 -40z" />
<glyph unicode="u" horiz-adv-x="450" d="M466 297q-14 -21 -31 -51t-32.5 -61.5t-27.5 -61.5t-15 -50q-3 -18 -0.5 -26.5t7.5 -11t12.5 -1t14.5 3.5q3 1 18 11l33 21l32 22l18 12q16 11 17.5 3t-10.5 -20q-5 -5 -22 -18t-36.5 -26.5t-37.5 -24.5t-24 -13t-15 2t-16.5 11.5t-13 17t-5.5 19.5q0 19 4.5 40t11.5 41 t16 40l15 36q6 15 0 24.5t-24 -8.5l-63 -60l-77 -72q-39 -36 -72.5 -63.5t-49.5 -32.5q-27 -9 -44 8.5t-15 42.5q2 23 12.5 53t27 61.5t36 64t39.5 61.5l37 53q18 23 31 38q5 6 13.5 8.5t14.5 0.5t7 -8.5t-8 -18.5q-23 -28 -48.5 -65t-48.5 -75t-41.5 -74t-25.5 -63 q-12 -41 0.5 -52.5t37.5 2.5q39 24 82.5 63.5t85.5 82.5l82 84q39 41 69 68q9 9 16 6t11 -11.5t4.5 -18t-2.5 -14.5z" />
<glyph unicode="v" horiz-adv-x="308" d="M47 11q-12 1 -22 9t-7 16q25 111 149 282q3 4 10 4q16 0 16 -13q0 -2 -1 -3.5t-2 -3.5q-91 -144 -113 -224q-3 -12 -3 -21q0 -22 15 -22q10 0 25 12q21 17 50 52t67 86l51 69l49 69q3 5 5.5 18t9.5 32q14 11 24 18t17 11q2 1 6.5 -1.5t9 -6t7 -7.5t1.5 -5 q-29 -41 -27 -60q1 -12 13 -21q3 -2 3 -5q0 -10 -14 -7q-11 3 -19 6.5t-13 8.5q-3 3 -12 -8q-17 -25 -41 -56.5t-56 -69.5q-37 -44 -67.5 -75.5t-56.5 -54.5q-25 -22 -43 -22q-1 -1 -3 -2l-4 -2q-2 -1 -5 -2q-7 -2 -19 -1z" />
<glyph unicode="w" horiz-adv-x="527" d="M568 260q5 0 5 -4q0 -3 -5 -5l-16 -4q-8 -2 -17 -2q-16 -89 -92 -165q-73 -73 -157 -81q-10 -1 -24 10.5t-22 32.5q-2 6 -2 17q0 83 25 157q3 6 -2 8q-5 3 -10 -4q-49 -67 -89.5 -114t-73.5 -74q-33 -28 -54 -25q-6 0 -16.5 10t-9.5 17q4 23 24 60t55 90q35 52 53.5 82.5 t20.5 39.5q1 7 13 7q15 0 15 -12q0 -5 -3 -11q-5 -11 -69 -111q-23 -37 -38.5 -66t-22.5 -49q-2 -6 -2 -10q0 -14 11 -14q7 0 11 4q22 16 51.5 46.5t67.5 75.5q64 78 89 117q5 11 12 23l17 28q4 4 14 5.5t18 1.5q8 -1 7 -6q-11 -17 -20.5 -42.5t-20.5 -60.5 q-24 -81 -24 -141v-14q0 -6 1 -12q5 -50 43 -41q27 6 54.5 27t53.5 55q53 69 57 145q-13 3 -21.5 13.5t-6.5 15.5q1 7 10 14t18 7q17 0 33 -37q11 -4 39 -4z" />
<glyph unicode="x" horiz-adv-x="305" d="M411 298q-22 -10 -56 -32l-70 -48l-70 -50l-55 -40q3 -16 11 -42t17.5 -53t20.5 -51.5t22 -37.5q12 -15 6 -17t-16 9q-10 10 -22 32t-23.5 47.5t-21 51.5t-15.5 45q-21 -15 -47 -36t-54 -47l-59 -55q-30 -30 -58 -62q-14 -16 -33 -40.5t-32.5 -53t-17.5 -57.5t12 -54 q12 -19 28 -29.5t33 -14.5q8 -3 5.5 -7t-10.5 -1q-15 3 -33.5 15t-30.5 29q-18 26 -19.5 54t9 56.5t30 57.5t43.5 57q25 30 55 60l59 56l59 52l53 45q-4 15 -8 37l-8 46l-7 45q-4 22 -5 37q0 6 3 11.5t6.5 8t7.5 1t5 -10.5q3 -16 6 -37.5t7 -42.5l6 -42q4 -21 9 -35l33 25 l43 32l48 34l48 34l43 28q20 12 33 19q7 3 12 0.5t7.5 -8t0.5 -12t-10 -9.5z" />
<glyph unicode="y" horiz-adv-x="371" d="M266 0q16 44 34 122q8 34 12.5 57t6.5 37q-49 -43 -122 -92q-96 -65 -153 -87q-6 -2 -9 -2q-9 0 -15 7t-4 14q6 20 91 174q2 4 0.5 17t1.5 19q4 7 38 22q36 16 44 17q14 1 16 -16q-21 -9 -70 -78q-41 -60 -60 -98q-3 -8 -3 -13q0 -10 8 -13q10 -3 18 0q23 9 55.5 27.5 t74.5 47.5q33 23 56.5 41t37.5 31q5 9 11.5 15.5t13.5 7.5q17 1 25.5 -8t6.5 -19q-4 -5 -7.5 -10.5t-8.5 -14.5q-20 -72 -63 -201q152 28 291 28q25 0 43.5 -2t32.5 -4q11 -2 22.5 -9t21 -17t15.5 -22t6 -25t-6 -22q-13 -25 -65 -66q-8 -8 -14 -8q-2 0 -2 1q0 6 10 13 q59 56 59 99q0 36 -49 40q-14 1 -32.5 1.5t-41.5 0.5q-181 0 -296 -24q-295 -841 -715 -868q-144 -9 -264 87q-121 95 -121 213q0 39 15 75q77 179 480 338q139 54 281.5 96t292.5 71zM-763 -532q-6 -16 -9.5 -31.5t-3.5 -32.5q0 -105 106 -187q111 -85 250 -79 q242 9 460 361q135 218 222 484q-360 -74 -633 -199q-326 -150 -392 -316z" />
<glyph unicode="z" horiz-adv-x="239" d="M161 118q14 -9 20 -13.5t13 -13.5q5 -6 5.5 -11.5t1.5 -9.5q75 14 150.5 18.5t141.5 4.5q25 0 43.5 -1.5t32.5 -3.5q11 -2 22.5 -9t21 -17.5t15.5 -22.5t6 -25q0 -6 -2 -12l-4 -10q-13 -25 -65 -66q-8 -8 -14 -8q-2 0 -2 1q0 5 10 14q59 54 59 99q0 35 -49 39 q-14 1 -32.5 1.5t-41.5 0.5q-91 0 -164.5 -5.5t-131.5 -18.5q-296 -843 -715 -868q-144 -9 -264 87q-121 95 -121 214q0 38 15 74q77 178 480 338q67 27 137 48.5l141 41.5l143 37q72 18 144 38l11 3q-5 16 -21.5 21t-30.5 2q-5 -2 -8.5 5t4.5 15q10 10 26.5 34t33 52.5 t30 57.5t18.5 49q5 23 -1.5 34t-16.5 9q-10 -3 -22.5 -14t-25 -25t-24.5 -29l-21 -27q-8 -11 -9 -3t4 16l20 28q14 18 30.5 36.5t34 33.5t31.5 18q7 1 14.5 -4t13 -14.5t8.5 -21t2 -21.5q-2 -22 -15 -48t-29 -51.5t-32 -47.5t-24 -34q-3 -2 -3 -9t6 -6zM-864 -471 q-12 -32 -12 -64q0 -105 106 -187q109 -84 250 -79q240 9 459 362q135 218 223 484q-361 -75 -633 -199q-329 -151 -393 -317z" />
<glyph unicode="{" horiz-adv-x="511" d="M185 208q4 50 -19 73.5t-66 40.5l2 6q45 9 73 27t46.5 47.5t31 72.5t26.5 102q8 35 16 64.5t18.5 55t24.5 47t34 40.5q37 35 70.5 41t60.5 4l-6 -28q-48 1 -79 -19.5t-52 -57.5t-35 -88l-29 -111q-12 -49 -24 -84t-29 -59.5t-41.5 -39t-61.5 -21.5q11 -4 24.5 -11 t25.5 -20.5t19 -35.5t5 -56q0 6 -4 -8l-9 -40q-6 -26 -13 -60l-14 -66q-7 -32 -11.5 -59.5t-5.5 -41.5q-2 -37 6 -59.5t21.5 -37.5t28.5 -25.5t27 -23.5q-12 1 -38 8t-47 30q-15 17 -26 44.5t-7 74.5z" />
<glyph unicode="|" horiz-adv-x="116" d="M94 741l-6 -67l-6.5 -94.5t-6 -109.5t-2.5 -114q0 -47 2.5 -92t3.5 -87q0 -4 0.5 -7.5t-0.5 -5.5q2 -88 0 -139q0 -12 -9.5 -18t-20 -6t-18.5 7t-7 23q2 25 6 67t7.5 94t6 109.5t1.5 113.5q-1 50 -2.5 99t-3 92.5t-2 79.5t0.5 61q1 12 10 18t19.5 6t19 -7t7.5 -23z" />
<glyph unicode="}" horiz-adv-x="421" d="M328 399q-5 -50 18 -73.5t67 -40.5l-3 -6q-45 -9 -73 -27t-46.5 -47.5t-31 -72.5t-26.5 -102q-8 -35 -16 -64.5t-18 -55t-23.5 -47t-34.5 -40.5q-18 -18 -36 -27t-34.5 -13.5t-32.5 -4.5h-28l5 28q48 -1 79 19.5t52 57.5t35 88l29 111q12 49 24 84t29 59.5t41.5 39 t61.5 21.5q-11 4 -24.5 11t-25 20.5t-19 35t-4.5 54.5q1 0 5 17l10 44l13 58q7 32 13 62.5t10.5 56t5.5 39.5q2 37 -6.5 59.5t-22 37.5t-28.5 26t-27 24q13 -2 38.5 -9t46.5 -30q16 -17 26.5 -44.5t6.5 -74.5z" />
<glyph unicode="~" horiz-adv-x="343" d="M18 267q-2 0 -2 4q0 2 2.5 7.5t6.5 12.5q26 36 46.5 54t34.5 18q8 0 24 -8.5t40 -22.5q26 -16 43.5 -21.5t27.5 -5.5q23 0 38 7t26 20q9 10 15 10q4 0 4 -3q0 -5 -2 -9.5t-5 -10.5q-24 -32 -43 -48.5t-33 -16.5q-17 0 -67 28q-26 14 -42.5 22t-25.5 8q-28 0 -59 -23z" />
<glyph unicode="&#xa1;" horiz-adv-x="171" d="M111 238q4 7 10 7q9 0 9 -11q0 -4 -1 -6q-66 -131 -111.5 -233.5t-73.5 -177.5q-2 -5 -8 -8t-13.5 -5.5t-15.5 -3t-13 1.5q-6 2 -8 27q-4 25 2 36q1 3 5.5 4t9 1.5t9 1.5t5.5 3q18 29 40 69t48 92l65 124zM150 361q0 6 15 13t28 7q7 0 8 -4q5 -5 8 -29q4 -26 0 -30 q-3 -6 -19 -13.5t-26 -7.5q-4 0 -6 2q-8 10 -8 62z" />
<glyph unicode="&#xa2;" horiz-adv-x="395" d="M92 73q-6 3 -12.5 8.5t-12 12.5t-8.5 14.5t-2 12.5q10 82 97 175q82 85 175 122l3 3l25 32q14 18 31 42q2 2 4.5 3t5.5 3q4 0 6 -4q-1 2 -51 -67q-5 -7 0 -4q28 13 49 10q5 0 13.5 -5t6.5 -9q-1 -4 -3 -8t-4 -9q-9 -11 -17 -10q-12 4 -26 6.5t-29 2.5q-11 0 -19 -2 q-35 -15 -68.5 -42.5t-65.5 -65.5q-63 -76 -83 -152q-2 -7 -3 -13t-1 -11q0 -44 47 -36q75 13 168 85q4 3 8 3t4 -4q0 -7 -7 -11q-115 -94 -200 -94q-6 0 -7 -2l-14 -23l-16 -26q-5 -8 -18 -5t-7 9q6 11 14 24t19 29q2 4 -2 6z" />
<glyph unicode="&#xa3;" horiz-adv-x="698" d="M386 319q8 0 10 7q25 68 51.5 122.5t55.5 92t60.5 57t66.5 18.5q7 0 16 -1.5t16.5 -5.5t11.5 -11t0 -19q-1 -3 -2.5 -1t-3 5.5t-3 7.5t-2.5 4q-22 13 -51 0t-61.5 -48.5t-66.5 -92t-65 -131.5q-4 -8 3 -8q9 -2 29 -5t43.5 -7t46 -9t36.5 -9q8 -2 6 -7.5t-10 -4.5l-39 5 l-46 4q-23 3 -44 5t-34 3q-8 0 -8 -4q-29 -90 -59 -151.5t-56 -87.5q-8 -9 -8.5 -13.5t6.5 -9.5q20 -13 48 -35t60.5 -44t68.5 -40t71.5 -24.5t70 2.5t64.5 42q6 8 10.5 4t-2.5 -13q-16 -22 -41.5 -34t-54 -16t-57.5 -0.5t-51 12.5t-49 24l-55 32q-28 17 -54.5 36.5 t-47.5 37.5q-6 5 -10 4t-7 -3q-37 -35 -73.5 -44t-68 0.5t-55 32t-33.5 50.5q-6 17 -2.5 34t14 30.5t26 21t31.5 5.5q35 -4 72 -28l79 -53q10 -7 14.5 -4.5t10.5 8.5q11 10 25.5 31t30.5 50.5t32 66t30 77.5q0 3 -0.5 5t-5.5 3q-8 1 -20.5 2t-23.5 0q-7 0 -8 -2t-6 -4 q-15 -2 -25.5 1.5t-15 9t-1.5 11.5t15 9q14 3 41 1zM53 109q-20 -3 -24 -19.5t4 -37t26.5 -40t44 -28.5t56 -2.5t63.5 37.5q8 8 7.5 10.5t-8.5 6.5l-68 43q-27 16 -44.5 23.5t-30 8t-26.5 -1.5z" />
<glyph unicode="&#xa4;" horiz-adv-x="625" d="M3 319q-1 0 -1 2q0 12 11 22t24.5 17t24.5 11l11 4q11 0 51 -17q36 48 78.5 92.5t93.5 84.5q33 26 61 44t53.5 30t50.5 18t53 9q29 3 48.5 -10.5t29.5 -37.5t11 -54.5t-5 -61.5t-19.5 -59.5t-32.5 -47.5q17 47 30 95t4 100q-12 35 -29.5 47t-46.5 12q-35 0 -70.5 -14 t-71 -38.5t-71 -58t-70.5 -71.5l-39 -45q-18 -22 -34 -44q11 -5 18.5 -6t12.5 -1q34 0 51 17q7 5 11 5q6 0 3 -5t-5 -8q-20 -19 -34.5 -29t-25.5 -10t-47 14q-10 -15 -18 -30l-17 -30q9 -3 16 -4t12 -1q35 0 51 16q6 6 11 6q6 0 3 -5t-5 -8q-39 -39 -60 -39q-5 0 -15 2.5 t-25 8.5q-14 -26 -23 -53.5t-14 -53.5q-2 -12 -3.5 -24t-1.5 -24q0 -41 13.5 -72.5t37.5 -53t57.5 -32.5t74.5 -10q52 2 105.5 19.5t110.5 47.5l110 57q39 20 42 19t-34 -25l-120 -73q-116 -70 -214 -67q-42 2 -79 14t-67 38q-33 29 -47 66.5t-14 83.5q0 73 39 154 q-27 12 -39 12q-22 0 -47 -13l-23 -13q-1 0 -1 2q0 12 11 22t24.5 17t24.5 11l11 4q5 0 18 -5l33 -13v-1q9 15 19 30l20 31q-14 5 -22.5 7.5t-13.5 2.5q-21 0 -47 -14z" />
<glyph unicode="&#xa5;" horiz-adv-x="427" d="M-72 12q-13 0 -13 13q0 16 20 16h135l28 33l26 31q-2 20 -3 43l-2 46q-20 -1 -43 -1h-50q-8 0 -8 7q0 17 15 17h85q-1 55 1 111t5 104t6 84l3 50q1 15 11.5 25.5t21.5 12.5t19 -5.5t4 -28.5q-3 -18 -7 -50l-8 -70q-5 -38 -8.5 -81t-6 -84.5t-3 -79t1.5 -65.5l96 103 l112 115l120 120l124 113q9 8 20.5 9.5t19 -2t8.5 -10.5t-10 -16l-74 -65l-93 -84l-105 -99l-108 -107h75q9 0 9 -8q0 -15 -12 -15q-20 -1 -44 -1h-50h-2q-12 -14 -25 -27l-25 -27l-45 -49l-42 -49h112q12 0 12 -11q0 -18 -16 -18h-133q-40 -48 -74.5 -93.5t-59.5 -87.5 q-16 -27 -24 -23t3 28q14 30 46.5 77.5t73.5 98.5h-119z" />
<glyph unicode="&#xa6;" horiz-adv-x="151" d="M73 32q2 24 5 64.5t6 89.5t5.5 104.5t3.5 109.5t-0.5 104.5t-5.5 89.5q-3 26 4.5 28.5t10.5 -24.5q7 -69 13 -151.5t9 -162.5t4 -148.5t0 -109.5q0 -11 -9.5 -17.5t-20 -6.5t-18.5 7t-7 23zM80 733q-2 -24 -5 -64.5t-6 -89.5t-5.5 -104.5t-3.5 -110t0 -105t6 -89.5 q3 -26 -4.5 -28t-10.5 24q-8 69 -13.5 152t-8.5 162.5t-4.5 148t0.5 109.5q0 12 9 18t19.5 6t19 -7t7.5 -22z" />
<glyph unicode="&#xa7;" horiz-adv-x="442" d="M56 -59q78 38 205 48l-55 60l-66 72q-43 46 -49 83q-3 14 0 28q-1 33 44 53q34 15 67 25.5t73 15.5q15 2 31.5 3.5t33.5 3.5l-55 61l-66 71q-44 47 -50 83q-7 39 31 67t87.5 42.5t109.5 14.5q45 0 75 -9q22 -7 42 -27q20 -23 24 -49q3 -17 0 -35q-2 -3 -2 -4.5t-1 -3.5 q-3 -3 -4 0t-0.5 11.5t-1.5 18.5q-2 16 -9 28.5t-17 23.5q-20 20 -45 26q-33 9 -74 9q-111 0 -174 -54q-30 -24 -24 -61q2 -14 13 -32t28 -41l55 -57l79 -82q22 1 30.5 0t8 -2.5t-9 -3t-21.5 -0.5q0 -1 1 -2q2 -2 3.5 -4t2.5 -6q9 -13 13 -24t6 -21q10 -61 -49 -88 q-26 -11 -53.5 -17.5t-59.5 -6.5q-44 0 -81 13q-29 7 -44 24q3 -14 12.5 -31t27.5 -36q21 -23 55 -57l79 -82h22h37h39h29q7 0 7 -2q0 -3 -22 -3q-8 -1 -24.5 -1.5t-33.5 -0.5h-32h-15q11 -14 17.5 -28.5t9.5 -28.5q11 -61 -49 -88q-52 -23 -113 -23q-23 0 -43.5 3.5 t-37.5 8.5q-52 16 -60 55q-6 36 43 59zM266 -19q-57 -8 -89 -15q-34 -7 -61 -17t-49 -22q-46 -26 -42 -52q5 -15 21 -27q7 -5 13.5 -8t14.5 -5q18 -5 35.5 -6.5t35.5 -1.5q32 0 59.5 7t51.5 20q49 27 41 72q-4 30 -31 55zM383 272q-1 17 -11.5 28t-26.5 16q-10 2 -20 1.5 t-17 -2.5q-106 -18 -152.5 -39t-52 -40t20.5 -33.5t64.5 -21.5t80.5 -3.5t69 21.5q24 16 37 32t8 41z" />
<glyph unicode="&#xa8;" horiz-adv-x="297" d="M125 479q-3 -17 -28 -39q-22 -21 -37 -18q-22 4 -22 17q0 14 23 37q23 24 37 27q11 2 20.5 -6.5t6.5 -17.5zM265 469q-3 -17 -28 -39q-22 -21 -37 -18q-22 4 -22 17q0 14 23 37q23 24 37 27q11 2 20.5 -6.5t6.5 -17.5z" />
<glyph unicode="&#xa9;" horiz-adv-x="737" d="M770 366q6 -68 -15 -129.5t-62 -110t-99 -79t-125 -36.5q-68 -6 -130 15t-110.5 61.5t-79.5 98t-37 125.5t15 130t62 110.5t98.5 79.5t125.5 37t130 -15t110.5 -62t79.5 -99t37 -126zM747 365q-6 63 -34.5 117t-73.5 92t-102.5 57.5t-120.5 14.5t-117 -34t-92 -74 t-57.5 -102.5t-14.5 -120.5q6 -63 35 -117t74 -92t102.5 -57.5t120.5 -14.5t117 34t92 74t57 102.5t14 120.5zM641 287q-15 -16 -52 -41t-83.5 -50.5t-96.5 -46.5t-91 -28q-19 -3 -39 4t-36.5 21t-26.5 33.5t-7 41.5q4 35 23 73t48 75t63.5 71t70.5 62t69 47t58 26 q14 4 26.5 1.5t21 -9t12.5 -16.5t2 -20q-4 -21 -11.5 -36.5t-14.5 -28.5q-12 -22 -19.5 -19t-5.5 25q1 10 3 24t0 25.5t-10.5 16.5t-27.5 -2q-41 -16 -84 -51t-80 -77t-64.5 -85t-36.5 -75q-14 -49 1 -75t63 -21q41 4 88.5 19.5t91.5 37.5t81.5 46.5t59.5 46.5q12 12 16.5 7 t-12.5 -22z" />
<glyph unicode="&#xaa;" horiz-adv-x="280" d="M180 367q-8 -4 -15 -4q-15 0 -15 18q0 40 67 97q63 55 110 70q6 2 11.5 2.5t12.5 0.5q17 0 30 -5h11l9 4q4 1 7 3q1 0 1.5 0.5t2.5 0.5t3.5 -2t1.5 -4l-35 -48l-33 -46q-26 -38 -40 -72.5t-20 -65.5q-1 -3 -1 -9q0 -36 48 -36q20 0 43 6q17 4 37.5 16t46.5 30 q24 17 44 34t34 34q5 5 8 5q1 0 1 -1q0 -3 -3 -7q-14 -17 -33 -36t-47 -39q-51 -36 -84 -46q-18 -5 -35 -5q-29 0 -49 13q-21 15 -19 41q3 44 35 108l21 36q9 17 20 31q3 6 -2 6l-1 -1q-15 -15 -35.5 -32.5t-46.5 -37.5q-52 -39 -91 -59zM189 412q-3 -6 -3 -12q0 -13 11 -13 q5 0 10 3q65 35 152 127q2 2 2 4q0 6 -7.5 11t-21.5 5q-3 0 -6 -0.5t-7 -2.5q-30 -8 -72 -48q-42 -42 -58 -74z" />
<glyph unicode="&#xab;" horiz-adv-x="334" d="M57 151q-8 -19 4 -122q1 -11 -6 -11q-4 0 -7 8q-35 131 -29 139q11 23 151 110q9 5 13 1q3 -3 -4 -10q-106 -85 -122 -115zM196 151q-9 -18 3 -122q1 -11 -5 -11q-5 0 -7 8q-34 130 -30 139q13 23 151 109q9 5 12 2q3 -5 -2 -10q-54 -43 -84 -72t-38 -43z" />
<glyph unicode="&#xac;" horiz-adv-x="1055" d="M46 275q13 12 6 19.5t-16.5 13t-13 9.5t15.5 7q16 0 45 3t64 7l72 10q37 5 70 8l171 17q88 9 170 15t150 7t108 -7q23 -5 53.5 -18.5t54.5 -35.5t33.5 -50.5t-8.5 -62.5q-10 -19 -17 -28.5t-15 -17t-18.5 -16.5t-28.5 -27q-14 -4 -7.5 6t20.5 27t29.5 39t19.5 43 q13 33 2.5 55t-32.5 35.5t-49 20t-46 8.5q-53 6 -122 3.5t-144.5 -10t-153.5 -18t-148 -22.5l-75 -13l-75 -12l-65 -10q-30 -5 -46 -6z" />
<glyph unicode="&#xad;" horiz-adv-x="229" d="M37 254q-17 0 -17 9q0 17 32 17h141q17 0 17 -9q0 -17 -26 -17h-147z" />
<glyph unicode="&#xae;" horiz-adv-x="578" d="M769 624q5 -61 -20 -113.5t-70 -85.5q10 -8 18 -12t13 -6q14 -4 31.5 -2.5t28.5 15.5l-7 -9q-4 -5 -11 -8.5t-17.5 -5t-26.5 1.5q-14 3 -40 19q-43 -28 -97 -33q-45 -4 -85.5 10t-72.5 42t-52.5 66.5t-24.5 84.5t10 87.5t41 74.5t65 53.5t82 24.5q45 4 85.5 -10t72.5 -42 t52.5 -67t24.5 -85zM697 680q12 -14 9.5 -31.5t-19.5 -30.5q-15 -12 -38 -20.5t-48 -13.5t-49 -7.5t-40 -1.5q-9 1 -2 -7q8 -9 26 -25l40 -35l45 -38l44 -35q45 31 69 80.5t19 108.5q-4 43 -23 79t-48.5 62t-67 39t-78.5 10q-42 -4 -77.5 -23.5t-60.5 -50t-38 -69.5t-9 -82 q3 -42 22 -78.5t49 -62t68 -38.5t80 -10q47 5 83 27q-22 15 -47 35l-47 40l-41 36l-29 25q-19 -25 -28.5 -45.5t-13.5 -45.5q-2 -5 0 -10t4 -7q2 -3 0 -4.5t-5 1.5q-7 6 -7 22q-2 28 11 52.5t30 47.5q-6 8 0 15q3 2 12 1q9 13 21.5 28t26.5 30l26 27q13 13 24 21q8 2 10 -5 t-2 -11q-29 -26 -50 -48t-39 -45q12 -1 33.5 0t46 5t49 11.5t41.5 19.5q14 10 18 21t-5 24q-13 23 -56 43.5t-99 25.5q-22 1 -41.5 0t-35.5 -6.5t-27.5 -16t-17.5 -27.5q-5 -17 -2.5 -33.5t8.5 -27.5q2 -2 0 -2.5t-3 0.5q-9 13 -13 30.5t0 33.5q8 33 42.5 50t92.5 12 q27 -2 51.5 -9.5t45 -17.5t36 -21.5t24.5 -21.5z" />
<glyph unicode="&#xaf;" horiz-adv-x="331" d="M57 428q-19 0 -19 8q0 15 38 15h210q21 0 21 -8q0 -14 -30 -14q-46 -1 -101 -1h-119z" />
<glyph unicode="&#xb0;" horiz-adv-x="201" d="M294 493q0 -26 -19 -44.5t-46 -18.5q-26 0 -45 18.5t-19 44.5t19 44t45 18q27 0 46 -18t19 -44zM229 442q20 0 36 15t16 36q0 20 -16 35t-36 15q-21 0 -36 -15t-15 -35q0 -21 15 -36t36 -15z" />
<glyph unicode="&#xb1;" horiz-adv-x="418" d="M398 340q-35 -8 -83.5 -11t-98.5 -5q-43 -74 -65 -138q-2 -4 -3.5 -9.5t-1.5 -10t3 -6t10 1.5q8 3 21 10q4 5 5 3t-2 -7q-5 -5 -19.5 -14t-23.5 -11q-17 -5 -18.5 4.5t1.5 17.5q11 34 31.5 75.5t43.5 83.5q-44 0 -81.5 2.5t-60.5 5.5q-2 0 -7 4l-11 9l-11 9q-5 5 -7 8 q-4 5 -2.5 7t2.5 1q7 -6 17 -10.5t18 -6.5q32 -5 71 -8t81 -4q29 53 57.5 98t47.5 70q2 3 8 6.5t13.5 7.5t14.5 6.5t11 3.5q5 2 6 -0.5t-1 -3.5q-8 -3 -18 -10.5t-15 -15.5q-25 -32 -53 -75l-54 -87q41 0 78.5 2.5t68.5 10.5q4 0 8.5 1.5t7.5 4t3 6t-5 8.5q-6 8 -16 13 q-5 2 -4.5 4t6.5 2q5 -1 18 -10t18 -17q10 -12 4 -18.5t-13 -7.5zM32 73q-19 0 -19 7q0 16 38 16h323q21 0 21 -8q0 -14 -30 -14q-23 0 -66 -0.5t-91 -0.5h-96h-80z" />
<glyph unicode="&#xb2;" horiz-adv-x="239" d="M172 375q-8 1 -18 1h-21q-26 0 -53.5 -1t-58.5 -3q-8 -1 -8 4q0 10 16 12l29 8q15 5 30 12q35 16 65 40q45 34 51 71q2 14 -8 28q-12 16 -30 19q-8 3 -16 3q-27 0 -56 -17q-3 -2 -3 1q0 7 8 12q34 20 73 17q27 -1 41 -19q11 -16 11 -33q0 -39 -57 -81 q-23 -17 -45.5 -30.5t-45.5 -21.5q-6 -2 -6 -4q0 -8 100 -8q10 0 10 -5t-8 -5z" />
<glyph unicode="&#xb3;" horiz-adv-x="249" d="M196 415q-17 -34 -69 -55q-22 -9 -42 -14.5t-37 -5.5q-39 -2 -39 13q0 13 10 13q5 0 6 -8q0 -13 22 -13q16 0 33 5t36 13q47 22 60 53q3 7 3 16q0 22 -14 32q-20 16 -55 12q-2 0 -2 3q0 7 10 7q22 0 50 17q14 8 23.5 15t14.5 15q4 9 4 19q0 17 -17 17q-27 0 -58 -14 q-2 -2 -2 3q0 4 7 10q13 7 28.5 11t33.5 4q32 0 32 -24q0 -8 -5 -18q-9 -15 -28 -27t-46 -23q-3 -2 -3 -4t3 -2q20 -2 33 -15.5t13 -32.5q0 -13 -5 -22z" />
<glyph unicode="&#xb4;" horiz-adv-x="266" d="M62 427q-7 -3 -10 0q-4 5 1 10q2 2 20.5 18t53.5 49q62 56 66 57q16 4 22 -17q3 -10 -6 -16q-99 -65 -147 -101z" />
<glyph unicode="&#xb5;" horiz-adv-x="448" d="M429 366l-29 -63q-18 -40 -35.5 -83t-30.5 -82t-13 -59q0 -23 7.5 -29t18.5 -3t22.5 12t19.5 16q13 13 17 4.5t-6 -21.5q-8 -11 -21 -23.5t-25 -18.5q-6 -3 -15.5 -0.5t-18.5 8.5t-15.5 15t-7.5 19q-3 19 3.5 47.5t17 59t21.5 59t15 47.5q2 7 1.5 13.5t-3.5 9t-9 0.5 t-13 -12l-33 -44l-41 -54l-44 -56l-42 -52q-20 -23 -36.5 -39.5t-25.5 -21.5q-23 -12 -39.5 -6t-24.5 23l-42 -154q-19 -68 -32 -124q0 -5 -5.5 -9.5t-13 -8t-15 -5t-13.5 0.5q-5 -2 -7.5 7t-4.5 20.5t-3 21.5v10q1 3 5 5t8.5 3.5t9 2.5t5.5 3q7 17 16 43l21 56l22 62l21 64 l18 58q9 27 14 46q10 37 26 78t33 78.5t33 69t27 49.5q5 8 13 12.5t14.5 3.5t8.5 -7t-5 -19l-39 -71q-21 -40 -39.5 -80t-32 -77t-16.5 -64q-7 -23 -4.5 -38t11 -22t21 -4.5t25.5 13.5q35 29 72 74.5t72 94.5l68 95q32 47 57 78q9 10 16.5 9t12.5 -8.5t7.5 -17t-0.5 -15.5z " />
<glyph unicode="&#x3bc;" horiz-adv-x="448" d="M429 366l-29 -63q-18 -40 -35.5 -83t-30.5 -82t-13 -59q0 -23 7.5 -29t18.5 -3t22.5 12t19.5 16q13 13 17 4.5t-6 -21.5q-8 -11 -21 -23.5t-25 -18.5q-6 -3 -15.5 -0.5t-18.5 8.5t-15.5 15t-7.5 19q-3 19 3.5 47.5t17 59t21.5 59t15 47.5q2 7 1.5 13.5t-3.5 9t-9 0.5 t-13 -12l-33 -44l-41 -54l-44 -56l-42 -52q-20 -23 -36.5 -39.5t-25.5 -21.5q-23 -12 -39.5 -6t-24.5 23l-42 -154q-19 -68 -32 -124q0 -5 -5.5 -9.5t-13 -8t-15 -5t-13.5 0.5q-5 -2 -7.5 7t-4.5 20.5t-3 21.5v10q1 3 5 5t8.5 3.5t9 2.5t5.5 3q7 17 16 43l21 56l22 62l21 64 l18 58q9 27 14 46q10 37 26 78t33 78.5t33 69t27 49.5q5 8 13 12.5t14.5 3.5t8.5 -7t-5 -19l-39 -71q-21 -40 -39.5 -80t-32 -77t-16.5 -64q-7 -23 -4.5 -38t11 -22t21 -4.5t25.5 13.5q35 29 72 74.5t72 94.5l68 95q32 47 57 78q9 10 16.5 9t12.5 -8.5t7.5 -17t-0.5 -15.5z " />
<glyph unicode="&#xb6;" horiz-adv-x="647" d="M174 732q60 64 126.5 91.5t153.5 19.5q19 -1 37 -3q15 -2 31 -3t27 -3l33 66q10 20 19.5 43t15 43.5t5.5 36t-9 20.5q7 7 14 12q6 5 12 9t11 5q5 0 9 -4q2 -2 3 -5q3 -11 -5 -33.5t-20 -47.5t-24.5 -47.5t-18.5 -32.5l-41 -93l-59 -130l-68 -155l-70 -163l-66 -158 l-52 -138q-23 -61 -34.5 -101.5t-7.5 -51.5q0 -1 1.5 -6.5t9.5 -22.5q-14 13 -16.5 15t-2 1.5t-0.5 1t-12 12.5q-1 14 -4 27t0 29q2 8 10 30l18 52l24 66l28 68l26 63q12 29 21 46l-37 -27q-20 -14 -42 -24t-45 -14t-45 3q-32 1 -54 25t-32.5 64t-8.5 91.5t17.5 107.5 t45.5 111.5t76 103.5zM191 723q-15 -31 -24 -62.5t-10.5 -57.5t5.5 -43t25 -19q24 -3 50.5 11.5t53 37t49.5 48.5l42 49q18 22 27.5 35.5t7.5 9.5q-8 -16 -14 -42t-10.5 -55t-7 -57.5t-2.5 -48.5t3 -28.5t9 1.5l15 32l10 26l14 28l22 44l34 72l52 112q-5 1 -13.5 2.5 t-17.5 2.5t-17 1.5t-11 0.5q-30 5 -66 4.5t-73 -8.5t-71.5 -25t-62.5 -45z" />
<glyph unicode="&#xb7;" horiz-adv-x="113" d="M82 162q0 -3 -6 -7.5t-13.5 -7.5t-14.5 -4t-10 2q-2 3 -3.5 10.5t-2.5 16t-1.5 15.5t1.5 10t8 7t13 7t13.5 4.5t9.5 -1.5q2 -2 3 -10l2 -15q1 -8 1 -16v-11z" />
<glyph unicode="&#xb8;" horiz-adv-x="197" d="M140 9q8 5 12.5 1.5t-2.5 -8.5q-8 -5 -16 -13t-14 -16q-3 -2 -3.5 -6.5t7.5 -6.5q6 -2 15.5 -7.5t17 -14.5t9.5 -21t-7 -28q-5 -9 -18 -19.5t-30.5 -20t-37 -16t-36.5 -7.5q-11 -1 -12 5t9 8q13 0 28 5.5t28 14t23 18t15 18.5q12 18 0.5 32.5t-38.5 22.5q-15 4 -7 12 q11 11 25.5 23.5t31.5 23.5z" />
<glyph unicode="&#xb9;" horiz-adv-x="198" d="M107 392q-58 0 -77 -3q-7 0 -9 4q-2 9 7 9q6 2 19 2.5t32 1.5q10 27 26 65t40 87q1 2 1 4q-2 3 -4 3t-3 -1q-15 -5 -30 -11t-31 -11q-2 0 -2.5 -0.5t-1.5 -0.5q-5 0 -5 3q1 2 2.5 2.5t3.5 2.5q79 31 108 52q2 1 4 1q4 0 7 -5q0 -4 -3 -6t-7 -5t-10 -7q-1 -2 -0.5 -5 t0.5 -8q-12 -9 -41 -63q-31 -54 -37 -81q-1 -3 -1 -7q1 -8 17 -11q18 -3 30.5 -4t18.5 -1q7 1 7 -2q2 -4 -9 -4.5t-40 -0.5h-12z" />
<glyph unicode="&#xba;" horiz-adv-x="259" d="M171 371q-9 -1 -18 4.5t-9 13.5q0 40 80 123q2 4 -1 4l-11 6q-5 3 -5 6q0 2 1.5 4.5t15.5 2.5q11 1 16 1h7q4 0 7 2q12 9 26 11q5 0 12 -2.5t15 -6.5q2 -2 4 -2q14 -1 33.5 -1t44.5 -1q9 0 9 -2q0 -3 -9 -3q-18 0 -24 -6v-3q2 -4 2 -6q-3 -37 -73 -88q-35 -25 -66 -39.5 t-57 -17.5zM162 398q-3 -6 -3 -11q0 -12 19 -9q40 4 98 49q60 45 69 81q5 15 -23 17q-14 2 -26.5 0.5t-23.5 -4.5q-1 0 -11 -5q-63 -50 -99 -118z" />
<glyph unicode="&#xbb;" horiz-adv-x="389" d="M305 154q8 16 -3 122q-1 11 5 11q5 0 7 -9q35 -131 29 -138q-4 -12 -61 -50q-23 -16 -46 -30t-45 -29q-10 -8 -11 -2q-5 3 3 9q54 44 84.5 72.5t37.5 43.5zM166 154q9 17 -3 122q-1 11 4 11q4 0 22 -71q19 -71 16 -77t-19 -17l-43 -32l-45 -30l-46 -30q-9 -8 -11 -1 q-3 3 3 9q107 86 122 116z" />
<glyph unicode="&#xbc;" horiz-adv-x="506" d="M290 -22q0 -8 -3 -8q-5 0 -3 10q2 49 45 140q-7 1 -21 1h-33q-26 1 -42 0.5t-25 -2.5q-5 -2 -10 -10q-4 -7 -5.5 -9t-2.5 -2q-4 0 -4 13q0 5 3 10q0 1 11 10q2 1 4.5 2.5t4.5 6.5q25 36 87 105q32 37 56 60l41 40q1 1 3 1q6 0 6 -8q0 -4 -3 -7q-18 -14 -43 -39l-61 -64 q-33 -35 -52 -57.5t-25 -30.5q8 1 17.5 1.5t22.5 0.5q12 0 24 -0.5t25 -0.5q7 -1 13 -1h9h8l51 94l65 118q6 14 27 14q5 0 5 -3v-1l-31 -52q-18 -29 -41 -71l-37 -66l-21 -37q21 -2 33 -2.5t15 0.5q2 2 2 -1t-5 -8.5t-9 -5.5h-27q-11 0 -15 1q-25 -51 -31 -62 q-27 -53 -28 -80zM28 19q-3 -17 -7 -17q-2 4 -2 19q6 53 185 255q164 185 273 276q8 7 14 7t6 -7q0 -4 -7 -13q-58 -48 -126 -115.5t-147 -154.5q-175 -192 -189 -250zM109 288q-60 0 -81 -3q-7 0 -7 5q0 11 7 12q9 2 22.5 3t34.5 3q16 38 41 90l59 120q3 3 3 8q0 4 -3 4 q-1 0 -1 -0.5t-1 -0.5h-1q-18 -10 -35 -18t-34 -14q-4 -2 -6 -2t-3 1t1 3q1 2 2 3.5t4 2.5q87 44 124 72q4 3 5 3q4 0 4 -7q0 -6 -2 -8q-3 -3 -9 -7l-13 -10q-1 -1 -1 -6t-2 -11q-7 -8 -21.5 -30t-34.5 -58q-21 -37 -35.5 -65.5t-20.5 -47.5q-4 -5 -4 -11q0 -11 17 -13 q34 -9 50 -7q8 2 8 -3q0 -6 -12 -7t-42 -1h-13z" />
<glyph unicode="&#xbd;" horiz-adv-x="506" d="M28 19q-3 -17 -7 -17q-2 4 -2 19q6 53 185 255q164 185 273 276q8 7 14 7t6 -7q0 -4 -7 -13q-58 -48 -126 -115.5t-147 -154.5q-175 -192 -189 -250zM376 24q-9 1 -19 1.5t-24 0.5q-56 0 -117 -6q-9 -1 -9 5q0 15 15 20q15 4 32 10t32 15q20 12 36.5 25t33.5 30 q48 48 54 99q2 11 -0.5 20.5t-7.5 18.5q-7 12 -15 18.5t-17 9.5h-18q-15 0 -29.5 -4.5t-31.5 -17.5q-2 0 -2 2q0 13 8 17q44 29 79 25q31 -6 43 -27q11 -19 11 -47q0 -25 -13.5 -53.5t-44.5 -57.5q-25 -25 -49.5 -43t-48.5 -29q-2 -2 -4.5 -3t-2.5 -3q0 -13 108 -13 q9 0 9 -7q0 -6 -8 -6zM109 288q-60 0 -81 -3q-7 0 -7 5q0 11 7 12q9 2 22.5 3t34.5 3q16 38 41 90l59 120q3 3 3 8q0 4 -3 4q-1 0 -1 -0.5t-1 -0.5h-1q-18 -10 -35 -18t-34 -14q-4 -2 -6 -2t-3 1t1 3q1 2 2 3.5t4 2.5q87 44 124 72q4 3 5 3q4 0 4 -7q0 -6 -2 -8q-3 -3 -9 -7 l-13 -10q-1 -1 -1 -6t-2 -11q-7 -8 -21.5 -30t-34.5 -58q-21 -37 -35.5 -65.5t-20.5 -47.5q-4 -5 -4 -11q0 -11 17 -13q34 -9 50 -7q8 2 8 -3q0 -6 -12 -7t-42 -1h-13z" />
<glyph unicode="&#xbe;" horiz-adv-x="506" d="M290 -22q0 -8 -3 -8q-5 0 -3 10q2 49 45 140q-7 1 -21 1h-33q-26 1 -42 0.5t-25 -2.5q-5 -2 -10 -10q-4 -7 -5.5 -9t-2.5 -2q-4 0 -4 13q0 5 3 10q0 1 11 10q2 1 4.5 2.5t4.5 6.5q25 36 87 105q32 37 56 60l41 40q1 1 3 1q6 0 6 -8q0 -4 -3 -7q-18 -14 -43 -39l-61 -64 q-33 -35 -52 -57.5t-25 -30.5q8 1 17.5 1.5t22.5 0.5q12 0 24 -0.5t25 -0.5q7 -1 13 -1h9h8l51 94l65 118q6 14 27 14q5 0 5 -3v-1l-31 -52q-18 -29 -41 -71l-37 -66l-21 -37q21 -2 33 -2.5t15 0.5q2 2 2 -1t-5 -8.5t-9 -5.5h-27q-11 0 -15 1q-25 -51 -31 -62 q-27 -53 -28 -80zM238 397q-11 -27 -30.5 -49t-49.5 -40q-46 -27 -87 -29q-43 -1 -43 21q0 6 2.5 13t7.5 7q7 0 7 -13q0 -20 26 -20q18 0 36.5 7t38.5 21q49 32 69 82q3 15 3 28q0 33 -17 50q-19 22 -60 19q-5 0 -5 3q0 5 4.5 8.5t7.5 3.5q14 0 27.5 7t30.5 21 q14 11 24.5 23t15.5 25q4 7 5 13.5t1 14.5q0 27 -20 27q-14 0 -30 -5t-33 -17q-3 -2 -3 3q0 12 8 16q16 12 32.5 18.5t36.5 6.5q37 0 37 -38q0 -14 -7 -28q-22 -47 -83 -80q-2 -1 -2 -6q0 -2 3 -3q22 -3 36.5 -24t14.5 -52q0 -18 -4 -34zM28 19q-3 -17 -7 -17q-2 4 -2 19 q6 53 185 255q164 185 273 276q8 7 14 7t6 -7q0 -4 -7 -13q-58 -48 -126 -115.5t-147 -154.5q-175 -192 -189 -250z" />
<glyph unicode="&#xbf;" horiz-adv-x="329" d="M276 296q0 6 7 6q11 0 28 -24q18 -23 18 -34q0 -6 -7 -9q-72 -20 -125.5 -40t-89.5 -39q-136 -72 -136 -163q0 -14 2.5 -28.5t7.5 -30.5q14 -49 60 -81q44 -30 88 -30q48 0 69 32q10 10 12 10q3 0 3 -5q0 -6 -5 -13q-17 -23 -37 -36t-40 -18q-16 -4 -34 -4q-60 0 -104 44 q-19 19 -32.5 40.5t-21.5 46.5q-11 38 -11 68q0 91 88 141q18 11 49 25l78 32l79 31q32 12 50 17q11 5 15 16q2 6 0.5 13t-4 13.5t-5 12t-2.5 7.5zM299 395q2 4 14.5 9.5t23.5 5.5q7 0 10.5 -4t6.5 -24q3 -21 -1 -26.5t-18 -12.5q-14 -6 -22 -6h-4q-2 0 -4 2.5t-3.5 8.5 t-2.5 17q-2 12 -1.5 19.5t1.5 10.5z" />
<glyph unicode="&#xc0;" d="M1076 330q-8 5 -8 12q-2 6 4 6q3 0 5.5 -2t5.5 -4q37 -33 50 -65q5 -14 -29 -27q-20 -7 -112 11q-11 -57 -17 -101t-6 -78q0 -35 7 -56q0 -1 3.5 -3t7.5 -4t7 -4t3 -3q-2 -15 -20 -15q-7 0 -8 4q-16 33 -16 116q0 31 2.5 68t7.5 81l-114 24q-60 13 -127 29 q-48 -51 -105.5 -100t-126.5 -97q-97 -69 -177 -102t-143 -34t-97.5 35t-34.5 99q0 53 26 119q48 117 157 145q23 6 50.5 8.5t61.5 2.5q152 0 388 -51q58 61 162 186l101 125q44 56 73 101q5 5 13 5q17 0 38 -14t19 -21l-45 -138q-20 -58 -32 -98q-23 -73 -36.5 -126.5 t-19.5 -87.5q51 -15 83 -15t32 16q0 24 -33 53zM216 361q-93 -21 -135 -128q-19 -50 -19 -101q0 -56 26 -89q15 -19 36 -29t50 -9q66 2 142 33.5t166 95.5q55 39 109.5 86.5t108.5 102.5q-194 48 -371 48q-35 0 -63 -2.5t-50 -7.5zM741 338q57 -17 113.5 -31t112.5 -25 q12 121 103 399q2 10 2 13q0 16 -9 16q-5 0 -8 -2.5t-8 -7.5q-76 -101 -152 -191t-154 -171zM1127 801q5 -4 3 -9q-5 -3 -9 0l-63 42l-80 55q-6 4 -6 10q0 22 22 22q6 0 10 -4l54 -49z" />
<glyph unicode="&#xc1;" d="M1076 330q-8 5 -8 12q-2 6 4 6q3 0 5.5 -2t5.5 -4q37 -33 50 -65q5 -14 -29 -27q-20 -7 -112 11q-11 -57 -17 -101t-6 -78q0 -35 7 -56q0 -1 3.5 -3t7.5 -4t7 -4t3 -3q-2 -15 -20 -15q-7 0 -8 4q-16 33 -16 116q0 31 2.5 68t7.5 81l-114 24q-60 13 -127 29 q-48 -51 -105.5 -100t-126.5 -97q-97 -69 -177 -102t-143 -34t-97.5 35t-34.5 99q0 53 26 119q48 117 157 145q23 6 50.5 8.5t61.5 2.5q152 0 388 -51q58 61 162 186l101 125q44 56 73 101q5 5 13 5q17 0 38 -14t19 -21l-45 -138q-20 -58 -32 -98q-23 -73 -36.5 -126.5 t-19.5 -87.5q51 -15 83 -15t32 16q0 24 -33 53zM216 361q-93 -21 -135 -128q-19 -50 -19 -101q0 -56 26 -89q15 -19 36 -29t50 -9q66 2 142 33.5t166 95.5q55 39 109.5 86.5t108.5 102.5q-194 48 -371 48q-35 0 -63 -2.5t-50 -7.5zM741 338q57 -17 113.5 -31t112.5 -25 q12 121 103 399q2 10 2 13q0 16 -9 16q-5 0 -8 -2.5t-8 -7.5q-76 -101 -152 -191t-154 -171zM1080 807q-7 -3 -10 0q-4 5 1 10q2 2 20.5 18t53.5 49q62 56 66 57q16 4 22 -17q3 -10 -6 -16q-99 -65 -147 -101z" />
<glyph unicode="&#xc2;" d="M1076 330q-8 5 -8 12q-2 6 4 6q3 0 5.5 -2t5.5 -4q37 -33 50 -65q5 -14 -29 -27q-20 -7 -112 11q-11 -57 -17 -101t-6 -78q0 -35 7 -56q0 -1 3.5 -3t7.5 -4t7 -4t3 -3q-2 -15 -20 -15q-7 0 -8 4q-16 33 -16 116q0 31 2.5 68t7.5 81l-114 24q-60 13 -127 29 q-48 -51 -105.5 -100t-126.5 -97q-97 -69 -177 -102t-143 -34t-97.5 35t-34.5 99q0 53 26 119q48 117 157 145q23 6 50.5 8.5t61.5 2.5q152 0 388 -51q58 61 162 186l101 125q44 56 73 101q5 5 13 5q17 0 38 -14t19 -21l-45 -138q-20 -58 -32 -98q-23 -73 -36.5 -126.5 t-19.5 -87.5q51 -15 83 -15t32 16q0 24 -33 53zM216 361q-93 -21 -135 -128q-19 -50 -19 -101q0 -56 26 -89q15 -19 36 -29t50 -9q66 2 142 33.5t166 95.5q55 39 109.5 86.5t108.5 102.5q-194 48 -371 48q-35 0 -63 -2.5t-50 -7.5zM741 338q57 -17 113.5 -31t112.5 -25 q12 121 103 399q2 10 2 13q0 16 -9 16q-5 0 -8 -2.5t-8 -7.5q-76 -101 -152 -191t-154 -171zM1139 872q-23 -9 -53 -25.5t-66 -39.5q-12 -11 -9 3q1 3 2 5.5t4 6.5q15 8 81 62q53 41 54 40q3 -2 17.5 -28t41.5 -79q3 -8 3 -10q-2 -5 -3.5 -6t-2.5 -2q-4 -1 -7 5l-15 22 l-16 21l-19 19q-7 7 -12 6z" />
<glyph unicode="&#xc3;" d="M1076 330q-8 5 -8 12q-2 6 4 6q3 0 5.5 -2t5.5 -4q37 -33 50 -65q5 -14 -29 -27q-20 -7 -112 11q-11 -57 -17 -101t-6 -78q0 -35 7 -56q0 -1 3.5 -3t7.5 -4t7 -4t3 -3q-2 -15 -20 -15q-7 0 -8 4q-16 33 -16 116q0 31 2.5 68t7.5 81l-114 24q-60 13 -127 29 q-48 -51 -105.5 -100t-126.5 -97q-97 -69 -177 -102t-143 -34t-97.5 35t-34.5 99q0 53 26 119q48 117 157 145q23 6 50.5 8.5t61.5 2.5q152 0 388 -51q58 61 162 186l101 125q44 56 73 101q5 5 13 5q17 0 38 -14t19 -21l-45 -138q-20 -58 -32 -98q-23 -73 -36.5 -126.5 t-19.5 -87.5q51 -15 83 -15t32 16q0 24 -33 53zM216 361q-93 -21 -135 -128q-19 -50 -19 -101q0 -56 26 -89q15 -19 36 -29t50 -9q66 2 142 33.5t166 95.5q55 39 109.5 86.5t108.5 102.5q-194 48 -371 48q-35 0 -63 -2.5t-50 -7.5zM741 338q57 -17 113.5 -31t112.5 -25 q12 121 103 399q2 10 2 13q0 16 -9 16q-5 0 -8 -2.5t-8 -7.5q-76 -101 -152 -191t-154 -171zM993 812q-2 0 -2 2q0 1 7 12q44 42 64 42q6 0 19 -5l32 -13q21 -9 34.5 -12.5t21.5 -3.5q34 0 50 16q8 6 11 6t3 -3t-5 -11q-38 -38 -59 -38q-15 0 -53 16q-41 18 -54 18 q-23 0 -46 -13z" />
<glyph unicode="&#xc4;" d="M1076 330q-8 5 -8 12q-2 6 4 6q3 0 5.5 -2t5.5 -4q37 -33 50 -65q5 -14 -29 -27q-20 -7 -112 11q-11 -57 -17 -101t-6 -78q0 -35 7 -56q0 -1 3.5 -3t7.5 -4t7 -4t3 -3q-2 -15 -20 -15q-7 0 -8 4q-16 33 -16 116q0 31 2.5 68t7.5 81l-114 24q-60 13 -127 29 q-48 -51 -105.5 -100t-126.5 -97q-97 -69 -177 -102t-143 -34t-97.5 35t-34.5 99q0 53 26 119q48 117 157 145q23 6 50.5 8.5t61.5 2.5q152 0 388 -51q58 61 162 186l101 125q44 56 73 101q5 5 13 5q17 0 38 -14t19 -21l-45 -138q-20 -58 -32 -98q-23 -73 -36.5 -126.5 t-19.5 -87.5q51 -15 83 -15t32 16q0 24 -33 53zM216 361q-93 -21 -135 -128q-19 -50 -19 -101q0 -56 26 -89q15 -19 36 -29t50 -9q66 2 142 33.5t166 95.5q55 39 109.5 86.5t108.5 102.5q-194 48 -371 48q-35 0 -63 -2.5t-50 -7.5zM741 338q57 -17 113.5 -31t112.5 -25 q12 121 103 399q2 10 2 13q0 16 -9 16q-5 0 -8 -2.5t-8 -7.5q-76 -101 -152 -191t-154 -171zM1103 859q-3 -17 -28 -39q-22 -21 -37 -18q-22 4 -22 17q0 14 23 37q23 24 37 27q11 2 20.5 -6.5t6.5 -17.5zM1243 849q-3 -17 -28 -39q-22 -21 -37 -18q-22 4 -22 17q0 14 23 37 q23 24 37 27q11 2 20.5 -6.5t6.5 -17.5z" />
<glyph unicode="&#xc5;" d="M1076 330q-8 5 -8 12q-2 6 4 6q3 0 5.5 -2t5.5 -4q37 -33 50 -65q5 -14 -29 -27q-20 -7 -112 11q-11 -57 -17 -101t-6 -78q0 -35 7 -56q0 -1 3.5 -3t7.5 -4t7 -4t3 -3q-2 -15 -20 -15q-7 0 -8 4q-16 33 -16 116q0 31 2.5 68t7.5 81l-114 24q-60 13 -127 29 q-48 -51 -105.5 -100t-126.5 -97q-97 -69 -177 -102t-143 -34t-97.5 35t-34.5 99q0 53 26 119q48 117 157 145q23 6 50.5 8.5t61.5 2.5q152 0 388 -51q58 61 162 186l101 125q44 56 73 101q5 5 13 5q17 0 38 -14t19 -21l-45 -138q-20 -58 -32 -98q-23 -73 -36.5 -126.5 t-19.5 -87.5q51 -15 83 -15t32 16q0 24 -33 53zM216 361q-93 -21 -135 -128q-19 -50 -19 -101q0 -56 26 -89q15 -19 36 -29t50 -9q66 2 142 33.5t166 95.5q55 39 109.5 86.5t108.5 102.5q-194 48 -371 48q-35 0 -63 -2.5t-50 -7.5zM741 338q57 -17 113.5 -31t112.5 -25 q12 121 103 399q2 10 2 13q0 16 -9 16q-5 0 -8 -2.5t-8 -7.5q-76 -101 -152 -191t-154 -171zM1151 960q11 6 21 10t19 5q43 4 43 -42q0 -10 -5 -30q-6 -17 -14.5 -32t-22.5 -29q-30 -31 -64 -40q-5 -2 -9 -2h-9q-41 0 -41 41q0 6 1 12t3 12q5 15 11.5 29t17.5 27 q23 30 49 39zM1182 948q-24 -2 -42 -18q-32 -26 -38 -60q0 -3 -0.5 -6t-0.5 -7q0 -18 10 -26.5t22 -5.5q23 5 43 24.5t29 49.5q3 10 3 21q0 30 -26 28z" />
<glyph unicode="&#xc6;" horiz-adv-x="773" d="M1018 666q-12 -15 -17 -16q0 4 4 13t4 20q0 21 -26 32q-26 9 -67 9q-42 0 -87.5 -8.5t-75.5 -21.5l-2 -2q-26 -26 -47.5 -59t-40.5 -69t-35 -72l-31 -65l5 -7q16 1 35 1h39q30 0 59 -1t46 -5q15 -3 15 -8q0 -3 -7 -3q-3 0 -6 1h-1q-12 4 -29 5.5t-37 1.5q-35 0 -71.5 -4 t-61.5 -10l-4 -3q-17 -36 -35 -79l-33 -84q-16 -42 -27 -81t-14 -69v-1q0 -2 -0.5 -3t-0.5 -3q-1 -7 -1 -12v-9q0 -15 5.5 -19.5t25.5 -10.5t48.5 -9.5t60.5 -3.5q27 0 55 2t53 5.5t44 8.5t29 10h1q6 3 11 3q3 0 3 -2q0 -3 -3.5 -8t-14.5 -12q-12 -8 -40 -15t-63.5 -12 t-74.5 -8.5t-73 -3.5q-8 0 -15 0.5t-15 0.5q-14 1 -24 11.5t-16 26.5t-9 34t-3 34v8q0 25 9.5 63t23 79.5t28.5 81.5l29 73l-5 7q-36 -2 -84.5 -11.5t-100 -24t-100.5 -32t-85 -35.5l-2 -1l-48 -74q-25 -39 -47.5 -78.5t-41 -78t-31.5 -72.5q-8 -20 -13 -20t-8.5 10t-3.5 22 q0 8 3 17q11 26 26.5 55.5l31.5 58.5l32 53l27 42v6q-7 9 -7 27q0 9 3.5 17.5t13.5 15.5q10 8 27.5 18.5t30.5 16.5l2 2q67 92 132.5 169.5t122.5 135.5t103.5 92.5t76.5 41.5q2 0 4 0.5t4 0.5q13 0 28.5 -4.5t29 -13.5t23 -21.5t9.5 -28.5q0 -6 -3 -15l9 -5l30 49 q14 22 21 26q5 1 9 2t6 1q8 0 15.5 -3.5t9.5 -12.5l6 -4q22 4 53.5 6.5t60.5 2.5q24 0 43.5 -1.5t28.5 -6.5q4 -3 10.5 -8.5t12.5 -13.5t10.5 -17.5t4.5 -19.5q0 -9 -5 -19v1zM672 706q0 2 0.5 4.5t0.5 4.5q0 21 -12 28.5t-29 7.5q-14 0 -27.5 -4t-23.5 -9 q-44 -20 -90.5 -59.5t-94 -91t-94.5 -111.5l-90 -120l6 -8q37 15 79 26t83 18t79 11.5t68 7.5q5 1 10.5 1t10.5 1l4 3q11 26 23 51l23 48q26 52 46 98.5t28 91.5v1z" />
<glyph unicode="&#xc7;" horiz-adv-x="801" d="M334 -1q-7 -5 -13 -12t-11 -14q-3 -2 -3.5 -6.5t7.5 -6.5q6 -2 15.5 -7.5t17 -14.5t9.5 -21t-7 -28q-5 -9 -18 -19.5t-30.5 -20t-37 -16t-36.5 -7.5q-11 -1 -12 5t9 8q13 0 28 5.5t28 14t23 18t15 18.5q12 18 0.5 32.5t-38.5 22.5q-15 4 -7 12l20 20q11 10 25 19 q-83 11 -147 50q-96 58 -96 149q0 109 129 240q112 114 280 205q159 86 266 99q27 3 54 3q76 0 109 -30l13 13q1 5 7 3q5 -1 5 -7q0 -3 -13 -19q14 -17 14 -57q0 -39 -13.5 -73t-48.5 -75q-22 -25 -46 -45.5t-52 -36.5q-3 -1 -17 0q-16 3 -16 7q0 56 57 146q43 70 86 116 q-18 40 -99 40q-11 0 -23.5 -1t-26.5 -3q-169 -32 -367 -179q-209 -158 -255 -309q-7 -24 -7 -49q0 -74 63 -120q74 -53 206 -50q152 3 314 69q149 60 242 145q6 7 11 7q4 0 4 -5q0 -4 -7 -11q-91 -93 -248 -159q-84 -35 -163 -52.5t-154 -15.5zM772 447q-1 -7 2 -9 q4 -3 9 0q37 24 64.5 56t44.5 72q13 30 13 62q0 28 -10 45q-19 -20 -38 -46t-37 -61q-35 -67 -48 -119z" />
<glyph unicode="&#xc8;" horiz-adv-x="821" d="M1080 637q2 -13 -9.5 -14.5t-22.5 2.5q-22 4 -57.5 8.5t-76 7.5t-82 5t-75.5 2q-61 -60 -118.5 -135t-103.5 -147q40 3 87 5t94 2.5t93 -0.5t85 -4q14 -2 14.5 -11t-14.5 -9q-24 0 -57 -1.5t-70 -3.5t-75 -5t-73.5 -6.5t-65 -8t-48.5 -9.5l-28 -51q-15 -29 -28 -61.5 t-22 -67.5t-10 -71q0 -27 11 -45t28.5 -28t39 -13t42.5 -1q30 3 69.5 10.5t82.5 20.5t87 30t82 39q11 6 12.5 -1t-5.5 -11q-36 -29 -78.5 -51t-86 -37t-86 -23t-78.5 -8q-13 0 -36.5 5.5t-47.5 19t-43 37t-22 59.5q-2 27 4.5 60.5t17.5 65.5t24 61t25 47q-8 0 -17 1t-14 9 q-3 2 -7 6.5t-6.5 10t-2.5 11t5 10.5q4 4 13 6t20 3l22 4q10 1 18 3l100 143q52 72 108 140q-42 0 -92 -5t-101 -16.5t-100.5 -30t-92.5 -45.5q-54 -35 -92.5 -88t-43.5 -125q-4 -52 12.5 -100.5t44.5 -93.5q4 -6 3.5 -9.5t-3 -5t-6.5 0t-8 6.5q-27 38 -47 92.5t-21 109.5 q-2 78 33.5 135t110.5 107q48 32 98 51.5t104 31t113 17t124 9.5q10 11 18 18.5t17 14.5q6 4 9 -0.5t6 -12.5t9 -15t19 -7q74 -1 135.5 -8t110.5 -15q22 -7 22 -27zM966 781q5 -4 3 -9q-5 -3 -9 0l-63 42l-80 55q-6 4 -6 10q0 22 22 22q6 0 10 -4l54 -49z" />
<glyph unicode="&#xc9;" horiz-adv-x="821" d="M1080 637q2 -13 -9.5 -14.5t-22.5 2.5q-22 4 -57.5 8.5t-76 7.5t-82 5t-75.5 2q-61 -60 -118.5 -135t-103.5 -147q40 3 87 5t94 2.5t93 -0.5t85 -4q14 -2 14.5 -11t-14.5 -9q-24 0 -57 -1.5t-70 -3.5t-75 -5t-73.5 -6.5t-65 -8t-48.5 -9.5l-28 -51q-15 -29 -28 -61.5 t-22 -67.5t-10 -71q0 -27 11 -45t28.5 -28t39 -13t42.5 -1q30 3 69.5 10.5t82.5 20.5t87 30t82 39q11 6 12.5 -1t-5.5 -11q-36 -29 -78.5 -51t-86 -37t-86 -23t-78.5 -8q-13 0 -36.5 5.5t-47.5 19t-43 37t-22 59.5q-2 27 4.5 60.5t17.5 65.5t24 61t25 47q-8 0 -17 1t-14 9 q-3 2 -7 6.5t-6.5 10t-2.5 11t5 10.5q4 4 13 6t20 3l22 4q10 1 18 3l100 143q52 72 108 140q-42 0 -92 -5t-101 -16.5t-100.5 -30t-92.5 -45.5q-54 -35 -92.5 -88t-43.5 -125q-4 -52 12.5 -100.5t44.5 -93.5q4 -6 3.5 -9.5t-3 -5t-6.5 0t-8 6.5q-27 38 -47 92.5t-21 109.5 q-2 78 33.5 135t110.5 107q48 32 98 51.5t104 31t113 17t124 9.5q10 11 18 18.5t17 14.5q6 4 9 -0.5t6 -12.5t9 -15t19 -7q74 -1 135.5 -8t110.5 -15q22 -7 22 -27zM899 777q-7 -3 -10 0q-4 5 1 10q2 2 20.5 18t53.5 49q62 56 66 57q16 4 22 -17q3 -10 -6 -16 q-99 -65 -147 -101z" />
<glyph unicode="&#xca;" horiz-adv-x="821" d="M1080 637q2 -13 -9.5 -14.5t-22.5 2.5q-22 4 -57.5 8.5t-76 7.5t-82 5t-75.5 2q-61 -60 -118.5 -135t-103.5 -147q40 3 87 5t94 2.5t93 -0.5t85 -4q14 -2 14.5 -11t-14.5 -9q-24 0 -57 -1.5t-70 -3.5t-75 -5t-73.5 -6.5t-65 -8t-48.5 -9.5l-28 -51q-15 -29 -28 -61.5 t-22 -67.5t-10 -71q0 -27 11 -45t28.5 -28t39 -13t42.5 -1q30 3 69.5 10.5t82.5 20.5t87 30t82 39q11 6 12.5 -1t-5.5 -11q-36 -29 -78.5 -51t-86 -37t-86 -23t-78.5 -8q-13 0 -36.5 5.5t-47.5 19t-43 37t-22 59.5q-2 27 4.5 60.5t17.5 65.5t24 61t25 47q-8 0 -17 1t-14 9 q-3 2 -7 6.5t-6.5 10t-2.5 11t5 10.5q4 4 13 6t20 3l22 4q10 1 18 3l100 143q52 72 108 140q-42 0 -92 -5t-101 -16.5t-100.5 -30t-92.5 -45.5q-54 -35 -92.5 -88t-43.5 -125q-4 -52 12.5 -100.5t44.5 -93.5q4 -6 3.5 -9.5t-3 -5t-6.5 0t-8 6.5q-27 38 -47 92.5t-21 109.5 q-2 78 33.5 135t110.5 107q48 32 98 51.5t104 31t113 17t124 9.5q10 11 18 18.5t17 14.5q6 4 9 -0.5t6 -12.5t9 -15t19 -7q74 -1 135.5 -8t110.5 -15q22 -7 22 -27zM968 842q-23 -9 -53 -25.5t-66 -39.5q-12 -11 -9 3q1 3 2 5.5t4 6.5q15 8 81 62q53 41 54 40q3 -2 17.5 -28 t41.5 -79q3 -8 3 -10q-2 -5 -3.5 -6t-2.5 -2q-4 -1 -7 5l-15 22l-16 21l-19 19q-7 7 -12 6z" />
<glyph unicode="&#xcb;" horiz-adv-x="821" d="M1080 637q2 -13 -9.5 -14.5t-22.5 2.5q-22 4 -57.5 8.5t-76 7.5t-82 5t-75.5 2q-61 -60 -118.5 -135t-103.5 -147q40 3 87 5t94 2.5t93 -0.5t85 -4q14 -2 14.5 -11t-14.5 -9q-24 0 -57 -1.5t-70 -3.5t-75 -5t-73.5 -6.5t-65 -8t-48.5 -9.5l-28 -51q-15 -29 -28 -61.5 t-22 -67.5t-10 -71q0 -27 11 -45t28.5 -28t39 -13t42.5 -1q30 3 69.5 10.5t82.5 20.5t87 30t82 39q11 6 12.5 -1t-5.5 -11q-36 -29 -78.5 -51t-86 -37t-86 -23t-78.5 -8q-13 0 -36.5 5.5t-47.5 19t-43 37t-22 59.5q-2 27 4.5 60.5t17.5 65.5t24 61t25 47q-8 0 -17 1t-14 9 q-3 2 -7 6.5t-6.5 10t-2.5 11t5 10.5q4 4 13 6t20 3l22 4q10 1 18 3l100 143q52 72 108 140q-42 0 -92 -5t-101 -16.5t-100.5 -30t-92.5 -45.5q-54 -35 -92.5 -88t-43.5 -125q-4 -52 12.5 -100.5t44.5 -93.5q4 -6 3.5 -9.5t-3 -5t-6.5 0t-8 6.5q-27 38 -47 92.5t-21 109.5 q-2 78 33.5 135t110.5 107q48 32 98 51.5t104 31t113 17t124 9.5q10 11 18 18.5t17 14.5q6 4 9 -0.5t6 -12.5t9 -15t19 -7q74 -1 135.5 -8t110.5 -15q22 -7 22 -27zM942 829q-3 -17 -28 -39q-22 -21 -37 -18q-22 4 -22 17q0 14 23 37q23 24 37 27q11 2 20.5 -6.5t6.5 -17.5z M1082 819q-3 -17 -28 -39q-22 -21 -37 -18q-22 4 -22 17q0 14 23 37q23 24 37 27q11 2 20.5 -6.5t6.5 -17.5z" />
<glyph unicode="&#xcc;" horiz-adv-x="478" d="M757 739q-45 -98 -99 -203t-115.5 -201t-128.5 -175.5t-137 -124.5q-27 -18 -57 -28t-57.5 -13t-52 2t-41.5 19q-11 9 -18 28.5t-11 36.5q-3 9 4 11t9 -7q5 -17 15.5 -31.5t22.5 -24.5q13 -11 32.5 -15t43 -2t49 11t49.5 25q42 29 84 74.5t82 101.5t78 119t71.5 127.5 t62.5 126t51 114.5q-60 -11 -120 -30t-114.5 -42.5t-102.5 -51t-85 -55.5q-25 -20 -49.5 -46.5t-32.5 -65.5q-4 -20 1 -38t10 -29q2 -5 -0.5 -8t-6.5 2q-9 11 -15 32t-7 40q-2 35 20 67t62 66q34 29 84 57.5t109 54t125.5 46.5t134.5 36q15 3 22 12q4 4 10 3.5t10.5 -4 t7 -8.5t0.5 -9zM774 801q5 -4 3 -9q-5 -3 -9 0l-63 42l-80 55q-6 4 -6 10q0 22 22 22q6 0 10 -4l54 -49z" />
<glyph unicode="&#xcd;" horiz-adv-x="478" d="M757 739q-45 -98 -99 -203t-115.5 -201t-128.5 -175.5t-137 -124.5q-27 -18 -57 -28t-57.5 -13t-52 2t-41.5 19q-11 9 -18 28.5t-11 36.5q-3 9 4 11t9 -7q5 -17 15.5 -31.5t22.5 -24.5q13 -11 32.5 -15t43 -2t49 11t49.5 25q42 29 84 74.5t82 101.5t78 119t71.5 127.5 t62.5 126t51 114.5q-60 -11 -120 -30t-114.5 -42.5t-102.5 -51t-85 -55.5q-25 -20 -49.5 -46.5t-32.5 -65.5q-4 -20 1 -38t10 -29q2 -5 -0.5 -8t-6.5 2q-9 11 -15 32t-7 40q-2 35 20 67t62 66q34 29 84 57.5t109 54t125.5 46.5t134.5 36q15 3 22 12q4 4 10 3.5t10.5 -4 t7 -8.5t0.5 -9zM707 797q-7 -3 -10 0q-4 5 1 10q2 2 20.5 18t53.5 49q62 56 66 57q16 4 22 -17q3 -10 -6 -16q-99 -65 -147 -101z" />
<glyph unicode="&#xce;" horiz-adv-x="478" d="M757 739q-45 -98 -99 -203t-115.5 -201t-128.5 -175.5t-137 -124.5q-27 -18 -57 -28t-57.5 -13t-52 2t-41.5 19q-11 9 -18 28.5t-11 36.5q-3 9 4 11t9 -7q5 -17 15.5 -31.5t22.5 -24.5q13 -11 32.5 -15t43 -2t49 11t49.5 25q42 29 84 74.5t82 101.5t78 119t71.5 127.5 t62.5 126t51 114.5q-60 -11 -120 -30t-114.5 -42.5t-102.5 -51t-85 -55.5q-25 -20 -49.5 -46.5t-32.5 -65.5q-4 -20 1 -38t10 -29q2 -5 -0.5 -8t-6.5 2q-9 11 -15 32t-7 40q-2 35 20 67t62 66q34 29 84 57.5t109 54t125.5 46.5t134.5 36q15 3 22 12q4 4 10 3.5t10.5 -4 t7 -8.5t0.5 -9zM766 862q-23 -9 -53 -25.5t-66 -39.5q-12 -11 -9 3q1 3 2 5.5t4 6.5q15 8 81 62q53 41 54 40q3 -2 17.5 -28t41.5 -79q3 -8 3 -10q-2 -5 -3.5 -6t-2.5 -2q-4 -1 -7 5l-15 22l-16 21l-19 19q-7 7 -12 6z" />
<glyph unicode="&#xcf;" horiz-adv-x="478" d="M757 739q-45 -98 -99 -203t-115.5 -201t-128.5 -175.5t-137 -124.5q-27 -18 -57 -28t-57.5 -13t-52 2t-41.5 19q-11 9 -18 28.5t-11 36.5q-3 9 4 11t9 -7q5 -17 15.5 -31.5t22.5 -24.5q13 -11 32.5 -15t43 -2t49 11t49.5 25q42 29 84 74.5t82 101.5t78 119t71.5 127.5 t62.5 126t51 114.5q-60 -11 -120 -30t-114.5 -42.5t-102.5 -51t-85 -55.5q-25 -20 -49.5 -46.5t-32.5 -65.5q-4 -20 1 -38t10 -29q2 -5 -0.5 -8t-6.5 2q-9 11 -15 32t-7 40q-2 35 20 67t62 66q34 29 84 57.5t109 54t125.5 46.5t134.5 36q15 3 22 12q4 4 10 3.5t10.5 -4 t7 -8.5t0.5 -9zM730 849q-3 -17 -28 -39q-22 -21 -37 -18q-22 4 -22 17q0 14 23 37q23 24 37 27q11 2 20.5 -6.5t6.5 -17.5zM870 839q-3 -17 -28 -39q-22 -21 -37 -18q-22 4 -22 17q0 14 23 37q23 24 37 27q11 2 20.5 -6.5t6.5 -17.5z" />
<glyph unicode="&#xd0;" horiz-adv-x="547" d="M194 415l82 169q41 81 73 132q30 47 77 89q17 14 24 10.5t-11 -22.5q-6 -8 -3.5 -8.5t10.5 -2.5q13 2 25 -1t32 -14q31 -27 58 -77.5t40.5 -119t9.5 -152.5t-34 -177q-12 -35 -33.5 -73.5t-54.5 -72t-77 -59.5t-100 -36q-36 -6 -67.5 -4.5t-59.5 7.5t-53 15l-47 19 q-2 5 -17 -2q-11 -8 -24.5 -6t-13.5 8t0.5 8t1.5 3t2 3t3 8q-3 5 -2.5 7.5t0.5 4.5q-13 10 -19 16.5t-14 17.5q-6 7 -4 15t9 13t15.5 5t14.5 -7q1 -4 1.5 -5t1.5 -1.5t3.5 -1.5t9.5 -5q4 0 6 -2t3 3q17 43 47 111l70 153q-12 4 -22 6t-18 0q-19 -3 -38.5 -13.5t-36.5 -22.5 q-16 -14 -16 -8.5t13 17.5l18 18q11 10 23 19.5t23.5 16.5t20.5 9t21.5 -1.5t26.5 -8.5v-1h1v1h-1zM208 373q-38 -87 -66 -161l-43 -120q-2 -5 5 -8q13 -11 38.5 -22t56.5 -17.5t64.5 -7.5t64.5 7q42 11 73.5 32t55.5 47t41 54.5t30 54.5q27 54 39.5 110.5t13 110t-8 102 t-23 87t-33 65t-37.5 36.5q-24 13 -48.5 1.5t-47.5 -34.5q-45 -66 -83.5 -142.5t-76.5 -161.5q11 -3 20.5 -4.5t17.5 1.5q25 2 37.5 8.5t26.5 19.5q14 14 16.5 9.5t-9.5 -16.5q-7 -7 -17 -16l-21 -18q-10 -9 -21 -16t-20 -9z" />
<glyph unicode="&#xd1;" horiz-adv-x="535" d="M226 733q42 -2 69 -41q23 -34 23 -85q0 -23 -5 -46q-14 -54 -59.5 -146.5t-125.5 -226.5q-7 -11 -7 -18q0 -4 4 -4q7 0 16 16q41 52 90.5 106t109.5 112q82 81 144.5 123t105.5 50q14 2 24 -5t21 -20q14 -16 16 -29.5t2 -27.5q0 -6 -0.5 -12t-2.5 -10l-72 -131l-71 -132 q-18 -33 -46 -90l-57 -125l-59 -139q-30 -72 -51.5 -134t-32 -107.5t-2.5 -61.5q2 -5 0 -10.5t-2 -10.5q0 -30 16 -30q42 0 146 103q12 12 15 12q2 -2 2 -4q0 -4 -9 -17q-17 -28 -66 -68q-53 -42 -80 -42q-11 0 -19 7t-14 17t-9 22t-3 23q1 16 13.5 61.5t33.5 107.5l45 132 l50 136l48 123q23 56 39 89l145 294q11 21 11 38q0 21 -23 21q-15 0 -36 -9q-45 -19 -98.5 -57t-116.5 -98q-51 -48 -100 -102.5t-98 -116.5q-80 -102 -111 -151q-10 -16 -25 -16q-13 0 -13 11q0 3 1 6l4 9q243 400 286 536q5 16 7.5 31t2.5 29q0 83 -73 89q-72 5 -194 -66 q-124 -71 -215 -165q-100 -103 -100 -178q0 -27 26 -32q15 -3 30.5 -3.5t29.5 2.5q12 2 12 -4q0 -5 -12 -8q-35 -11 -60 -6q-48 9 -45 75q3 64 97 164q93 100 211 169q130 76 217 71zM417 732q-2 0 -2 2q0 1 7 12q44 42 64 42q6 0 19 -5l32 -13q21 -9 34.5 -12.5t21.5 -3.5 q34 0 50 16q8 6 11 6t3 -3t-5 -11q-38 -38 -59 -38q-15 0 -53 16q-41 18 -54 18q-23 0 -46 -13z" />
<glyph unicode="&#xd2;" horiz-adv-x="852" d="M122 319q25 97 119 189q-4 13 -4 29q0 58 52 119q60 70 155 109q46 19 93 27.5t96 8.5q39 0 75 -6q116 -18 186 -119q58 -84 58 -172q0 -7 -0.5 -13.5t-1.5 -11.5q-21 -147 -126 -267q-45 -53 -101.5 -93t-123.5 -71q-123 -57 -234 -51q-103 5 -174 62q-81 66 -81 173 q0 42 12 87zM744 712q10 -1 10 -7q0 -10 -11 -7q-26 6 -56 6q-120 0 -265 -77q-126 -65 -165 -121q5 -33 41 -62q35 -28 78 -28q11 0 11 -7q0 -10 -16 -7q-44 1 -81 30q-35 26 -46 60q-14 -13 -29.5 -32t-32.5 -46q-16 -27 -27.5 -51t-16.5 -45q-6 -22 -8.5 -42.5 t-2.5 -40.5q0 -93 63 -147.5t175 -59.5q118 -6 252 64q68 36 123.5 80.5t99.5 99.5q96 118 96 238q0 95 -56 168q-64 80 -185 98q-14 2 -29 3t-29 1q-98 0 -192 -39q-90 -36 -144 -93q-48 -51 -48 -101q0 -10 2 -20q71 71 187 126q132 64 245 64q15 0 29 -1.5t28 -3.5z M801 831q5 -4 3 -9q-5 -3 -9 0l-63 42l-80 55q-6 4 -6 10q0 22 22 22q6 0 10 -4l54 -49z" />
<glyph unicode="&#xd3;" horiz-adv-x="852" d="M122 319q25 97 119 189q-4 13 -4 29q0 58 52 119q60 70 155 109q46 19 93 27.5t96 8.5q39 0 75 -6q116 -18 186 -119q58 -84 58 -172q0 -7 -0.5 -13.5t-1.5 -11.5q-21 -147 -126 -267q-45 -53 -101.5 -93t-123.5 -71q-123 -57 -234 -51q-103 5 -174 62q-81 66 -81 173 q0 42 12 87zM744 712q10 -1 10 -7q0 -10 -11 -7q-26 6 -56 6q-120 0 -265 -77q-126 -65 -165 -121q5 -33 41 -62q35 -28 78 -28q11 0 11 -7q0 -10 -16 -7q-44 1 -81 30q-35 26 -46 60q-14 -13 -29.5 -32t-32.5 -46q-16 -27 -27.5 -51t-16.5 -45q-6 -22 -8.5 -42.5 t-2.5 -40.5q0 -93 63 -147.5t175 -59.5q118 -6 252 64q68 36 123.5 80.5t99.5 99.5q96 118 96 238q0 95 -56 168q-64 80 -185 98q-14 2 -29 3t-29 1q-98 0 -192 -39q-90 -36 -144 -93q-48 -51 -48 -101q0 -10 2 -20q71 71 187 126q132 64 245 64q15 0 29 -1.5t28 -3.5z M664 827q-7 -3 -10 0q-4 5 1 10q2 2 20.5 18t53.5 49q62 56 66 57q16 4 22 -17q3 -10 -6 -16q-99 -65 -147 -101z" />
<glyph unicode="&#xd4;" horiz-adv-x="852" d="M122 319q25 97 119 189q-4 13 -4 29q0 58 52 119q60 70 155 109q46 19 93 27.5t96 8.5q39 0 75 -6q116 -18 186 -119q58 -84 58 -172q0 -7 -0.5 -13.5t-1.5 -11.5q-21 -147 -126 -267q-45 -53 -101.5 -93t-123.5 -71q-123 -57 -234 -51q-103 5 -174 62q-81 66 -81 173 q0 42 12 87zM744 712q10 -1 10 -7q0 -10 -11 -7q-26 6 -56 6q-120 0 -265 -77q-126 -65 -165 -121q5 -33 41 -62q35 -28 78 -28q11 0 11 -7q0 -10 -16 -7q-44 1 -81 30q-35 26 -46 60q-14 -13 -29.5 -32t-32.5 -46q-16 -27 -27.5 -51t-16.5 -45q-6 -22 -8.5 -42.5 t-2.5 -40.5q0 -93 63 -147.5t175 -59.5q118 -6 252 64q68 36 123.5 80.5t99.5 99.5q96 118 96 238q0 95 -56 168q-64 80 -185 98q-14 2 -29 3t-29 1q-98 0 -192 -39q-90 -36 -144 -93q-48 -51 -48 -101q0 -10 2 -20q71 71 187 126q132 64 245 64q15 0 29 -1.5t28 -3.5z M753 892q-23 -9 -53 -25.5t-66 -39.5q-12 -11 -9 3q1 3 2 5.5t4 6.5q15 8 81 62q53 41 54 40q3 -2 17.5 -28t41.5 -79q3 -8 3 -10q-2 -5 -3.5 -6t-2.5 -2q-4 -1 -7 5l-15 22l-16 21l-19 19q-7 7 -12 6z" />
<glyph unicode="&#xd5;" horiz-adv-x="852" d="M122 319q25 97 119 189q-4 13 -4 29q0 58 52 119q60 70 155 109q46 19 93 27.5t96 8.5q39 0 75 -6q116 -18 186 -119q58 -84 58 -172q0 -7 -0.5 -13.5t-1.5 -11.5q-21 -147 -126 -267q-45 -53 -101.5 -93t-123.5 -71q-123 -57 -234 -51q-103 5 -174 62q-81 66 -81 173 q0 42 12 87zM744 712q10 -1 10 -7q0 -10 -11 -7q-26 6 -56 6q-120 0 -265 -77q-126 -65 -165 -121q5 -33 41 -62q35 -28 78 -28q11 0 11 -7q0 -10 -16 -7q-44 1 -81 30q-35 26 -46 60q-14 -13 -29.5 -32t-32.5 -46q-16 -27 -27.5 -51t-16.5 -45q-6 -22 -8.5 -42.5 t-2.5 -40.5q0 -93 63 -147.5t175 -59.5q118 -6 252 64q68 36 123.5 80.5t99.5 99.5q96 118 96 238q0 95 -56 168q-64 80 -185 98q-14 2 -29 3t-29 1q-98 0 -192 -39q-90 -36 -144 -93q-48 -51 -48 -101q0 -10 2 -20q71 71 187 126q132 64 245 64q15 0 29 -1.5t28 -3.5z M607 832q-2 0 -2 2q0 1 7 12q44 42 64 42q6 0 19 -5l32 -13q21 -9 34.5 -12.5t21.5 -3.5q34 0 50 16q8 6 11 6t3 -3t-5 -11q-38 -38 -59 -38q-15 0 -53 16q-41 18 -54 18q-23 0 -46 -13z" />
<glyph unicode="&#xd6;" horiz-adv-x="852" d="M122 319q25 97 119 189q-4 13 -4 29q0 58 52 119q60 70 155 109q46 19 93 27.5t96 8.5q39 0 75 -6q116 -18 186 -119q58 -84 58 -172q0 -7 -0.5 -13.5t-1.5 -11.5q-21 -147 -126 -267q-45 -53 -101.5 -93t-123.5 -71q-123 -57 -234 -51q-103 5 -174 62q-81 66 -81 173 q0 42 12 87zM744 712q10 -1 10 -7q0 -10 -11 -7q-26 6 -56 6q-120 0 -265 -77q-126 -65 -165 -121q5 -33 41 -62q35 -28 78 -28q11 0 11 -7q0 -10 -16 -7q-44 1 -81 30q-35 26 -46 60q-14 -13 -29.5 -32t-32.5 -46q-16 -27 -27.5 -51t-16.5 -45q-6 -22 -8.5 -42.5 t-2.5 -40.5q0 -93 63 -147.5t175 -59.5q118 -6 252 64q68 36 123.5 80.5t99.5 99.5q96 118 96 238q0 95 -56 168q-64 80 -185 98q-14 2 -29 3t-29 1q-98 0 -192 -39q-90 -36 -144 -93q-48 -51 -48 -101q0 -10 2 -20q71 71 187 126q132 64 245 64q15 0 29 -1.5t28 -3.5z M687 889q-3 -17 -28 -39q-22 -21 -37 -18q-22 4 -22 17q0 14 23 37q23 24 37 27q11 2 20.5 -6.5t6.5 -17.5zM827 879q-3 -17 -28 -39q-22 -21 -37 -18q-22 4 -22 17q0 14 23 37q23 24 37 27q11 2 20.5 -6.5t6.5 -17.5z" />
<glyph unicode="&#xd7;" horiz-adv-x="612" d="M602 147q-20 -32 -48.5 -43t-59.5 -8t-61 17t-52 33q-53 46 -88 112t-55 135q-17 -12 -43.5 -34t-55.5 -50l-57 -57q-29 -30 -50 -57q-8 -10 -11.5 -23.5t4.5 -18.5q10 -7 18 -7q9 -1 9 -6.5t-7 -5.5h-10q-5 0 -13 2q-3 1 -7 6.5t-6 14t-1.5 18t5.5 20.5q10 20 34.5 48.5 t55.5 58.5l65 62l64 55q-10 40 -14 83.5t0 68.5q1 7 7.5 13.5t13.5 8.5t12.5 -1.5t5.5 -15.5q-1 -12 -0.5 -29.5t2 -35.5t4 -35.5t5.5 -29.5l46 32l50 35l48 32q24 15 43 25q7 4 11.5 2t6 -6.5t0 -9.5t-6.5 -7q-16 -9 -39 -24l-49 -32l-53 -36l-51 -37q5 -35 17.5 -72.5 t29.5 -72.5t36.5 -64.5t39.5 -48.5q30 -28 60 -40.5t56 -12t47 12t32 32.5q4 7 9.5 4.5t0.5 -11.5z" />
<glyph unicode="&#xd8;" horiz-adv-x="797" d="M262 -52q-2 -23 -9 -23q-4 6 -8 27q-3 31 40 99q-50 31 -71 94q-16 49 -13 97.5t17 92t36 80t45 62.5q2 2 4 6t-1 7q-23 18 -40 37t-25.5 39t-8 40t13.5 40q12 18 40.5 32.5t68.5 24t88.5 13.5t98.5 1t99.5 -13t92.5 -29q19 -8 39 -20.5t38 -29.5q19 17 38 31l36 29 q10 9 22 9t13 -9q2 -8 -11 -18l-38 -31l-39 -33q29 -35 44 -84t3 -117q-10 -57 -49.5 -119t-97 -116.5t-129 -94.5t-144.5 -53q-41 -8 -80 -2.5t-73 23.5q-37 -59 -40 -92zM330 461q-21 -26 -39 -62t-28.5 -77.5t-9.5 -87t19 -90.5q7 -18 17 -32t21 -25q31 43 75 97t104 120 l155 166q73 74 139 133l-27 23q-14 11 -30 19q-36 19 -82 30.5t-95 15.5t-96.5 1.5t-86 -10.5t-65 -22t-32.5 -32q-5 -15 -2 -31t10.5 -30.5t19 -28t23.5 -24.5q5 -5 7.5 -5t6.5 4q25 23 58 42t66.5 30.5t66 14t58.5 -6.5q12 -5 15.5 -10t0.5 -9.5t-10.5 -7.5t-17.5 -3 q-17 1 -29.5 10t-25.5 8q-27 -4 -53 -15t-47.5 -24.5t-37 -27.5t-22.5 -23q-3 -7 1 -10q7 -6 16.5 -12.5l18.5 -12.5l18 -10q9 -4 14 -7q21 -11 21 -15t-22 2q-13 4 -37.5 15t-43.5 21q-5 2 -7 2t-5 -3zM853 404q10 47 -4 93t-46 84q-66 -58 -138 -129l-152 -157 q-63 -66 -109 -121.5t-78 -98.5q19 -12 40.5 -17.5t43 -7t42 0t37.5 4.5q49 7 106.5 37.5t110 77.5t93 107t54.5 127z" />
<glyph unicode="&#xd9;" horiz-adv-x="656" d="M550 1q4 -9 4 -40q-2 -14 -12 -14q-9 0 -11 17q0 37 7 65q15 58 86 213l57 127q19 42 20 44q9 26 -1 26q-6 0 -13 -8q-48 -45 -114 -101l-152 -126q-226 -181 -302 -204q-6 -2 -12 -2q-12 0 -23.5 5.5t-20 15.5t-12.5 23t-2 27q11 72 85 196l64 105l63 106 q34 58 50 103.5t16 76.5q0 29 -22 57q-24 30 -67 33q-119 9 -256 -75q-67 -41 -115 -89t-79 -103q-9 -17 -13 -35t-4 -38q0 -64 62 -105q8 -4 8 -10q0 -4 -6 -4q-4 0 -11 4q-27 21 -44 40t-23 38q-7 22 -7 48q0 38 17 73q52 108 185 192q144 92 286 86q37 -1 76 -45 q37 -42 36 -80q-3 -76 -63 -191q-2 -4 -30 -54l-84 -147q-34 -59 -55 -105t-28 -79q-3 -9 -3 -17q0 -28 28 -28q12 0 30 8q43 20 116.5 71t177.5 138l131 109l131 113q14 11 28 28t34 38q4 6 13 6t15 -7.5t4 -17.5l-5 -18q-2 -10 -6 -21q-22 -29 -53 -83.5t-73 -135.5 q-45 -89 -71.5 -150.5t-36.5 -98.5zM663 731q5 -4 3 -9q-5 -3 -9 0l-63 42l-80 55q-6 4 -6 10q0 22 22 22q6 0 10 -4l54 -49z" />
<glyph unicode="&#xda;" horiz-adv-x="656" d="M550 1q4 -9 4 -40q-2 -14 -12 -14q-9 0 -11 17q0 37 7 65q15 58 86 213l57 127q19 42 20 44q9 26 -1 26q-6 0 -13 -8q-48 -45 -114 -101l-152 -126q-226 -181 -302 -204q-6 -2 -12 -2q-12 0 -23.5 5.5t-20 15.5t-12.5 23t-2 27q11 72 85 196l64 105l63 106 q34 58 50 103.5t16 76.5q0 29 -22 57q-24 30 -67 33q-119 9 -256 -75q-67 -41 -115 -89t-79 -103q-9 -17 -13 -35t-4 -38q0 -64 62 -105q8 -4 8 -10q0 -4 -6 -4q-4 0 -11 4q-27 21 -44 40t-23 38q-7 22 -7 48q0 38 17 73q52 108 185 192q144 92 286 86q37 -1 76 -45 q37 -42 36 -80q-3 -76 -63 -191q-2 -4 -30 -54l-84 -147q-34 -59 -55 -105t-28 -79q-3 -9 -3 -17q0 -28 28 -28q12 0 30 8q43 20 116.5 71t177.5 138l131 109l131 113q14 11 28 28t34 38q4 6 13 6t15 -7.5t4 -17.5l-5 -18q-2 -10 -6 -21q-22 -29 -53 -83.5t-73 -135.5 q-45 -89 -71.5 -150.5t-36.5 -98.5zM597 727q-7 -3 -10 0q-4 5 1 10q2 2 20.5 18t53.5 49q62 56 66 57q16 4 22 -17q3 -10 -6 -16q-99 -65 -147 -101z" />
<glyph unicode="&#xdb;" horiz-adv-x="656" d="M550 1q4 -9 4 -40q-2 -14 -12 -14q-9 0 -11 17q0 37 7 65q15 58 86 213l57 127q19 42 20 44q9 26 -1 26q-6 0 -13 -8q-48 -45 -114 -101l-152 -126q-226 -181 -302 -204q-6 -2 -12 -2q-12 0 -23.5 5.5t-20 15.5t-12.5 23t-2 27q11 72 85 196l64 105l63 106 q34 58 50 103.5t16 76.5q0 29 -22 57q-24 30 -67 33q-119 9 -256 -75q-67 -41 -115 -89t-79 -103q-9 -17 -13 -35t-4 -38q0 -64 62 -105q8 -4 8 -10q0 -4 -6 -4q-4 0 -11 4q-27 21 -44 40t-23 38q-7 22 -7 48q0 38 17 73q52 108 185 192q144 92 286 86q37 -1 76 -45 q37 -42 36 -80q-3 -76 -63 -191q-2 -4 -30 -54l-84 -147q-34 -59 -55 -105t-28 -79q-3 -9 -3 -17q0 -28 28 -28q12 0 30 8q43 20 116.5 71t177.5 138l131 109l131 113q14 11 28 28t34 38q4 6 13 6t15 -7.5t4 -17.5l-5 -18q-2 -10 -6 -21q-22 -29 -53 -83.5t-73 -135.5 q-45 -89 -71.5 -150.5t-36.5 -98.5zM626 792q-23 -9 -53 -25.5t-66 -39.5q-12 -11 -9 3q1 3 2 5.5t4 6.5q15 8 81 62q53 41 54 40q3 -2 17.5 -28t41.5 -79q3 -8 3 -10q-2 -5 -3.5 -6t-2.5 -2q-4 -1 -7 5l-15 22l-16 21l-19 19q-7 7 -12 6z" />
<glyph unicode="&#xdc;" horiz-adv-x="656" d="M550 1q4 -9 4 -40q-2 -14 -12 -14q-9 0 -11 17q0 37 7 65q15 58 86 213l57 127q19 42 20 44q9 26 -1 26q-6 0 -13 -8q-48 -45 -114 -101l-152 -126q-226 -181 -302 -204q-6 -2 -12 -2q-12 0 -23.5 5.5t-20 15.5t-12.5 23t-2 27q11 72 85 196l64 105l63 106 q34 58 50 103.5t16 76.5q0 29 -22 57q-24 30 -67 33q-119 9 -256 -75q-67 -41 -115 -89t-79 -103q-9 -17 -13 -35t-4 -38q0 -64 62 -105q8 -4 8 -10q0 -4 -6 -4q-4 0 -11 4q-27 21 -44 40t-23 38q-7 22 -7 48q0 38 17 73q52 108 185 192q144 92 286 86q37 -1 76 -45 q37 -42 36 -80q-3 -76 -63 -191q-2 -4 -30 -54l-84 -147q-34 -59 -55 -105t-28 -79q-3 -9 -3 -17q0 -28 28 -28q12 0 30 8q43 20 116.5 71t177.5 138l131 109l131 113q14 11 28 28t34 38q4 6 13 6t15 -7.5t4 -17.5l-5 -18q-2 -10 -6 -21q-22 -29 -53 -83.5t-73 -135.5 q-45 -89 -71.5 -150.5t-36.5 -98.5zM580 779q-3 -17 -28 -39q-22 -21 -37 -18q-22 4 -22 17q0 14 23 37q23 24 37 27q11 2 20.5 -6.5t6.5 -17.5zM720 769q-3 -17 -28 -39q-22 -21 -37 -18q-22 4 -22 17q0 14 23 37q23 24 37 27q11 2 20.5 -6.5t6.5 -17.5z" />
<glyph unicode="&#xdd;" horiz-adv-x="662" d="M510 50q19 25 80 152l40 82l38 81q3 10 2 11q-1 4 -6 -1q-127 -112 -276 -214q-193 -130 -317 -165q-9 -2 -17.5 1.5t-16 12t-12 19.5t-4.5 24q0 11 4 20q17 55 99 176l87 131l46 72q67 115 67 188q0 88 -110 97q-96 7 -239 -79q-73 -45 -120.5 -92t-70.5 -98 q-16 -35 -16 -66q0 -23 8 -41t34 -35q11 -8 21.5 -12.5t19.5 -5.5q14 -1 14 -7t-19 -3q-66 12 -85 55q-5 13 -8 27t-3 31q0 18 3 33.5t8 29.5q40 101 173 190q142 95 263 98q59 1 108 -46q50 -48 50 -99q0 -34 -16.5 -79.5t-51.5 -102.5q-17 -29 -50 -79l-84 -123 q-42 -60 -66.5 -100.5t-34.5 -63.5q-11 -25 -11 -37q0 -14 14 -14q9 0 33 6q120 33 317 169q91 63 160.5 119t118.5 107l2 5l18 25l20 31q10 15 29 15q2 0 4 -2q9 -21 -1 -31q-8 -5 -16 -13l-19 -19l-58 -127l-66 -145q5 -5 11 -13.5t10.5 -16.5t7.5 -15.5t3 -10.5 q0 -9 -19 -34q-9 -11 -16 -17t-13 -7q-8 -1 -21 -5l-29 -9q-32 -53 -58.5 -90.5t-47.5 -63.5q-61 -76 -122 -110q-96 -55 -169 -53q-61 1 -97 31q-34 27 -34 67q0 49 49 88q130 100 458 151zM497 24q-48 -7 -98 -18t-104 -25q-80 -22 -137.5 -46t-93.5 -53q-46 -36 -46 -81 q0 -75 114 -73q83 1 162 53q31 21 60.5 49t56.5 64q12 16 33 48zM591 147l-19 -39l-27 -51q8 1 18 4l24 7q21 12 22 32q1 21 -18 47zM560 727q-7 -3 -10 0q-4 5 1 10q2 2 20.5 18t53.5 49q62 56 66 57q16 4 22 -17q3 -10 -6 -16q-99 -65 -147 -101z" />
<glyph unicode="&#xde;" horiz-adv-x="517" d="M338 534q-10 -31 -27 -79l-37 -103l-42 -115l-42 -111l-34 -96l-23 -65q-2 3 -2.5 2t-1.5 -3.5t-3 -4t-6 0.5q7 26 19 64l26 80l29 90l29 90l26 82l20 67q-35 20 -35 39q2 12 18 29.5t48 37.5q12 31 20 47l16 38l23 53q14 33 39 97q1 3 2 7t3 8.5t7.5 10.5t17.5 14 q19 13 20 -3q1 -5 -3.5 -7t-8.5 -16l-18 -38l-12 -26l-10 -22q-4 -11 -9 -26.5t-13 -37.5l-20 -58q57 36 102 57t83 29q28 6 52 0t42 -17.5t29 -24t13 -18.5q9 -68 -1.5 -120t-36 -93t-64.5 -73.5t-85.5 -60.5t-99.5 -54l-107 -55q-30 -10 -39 20q-2 4 -0.5 7.5t4.5 8.5 q7 10 35 16.5t71.5 21.5t100 46t120.5 90q13 9 29.5 38.5t29 66t18.5 73t0 57.5q-4 19 -18 29t-34 13t-44 1t-46 -8q-37 -9 -78 -33t-92 -63z" />
<glyph unicode="&#xdf;" horiz-adv-x="482" d="M559 500q-11 -27 -38 -56t-60.5 -55t-67.5 -47t-57 -33q-32 -17 -29.5 -28t34.5 -23l37 -13l35 -13q10 -4 23.5 -16.5t23 -29t12 -34.5t-8.5 -34q-21 -29 -55.5 -51t-73.5 -37.5t-78.5 -24t-70.5 -10.5q-27 -2 -41 13t-8 26q2 8 8.5 15.5t14.5 10.5q20 7 27 2t-3 -10 q-17 -11 -9 -18.5t25 -5.5q31 4 62.5 10.5t61 17.5t56.5 28.5t50 43.5q23 27 11.5 50t-51.5 34q-15 4 -31 9.5t-30 9.5q-29 8 -47 19.5t-22 25t8 28.5t42 31q27 13 59.5 32t64 41.5t58 49t41.5 56.5q8 16 8.5 39t-9.5 42.5t-31.5 30.5t-56.5 4q-27 -5 -58.5 -28t-67.5 -74 q-47 -66 -92.5 -151.5t-86.5 -184t-76 -207t-62 -219.5q-3 -12 -7 -16.5t-7.5 -3t-5 8.5t0.5 19q12 66 32.5 140t45 147.5t51 142t51.5 124.5q-12 -2 -29.5 -3t-34.5 -11q-9 -5 -14.5 -3.5t-7 6.5t1 11t7.5 9q21 12 48 16t44 9l52 91q27 49 62 98q37 51 79 79.5t72 30.5 q30 1 57 -10.5t45.5 -33.5t24 -52t-8.5 -65z" />
<glyph unicode="&#xe0;" horiz-adv-x="367" d="M55 13q-13 -8 -23 -8q-25 0 -25 35q0 71 111 182q101 100 180 130q19 8 41 8q12 0 24 -2.5t24 -6.5q17 -2 19 -1q18 3 26 13q2 2 6 2t7 -5t2 -7l-57 -89l-56 -88q-21 -35 -41 -80.5t-36.5 -92t-28.5 -88.5t-16 -71q-1 -5 -1 -10v-9q0 -34 21 -50.5t57 -16.5t71 12 q53 18 138 86q41 33 73.5 68t56.5 66q9 10 12 10q1 -1 1 -3q0 -4 -4 -11q-23 -34 -55.5 -72t-77.5 -76q-42 -34 -75.5 -56t-61.5 -32q-14 -5 -28 -7.5t-30 -2.5q-24 0 -44 8t-36 18q-19 12 -26.5 32t-6.5 46q1 21 8.5 56t19.5 74.5t26 78.5t28 69q17 36 33.5 67t33.5 57 q7 11 -1 11q-1 0 -3 -2q-24 -29 -57.5 -61t-77.5 -70q-88 -74 -151 -111zM71 98q-4 -11 -4 -23q0 -24 18 -24q7 0 15 5q56 35 118 94.5t133 144.5q3 3 3 7q0 11 -13 20.5t-33 9.5q-11 0 -23 -3q-47 -12 -119 -91q-34 -38 -57.5 -73t-37.5 -67zM408 431q5 -4 3 -9q-5 -3 -9 0 l-63 42l-80 55q-6 4 -6 10q0 22 22 22q6 0 10 -4l54 -49z" />
<glyph unicode="&#xe1;" horiz-adv-x="367" d="M55 13q-13 -8 -23 -8q-25 0 -25 35q0 71 111 182q101 100 180 130q19 8 41 8q12 0 24 -2.5t24 -6.5q17 -2 19 -1q18 3 26 13q2 2 6 2t7 -5t2 -7l-57 -89l-56 -88q-21 -35 -41 -80.5t-36.5 -92t-28.5 -88.5t-16 -71q-1 -5 -1 -10v-9q0 -34 21 -50.5t57 -16.5t71 12 q53 18 138 86q41 33 73.5 68t56.5 66q9 10 12 10q1 -1 1 -3q0 -4 -4 -11q-23 -34 -55.5 -72t-77.5 -76q-42 -34 -75.5 -56t-61.5 -32q-14 -5 -28 -7.5t-30 -2.5q-24 0 -44 8t-36 18q-19 12 -26.5 32t-6.5 46q1 21 8.5 56t19.5 74.5t26 78.5t28 69q17 36 33.5 67t33.5 57 q7 11 -1 11q-1 0 -3 -2q-24 -29 -57.5 -61t-77.5 -70q-88 -74 -151 -111zM71 98q-4 -11 -4 -23q0 -24 18 -24q7 0 15 5q56 35 118 94.5t133 144.5q3 3 3 7q0 11 -13 20.5t-33 9.5q-11 0 -23 -3q-47 -12 -119 -91q-34 -38 -57.5 -73t-37.5 -67zM342 427q-7 -3 -10 0 q-4 5 1 10q2 2 20.5 18t53.5 49q62 56 66 57q16 4 22 -17q3 -10 -6 -16q-99 -65 -147 -101z" />
<glyph unicode="&#xe2;" horiz-adv-x="367" d="M55 13q-13 -8 -23 -8q-25 0 -25 35q0 71 111 182q101 100 180 130q19 8 41 8q12 0 24 -2.5t24 -6.5q17 -2 19 -1q18 3 26 13q2 2 6 2t7 -5t2 -7l-57 -89l-56 -88q-21 -35 -41 -80.5t-36.5 -92t-28.5 -88.5t-16 -71q-1 -5 -1 -10v-9q0 -34 21 -50.5t57 -16.5t71 12 q53 18 138 86q41 33 73.5 68t56.5 66q9 10 12 10q1 -1 1 -3q0 -4 -4 -11q-23 -34 -55.5 -72t-77.5 -76q-42 -34 -75.5 -56t-61.5 -32q-14 -5 -28 -7.5t-30 -2.5q-24 0 -44 8t-36 18q-19 12 -26.5 32t-6.5 46q1 21 8.5 56t19.5 74.5t26 78.5t28 69q17 36 33.5 67t33.5 57 q7 11 -1 11q-1 0 -3 -2q-24 -29 -57.5 -61t-77.5 -70q-88 -74 -151 -111zM71 98q-4 -11 -4 -23q0 -24 18 -24q7 0 15 5q56 35 118 94.5t133 144.5q3 3 3 7q0 11 -13 20.5t-33 9.5q-11 0 -23 -3q-47 -12 -119 -91q-34 -38 -57.5 -73t-37.5 -67zM403 492q-23 -9 -53 -25.5 t-66 -39.5q-12 -11 -9 3q1 3 2 5.5t4 6.5q15 8 81 62q53 41 54 40q3 -2 17.5 -28t41.5 -79q3 -8 3 -10q-2 -5 -3.5 -6t-2.5 -2q-4 -1 -7 5l-15 22l-16 21l-19 19q-7 7 -12 6z" />
<glyph unicode="&#xe3;" horiz-adv-x="367" d="M55 13q-13 -8 -23 -8q-25 0 -25 35q0 71 111 182q101 100 180 130q19 8 41 8q12 0 24 -2.5t24 -6.5q17 -2 19 -1q18 3 26 13q2 2 6 2t7 -5t2 -7l-57 -89l-56 -88q-21 -35 -41 -80.5t-36.5 -92t-28.5 -88.5t-16 -71q-1 -5 -1 -10v-9q0 -34 21 -50.5t57 -16.5t71 12 q53 18 138 86q41 33 73.5 68t56.5 66q9 10 12 10q1 -1 1 -3q0 -4 -4 -11q-23 -34 -55.5 -72t-77.5 -76q-42 -34 -75.5 -56t-61.5 -32q-14 -5 -28 -7.5t-30 -2.5q-24 0 -44 8t-36 18q-19 12 -26.5 32t-6.5 46q1 21 8.5 56t19.5 74.5t26 78.5t28 69q17 36 33.5 67t33.5 57 q7 11 -1 11q-1 0 -3 -2q-24 -29 -57.5 -61t-77.5 -70q-88 -74 -151 -111zM71 98q-4 -11 -4 -23q0 -24 18 -24q7 0 15 5q56 35 118 94.5t133 144.5q3 3 3 7q0 11 -13 20.5t-33 9.5q-11 0 -23 -3q-47 -12 -119 -91q-34 -38 -57.5 -73t-37.5 -67zM284 432q-2 0 -2 2q0 1 7 12 q44 42 64 42q6 0 19 -5l32 -13q21 -9 34.5 -12.5t21.5 -3.5q34 0 50 16q8 6 11 6t3 -3t-5 -11q-38 -38 -59 -38q-15 0 -53 16q-41 18 -54 18q-23 0 -46 -13z" />
<glyph unicode="&#xe4;" horiz-adv-x="367" d="M55 13q-13 -8 -23 -8q-25 0 -25 35q0 71 111 182q101 100 180 130q19 8 41 8q12 0 24 -2.5t24 -6.5q17 -2 19 -1q18 3 26 13q2 2 6 2t7 -5t2 -7l-57 -89l-56 -88q-21 -35 -41 -80.5t-36.5 -92t-28.5 -88.5t-16 -71q-1 -5 -1 -10v-9q0 -34 21 -50.5t57 -16.5t71 12 q53 18 138 86q41 33 73.5 68t56.5 66q9 10 12 10q1 -1 1 -3q0 -4 -4 -11q-23 -34 -55.5 -72t-77.5 -76q-42 -34 -75.5 -56t-61.5 -32q-14 -5 -28 -7.5t-30 -2.5q-24 0 -44 8t-36 18q-19 12 -26.5 32t-6.5 46q1 21 8.5 56t19.5 74.5t26 78.5t28 69q17 36 33.5 67t33.5 57 q7 11 -1 11q-1 0 -3 -2q-24 -29 -57.5 -61t-77.5 -70q-88 -74 -151 -111zM71 98q-4 -11 -4 -23q0 -24 18 -24q7 0 15 5q56 35 118 94.5t133 144.5q3 3 3 7q0 11 -13 20.5t-33 9.5q-11 0 -23 -3q-47 -12 -119 -91q-34 -38 -57.5 -73t-37.5 -67zM375 479q-3 -17 -28 -39 q-22 -21 -37 -18q-22 4 -22 17q0 14 23 37q23 24 37 27q11 2 20.5 -6.5t6.5 -17.5zM515 469q-3 -17 -28 -39q-22 -21 -37 -18q-22 4 -22 17q0 14 23 37q23 24 37 27q11 2 20.5 -6.5t6.5 -17.5z" />
<glyph unicode="&#xe5;" horiz-adv-x="367" d="M55 13q-13 -8 -23 -8q-25 0 -25 35q0 71 111 182q101 100 180 130q19 8 41 8q12 0 24 -2.5t24 -6.5q17 -2 19 -1q18 3 26 13q2 2 6 2t7 -5t2 -7l-57 -89l-56 -88q-21 -35 -41 -80.5t-36.5 -92t-28.5 -88.5t-16 -71q-1 -5 -1 -10v-9q0 -34 21 -50.5t57 -16.5t71 12 q53 18 138 86q41 33 73.5 68t56.5 66q9 10 12 10q1 -1 1 -3q0 -4 -4 -11q-23 -34 -55.5 -72t-77.5 -76q-42 -34 -75.5 -56t-61.5 -32q-14 -5 -28 -7.5t-30 -2.5q-24 0 -44 8t-36 18q-19 12 -26.5 32t-6.5 46q1 21 8.5 56t19.5 74.5t26 78.5t28 69q17 36 33.5 67t33.5 57 q7 11 -1 11q-1 0 -3 -2q-24 -29 -57.5 -61t-77.5 -70q-88 -74 -151 -111zM71 98q-4 -11 -4 -23q0 -24 18 -24q7 0 15 5q56 35 118 94.5t133 144.5q3 3 3 7q0 11 -13 20.5t-33 9.5q-11 0 -23 -3q-47 -12 -119 -91q-34 -38 -57.5 -73t-37.5 -67zM423 580q11 6 21 10t19 5 q43 4 43 -42q0 -10 -5 -30q-6 -17 -14.5 -32t-22.5 -29q-30 -31 -64 -40q-5 -2 -9 -2h-9q-41 0 -41 41q0 6 1 12t3 12q5 15 11.5 29t17.5 27q23 30 49 39zM454 568q-24 -2 -42 -18q-32 -26 -38 -60q0 -3 -0.5 -6t-0.5 -7q0 -18 10 -26.5t22 -5.5q23 5 43 24.5t29 49.5 q3 10 3 21q0 30 -26 28z" />
<glyph unicode="&#xe6;" horiz-adv-x="522" d="M698 278q-10 -11 -32.5 -26.5t-50.5 -19.5q-17 -3 -50.5 -4t-73.5 -2t-80 -1h-70l-23 -33q-13 -19 -24 -40t-19 -43.5t-9 -46.5q-2 -44 19.5 -58t47.5 -11q33 4 70.5 18t64.5 30q8 5 12 2t-4 -9q-11 -8 -26 -17.5t-33 -18.5t-37.5 -16.5t-37.5 -10.5q-15 -3 -33 4 t-33 19.5t-25 30t-9 37.5q2 29 10.5 58t22.5 58q-15 -17 -33 -34l-36 -33q-44 -37 -82 -58l-69 -40q-13 -8 -23 -8q-25 0 -25 35q0 71 111 182q101 100 180 130q19 8 41 8q12 0 24 -2.5t24 -6.5q17 -2 19 -1q3 0 5.5 0.5t5.5 1.5q45 37 84 53q19 7 33.5 -0.5t23.5 -22.5 t10 -33t-7 -33q-16 -28 -54.5 -47t-88.5 -27h56q28 0 54 0.5t48.5 1.5t38.5 3q21 2 42.5 13t33.5 22q5 7 8.5 5t-1.5 -9zM71 98q-4 -11 -4 -23q0 -24 18 -24q7 0 15 5q56 35 118 94.5t133 144.5q3 3 3 7q0 11 -13 20.5t-33 9.5q-11 0 -23 -3q-47 -12 -119 -91 q-34 -38 -57.5 -73t-37.5 -67zM537 325q10 16 11 28t-5 18.5t-17.5 6t-26.5 -8.5q-37 -21 -75 -55.5t-72 -71.5q26 0 54 6t53 17.5t45.5 26.5t32.5 33z" />
<glyph unicode="&#xe7;" horiz-adv-x="301" d="M360 314q-6 -8 -14 -11.5t-13.5 -3t-6 6.5t9.5 17q12 15 13.5 26.5t-5 18.5t-19 7t-27.5 -8q-37 -21 -74.5 -55.5t-71.5 -72.5l-12 -16l-24 -33q-12 -19 -23 -40t-19 -43.5t-9 -46.5q-2 -22 3.5 -36t15.5 -21.5t22.5 -10t25.5 -1.5q33 4 70.5 18t65.5 30q8 5 11.5 2 t-4.5 -9q-11 -8 -26 -17.5t-33 -18.5t-37 -16.5t-38 -10.5h-9q-14 -11 -24 -26q-3 -2 -3.5 -6.5t7.5 -6.5q6 -2 15.5 -7.5t17 -14.5t9.5 -21t-7 -28q-5 -9 -18 -19.5t-30.5 -20t-37 -16t-36.5 -7.5q-11 -1 -12 5t9 8q13 0 28 5.5t28 14t23 18t15 18.5q12 18 0.5 32.5 t-38.5 22.5q-15 4 -7 12q9 9 20 19t24 20q-14 3 -27.5 11.5t-24 20.5t-17 26.5t-5.5 30.5q3 54 30.5 109.5t66.5 102.5t83 80.5t80 44.5q19 6 36 1.5t27 -16.5t10.5 -29.5t-14.5 -38.5z" />
<glyph unicode="&#xe8;" horiz-adv-x="320" d="M496 278q-10 -11 -32.5 -26.5t-50.5 -19.5q-17 -3 -50.5 -4t-73.5 -2t-80 -1h-70l-23 -33q-13 -19 -24 -40t-19 -43.5t-9 -46.5q-2 -44 19.5 -58t47.5 -11q33 4 70.5 18t64.5 30q8 5 12 2t-4 -9q-11 -8 -26 -17.5t-33 -18.5t-37.5 -16.5t-37.5 -10.5q-15 -3 -33 4 t-33 19.5t-25 30t-9 37.5q2 36 15.5 73.5t34.5 72.5t47.5 67t54.5 58t56 44.5t51 27.5q19 7 33.5 -0.5t23.5 -22.5t10 -33t-7 -33q-16 -28 -54.5 -47t-88.5 -27h56q28 0 54 0.5t48.5 1.5t38.5 3q21 2 42.5 13t33.5 22q5 7 8.5 5t-1.5 -9zM335 325q10 16 11 28t-5 18.5 t-17.5 6t-26.5 -8.5q-37 -21 -75 -55.5t-72 -71.5q26 0 54 6t53 17.5t45.5 26.5t32.5 33zM375 461q5 -4 3 -9q-5 -3 -9 0l-63 42l-80 55q-6 4 -6 10q0 22 22 22q6 0 10 -4l54 -49z" />
<glyph unicode="&#xe9;" horiz-adv-x="320" d="M496 278q-10 -11 -32.5 -26.5t-50.5 -19.5q-17 -3 -50.5 -4t-73.5 -2t-80 -1h-70l-23 -33q-13 -19 -24 -40t-19 -43.5t-9 -46.5q-2 -44 19.5 -58t47.5 -11q33 4 70.5 18t64.5 30q8 5 12 2t-4 -9q-11 -8 -26 -17.5t-33 -18.5t-37.5 -16.5t-37.5 -10.5q-15 -3 -33 4 t-33 19.5t-25 30t-9 37.5q2 36 15.5 73.5t34.5 72.5t47.5 67t54.5 58t56 44.5t51 27.5q19 7 33.5 -0.5t23.5 -22.5t10 -33t-7 -33q-16 -28 -54.5 -47t-88.5 -27h56q28 0 54 0.5t48.5 1.5t38.5 3q21 2 42.5 13t33.5 22q5 7 8.5 5t-1.5 -9zM335 325q10 16 11 28t-5 18.5 t-17.5 6t-26.5 -8.5q-37 -21 -75 -55.5t-72 -71.5q26 0 54 6t53 17.5t45.5 26.5t32.5 33zM298 457q-7 -3 -10 0q-4 5 1 10q2 2 20.5 18t53.5 49q62 56 66 57q16 4 22 -17q3 -10 -6 -16q-99 -65 -147 -101z" />
<glyph unicode="&#xea;" horiz-adv-x="320" d="M496 278q-10 -11 -32.5 -26.5t-50.5 -19.5q-17 -3 -50.5 -4t-73.5 -2t-80 -1h-70l-23 -33q-13 -19 -24 -40t-19 -43.5t-9 -46.5q-2 -44 19.5 -58t47.5 -11q33 4 70.5 18t64.5 30q8 5 12 2t-4 -9q-11 -8 -26 -17.5t-33 -18.5t-37.5 -16.5t-37.5 -10.5q-15 -3 -33 4 t-33 19.5t-25 30t-9 37.5q2 36 15.5 73.5t34.5 72.5t47.5 67t54.5 58t56 44.5t51 27.5q19 7 33.5 -0.5t23.5 -22.5t10 -33t-7 -33q-16 -28 -54.5 -47t-88.5 -27h56q28 0 54 0.5t48.5 1.5t38.5 3q21 2 42.5 13t33.5 22q5 7 8.5 5t-1.5 -9zM335 325q10 16 11 28t-5 18.5 t-17.5 6t-26.5 -8.5q-37 -21 -75 -55.5t-72 -71.5q26 0 54 6t53 17.5t45.5 26.5t32.5 33zM360 522q-23 -9 -53 -25.5t-66 -39.5q-12 -11 -9 3q1 3 2 5.5t4 6.5q15 8 81 62q53 41 54 40q3 -2 17.5 -28t41.5 -79q3 -8 3 -10q-2 -5 -3.5 -6t-2.5 -2q-4 -1 -7 5l-15 22l-16 21 l-19 19q-7 7 -12 6z" />
<glyph unicode="&#xeb;" horiz-adv-x="320" d="M496 278q-10 -11 -32.5 -26.5t-50.5 -19.5q-17 -3 -50.5 -4t-73.5 -2t-80 -1h-70l-23 -33q-13 -19 -24 -40t-19 -43.5t-9 -46.5q-2 -44 19.5 -58t47.5 -11q33 4 70.5 18t64.5 30q8 5 12 2t-4 -9q-11 -8 -26 -17.5t-33 -18.5t-37.5 -16.5t-37.5 -10.5q-15 -3 -33 4 t-33 19.5t-25 30t-9 37.5q2 36 15.5 73.5t34.5 72.5t47.5 67t54.5 58t56 44.5t51 27.5q19 7 33.5 -0.5t23.5 -22.5t10 -33t-7 -33q-16 -28 -54.5 -47t-88.5 -27h56q28 0 54 0.5t48.5 1.5t38.5 3q21 2 42.5 13t33.5 22q5 7 8.5 5t-1.5 -9zM335 325q10 16 11 28t-5 18.5 t-17.5 6t-26.5 -8.5q-37 -21 -75 -55.5t-72 -71.5q26 0 54 6t53 17.5t45.5 26.5t32.5 33zM331 509q-3 -17 -28 -39q-22 -21 -37 -18q-22 4 -22 17q0 14 23 37q23 24 37 27q11 2 20.5 -6.5t6.5 -17.5zM471 499q-3 -17 -28 -39q-22 -21 -37 -18q-22 4 -22 17q0 14 23 37 q23 24 37 27q11 2 20.5 -6.5t6.5 -17.5z" />
<glyph unicode="&#xec;" horiz-adv-x="182" d="M243 78q-24 -24 -51 -44.5t-71 -40.5q-6 -3 -18.5 -0.5t-25 9.5t-22 20t-9.5 31q0 16 8 41.5t20 54t26 57.5l26 54l20 42q8 18 9 22q2 12 12 16.5t19 1.5t13.5 -14t-5.5 -29l-52 -99l-26 -50q-9 -16 -10.5 -19.5t-2.5 -6.5t-4.5 -11t-15.5 -33t-12.5 -38.5t6.5 -19.5 t17.5 -5.5t20.5 2.5q38 9 66.5 27t55.5 44q9 9 13 10t4.5 -2t-2.5 -8.5t-9 -11.5zM266 412q5 -4 3 -9q-5 -3 -9 0l-63 42l-80 55q-6 4 -6 10q0 22 22 22q6 0 10 -4l54 -49z" />
<glyph unicode="&#xed;" horiz-adv-x="182" d="M243 78q-24 -24 -51 -44.5t-71 -40.5q-6 -3 -18.5 -0.5t-25 9.5t-22 20t-9.5 31q0 16 8 41.5t20 54t26 57.5l26 54l20 42q8 18 9 22q2 12 12 16.5t19 1.5t13.5 -14t-5.5 -29l-52 -99l-26 -50q-9 -16 -10.5 -19.5t-2.5 -6.5t-4.5 -11t-15.5 -33t-12.5 -38.5t6.5 -19.5 t17.5 -5.5t20.5 2.5q38 9 66.5 27t55.5 44q9 9 13 10t4.5 -2t-2.5 -8.5t-9 -11.5zM190 408q-7 -3 -10 0q-4 5 1 10q2 2 20.5 18t53.5 49q62 56 66 57q16 4 22 -17q3 -10 -6 -16q-99 -65 -147 -101z" />
<glyph unicode="&#xee;" horiz-adv-x="182" d="M243 78q-24 -24 -51 -44.5t-71 -40.5q-6 -3 -18.5 -0.5t-25 9.5t-22 20t-9.5 31q0 16 8 41.5t20 54t26 57.5l26 54l20 42q8 18 9 22q2 12 12 16.5t19 1.5t13.5 -14t-5.5 -29l-52 -99l-26 -50q-9 -16 -10.5 -19.5t-2.5 -6.5t-4.5 -11t-15.5 -33t-12.5 -38.5t6.5 -19.5 t17.5 -5.5t20.5 2.5q38 9 66.5 27t55.5 44q9 9 13 10t4.5 -2t-2.5 -8.5t-9 -11.5zM241 473q-23 -9 -53 -25.5t-66 -39.5q-12 -11 -9 3q1 3 2 5.5t4 6.5q15 8 81 62q53 41 54 40q3 -2 17.5 -28t41.5 -79q3 -8 3 -10q-2 -5 -3.5 -6t-2.5 -2q-4 -1 -7 5l-15 22l-16 21l-19 19 q-7 7 -12 6z" />
<glyph unicode="&#xef;" horiz-adv-x="182" d="M243 78q-24 -24 -51 -44.5t-71 -40.5q-6 -3 -18.5 -0.5t-25 9.5t-22 20t-9.5 31q0 16 8 41.5t20 54t26 57.5l26 54l20 42q8 18 9 22q2 12 12 16.5t19 1.5t13.5 -14t-5.5 -29l-52 -99l-26 -50q-9 -16 -10.5 -19.5t-2.5 -6.5t-4.5 -11t-15.5 -33t-12.5 -38.5t6.5 -19.5 t17.5 -5.5t20.5 2.5q38 9 66.5 27t55.5 44q9 9 13 10t4.5 -2t-2.5 -8.5t-9 -11.5zM203 460q-3 -17 -28 -39q-22 -21 -37 -18q-22 4 -22 17q0 14 23 37q23 24 37 27q11 2 20.5 -6.5t6.5 -17.5zM343 450q-3 -17 -28 -39q-22 -21 -37 -18q-22 4 -22 17q0 14 23 37q23 24 37 27 q11 2 20.5 -6.5t6.5 -17.5z" />
<glyph unicode="&#xf0;" horiz-adv-x="357" d="M262 530q-1 -1 -3 1l-2 13q6 60 22 74q5 4 17 8t32 9l-10 18q-52 85 -118.5 142t-147.5 90q-52 20 -99 27q-2 1 -10 -5.5t-16 -2.5q-11 8 -16.5 21t-0.5 23q4 10 17 9q32 -4 61.5 -11.5t58.5 -20.5q90 -36 160.5 -98t124.5 -153q5 -8 9 -16l8 -16q25 10 34 18 q27 22 28 45l2 6q1 3 3 5q1 3 4 0q1 -1 3 -12q-5 -54 -21 -67q-7 -6 -41 -19q72 -149 49 -308q0 -25 -18 -55t-42 -59.5t-49 -54t-41 -38.5q-51 -45 -98 -65l-78 -34q-1 0 -6.5 -1t-12 -2t-12.5 -1.5t-7 -0.5q-37 0 -37 34q0 67 118 179q54 51 98.5 83.5t82.5 46.5 q19 8 41 8q10 0 21 -3t22 -16q6 67 -4.5 140t-46.5 141q-31 -8 -43 -17q-17 -16 -26 -40zM73 87q-2 -6 -3.5 -11t-1.5 -11q0 -22 17 -22q4 0 14.5 1.5t15.5 3.5q38 12 71.5 29t63.5 42t56.5 59.5t50.5 81.5q5 8 7 20t2 18q0 23 -36 23q-13 0 -26 -3q-26 -6 -57.5 -29 t-70.5 -61q-39 -39 -64 -74t-39 -67z" />
<glyph unicode="&#xf1;" horiz-adv-x="341" d="M12 24q-11 -2 -12 4q-4 4 2 16q23 49 78 133q26 40 49 71.5t43 55.5q3 5 8.5 8t16.5 5q6 1 7 0q0 -4 -3 -7q-38 -44 -65.5 -87.5t-47.5 -88.5q-4 -5 -4 -13q0 -11 8 -11q6 0 12 7q28 27 58 53l63 53q75 60 101 70q14 12 25 16q22 10 35 4q14 -5 -1 -23q-71 -91 -128 -210 q-27 -59 -41.5 -106t-17.5 -82q-3 -47 19 -71q21 -22 55 -22q16 0 29 4q57 16 143 89q95 81 95 130q0 10 -4.5 14.5t-10.5 6t-10.5 1.5t-4.5 3q0 6 8.5 10t15.5 4q17 0 17 -23q0 -11 -6 -29q-9 -29 -32 -61t-58 -67q-96 -95 -208 -107q-40 -4 -66 22q-28 30 -23 94 q3 35 19 80.5t44 100.5q23 46 48.5 88.5t54.5 82.5q3 4 3 10q0 16 -18 16q-8 0 -16 -5q-57 -40 -113.5 -94t-115.5 -123q-10 -13 -51 -22zM236 403q-2 0 -2 2q0 1 7 12q44 42 64 42q6 0 19 -5l32 -13q21 -9 34.5 -12.5t21.5 -3.5q34 0 50 16q8 6 11 6t3 -3t-5 -11 q-38 -38 -59 -38q-15 0 -53 16q-41 18 -54 18q-23 0 -46 -13z" />
<glyph unicode="&#xf2;" horiz-adv-x="354" d="M64 -17q-14 -2 -29.5 9t-15.5 27q2 83 134 245q4 7 -2 9q-9 5 -18 11.5t-9 12.5q0 3 3 8t26 6q37 1 38 1q4 0 11 4q22 21 44 22q8 1 19.5 -4.5t25.5 -13.5q2 -1 3.5 -2t3.5 -2q23 -1 55.5 -1.5t74.5 -2.5q15 0 15 -4q0 -6 -15 -6q-31 0 -40 -12q-2 -3 0 -6l2 -6 q1 -3 1 -5q-3 -38 -32.5 -81.5t-89.5 -94.5q-119 -102 -205 -114zM50 36q-6 -11 -6 -22q0 -24 32 -18q68 11 163 98q100 89 115 162q7 30 -38 35q-24 3 -45 0.5t-39 -9.5q-2 1 -17 -9q-107 -99 -165 -237zM382 402q5 -4 3 -9q-5 -3 -9 0l-63 42l-80 55q-6 4 -6 10 q0 22 22 22q6 0 10 -4l54 -49z" />
<glyph unicode="&#xf3;" horiz-adv-x="354" d="M64 -17q-14 -2 -29.5 9t-15.5 27q2 83 134 245q4 7 -2 9q-9 5 -18 11.5t-9 12.5q0 3 3 8t26 6q37 1 38 1q4 0 11 4q22 21 44 22q8 1 19.5 -4.5t25.5 -13.5q2 -1 3.5 -2t3.5 -2q23 -1 55.5 -1.5t74.5 -2.5q15 0 15 -4q0 -6 -15 -6q-31 0 -40 -12q-2 -3 0 -6l2 -6 q1 -3 1 -5q-3 -38 -32.5 -81.5t-89.5 -94.5q-119 -102 -205 -114zM50 36q-6 -11 -6 -22q0 -24 32 -18q68 11 163 98q100 89 115 162q7 30 -38 35q-24 3 -45 0.5t-39 -9.5q-2 1 -17 -9q-107 -99 -165 -237zM305 398q-7 -3 -10 0q-4 5 1 10q2 2 20.5 18t53.5 49q62 56 66 57 q16 4 22 -17q3 -10 -6 -16q-99 -65 -147 -101z" />
<glyph unicode="&#xf4;" horiz-adv-x="354" d="M64 -17q-14 -2 -29.5 9t-15.5 27q2 83 134 245q4 7 -2 9q-9 5 -18 11.5t-9 12.5q0 3 3 8t26 6q37 1 38 1q4 0 11 4q22 21 44 22q8 1 19.5 -4.5t25.5 -13.5q2 -1 3.5 -2t3.5 -2q23 -1 55.5 -1.5t74.5 -2.5q15 0 15 -4q0 -6 -15 -6q-31 0 -40 -12q-2 -3 0 -6l2 -6 q1 -3 1 -5q-3 -38 -32.5 -81.5t-89.5 -94.5q-119 -102 -205 -114zM50 36q-6 -11 -6 -22q0 -24 32 -18q68 11 163 98q100 89 115 162q7 30 -38 35q-24 3 -45 0.5t-39 -9.5q-2 1 -17 -9q-107 -99 -165 -237zM366 463q-23 -9 -53 -25.5t-66 -39.5q-12 -11 -9 3q1 3 2 5.5t4 6.5 q15 8 81 62q53 41 54 40q3 -2 17.5 -28t41.5 -79q3 -8 3 -10q-2 -5 -3.5 -6t-2.5 -2q-4 -1 -7 5l-15 22l-16 21l-19 19q-7 7 -12 6z" />
<glyph unicode="&#xf5;" horiz-adv-x="354" d="M64 -17q-14 -2 -29.5 9t-15.5 27q2 83 134 245q4 7 -2 9q-9 5 -18 11.5t-9 12.5q0 3 3 8t26 6q37 1 38 1q4 0 11 4q22 21 44 22q8 1 19.5 -4.5t25.5 -13.5q2 -1 3.5 -2t3.5 -2q23 -1 55.5 -1.5t74.5 -2.5q15 0 15 -4q0 -6 -15 -6q-31 0 -40 -12q-2 -3 0 -6l2 -6 q1 -3 1 -5q-3 -38 -32.5 -81.5t-89.5 -94.5q-119 -102 -205 -114zM50 36q-6 -11 -6 -22q0 -24 32 -18q68 11 163 98q100 89 115 162q7 30 -38 35q-24 3 -45 0.5t-39 -9.5q-2 1 -17 -9q-107 -99 -165 -237zM228 403q-2 0 -2 2q0 1 7 12q44 42 64 42q6 0 19 -5l32 -13 q21 -9 34.5 -12.5t21.5 -3.5q34 0 50 16q8 6 11 6t3 -3t-5 -11q-38 -38 -59 -38q-15 0 -53 16q-41 18 -54 18q-23 0 -46 -13z" />
<glyph unicode="&#xf6;" horiz-adv-x="354" d="M64 -17q-14 -2 -29.5 9t-15.5 27q2 83 134 245q4 7 -2 9q-9 5 -18 11.5t-9 12.5q0 3 3 8t26 6q37 1 38 1q4 0 11 4q22 21 44 22q8 1 19.5 -4.5t25.5 -13.5q2 -1 3.5 -2t3.5 -2q23 -1 55.5 -1.5t74.5 -2.5q15 0 15 -4q0 -6 -15 -6q-31 0 -40 -12q-2 -3 0 -6l2 -6 q1 -3 1 -5q-3 -38 -32.5 -81.5t-89.5 -94.5q-119 -102 -205 -114zM50 36q-6 -11 -6 -22q0 -24 32 -18q68 11 163 98q100 89 115 162q7 30 -38 35q-24 3 -45 0.5t-39 -9.5q-2 1 -17 -9q-107 -99 -165 -237zM328 450q-3 -17 -28 -39q-22 -21 -37 -18q-22 4 -22 17q0 14 23 37 q23 24 37 27q11 2 20.5 -6.5t6.5 -17.5zM468 440q-3 -17 -28 -39q-22 -21 -37 -18q-22 4 -22 17q0 14 23 37q23 24 37 27q11 2 20.5 -6.5t6.5 -17.5z" />
<glyph unicode="&#xf7;" horiz-adv-x="444" d="M202 274q-48 0 -88 3t-63 7q-3 1 -8.5 5.5t-10.5 10.5l-11 12q-5 5 -7 9q-2 7 -0.5 9t2.5 0q5 -8 16 -12.5t19 -6.5q58 -9 136 -14l19 -1q49 -2 97 1.5t85 15.5q5 1 11 3.5t9.5 5.5t4.5 7.5t-4 10.5q-3 2 -7 6t-9 7q-11 11 2 7q8 -1 19.5 -11.5t16.5 -18.5 q9 -16 1.5 -23.5t-16.5 -11.5q-40 -11 -93 -16t-105 -5h-16zM237 396q3 0 7 -8t7 -18.5t4 -21t-2 -14.5q-3 -2 -10.5 -4.5t-16 -4t-16 -1.5t-10.5 3q-3 2 -6.5 10t-6.5 17.5t-4.5 18t1.5 11.5q2 3 9 5.5t16 4t17 2t11 0.5zM241 241q3 0 7 -8t7 -18t3.5 -19.5t-2.5 -12.5 q-2 -3 -9.5 -5.5t-15.5 -4t-15.5 -1.5t-10.5 2q-3 3 -7 11t-7.5 17t-4.5 17.5t2 12.5q2 3 9.5 5t16.5 3h16q8 1 11 1z" />
<glyph unicode="&#xf8;" horiz-adv-x="347" d="M0 -61q-3 -14 -7 -14q0 2 -1 6t-1 11q5 27 53 87q-1 2 -2 5t-1 7q-5 31 3.5 66.5t26 71t41.5 70t49 64t48.5 51.5t41.5 34q15 10 19.5 0t-0.5 -21q17 5 37 6.5t28 -0.5q23 -8 40 -25l31 25l29 23q8 5 13 5q7 0 7 -5q0 -8 -9 -11q-15 -11 -30 -24l-31 -27q11 -18 7 -38 q-11 -45 -37.5 -93.5t-62.5 -93t-77 -79.5t-79 -51q-8 -3 -19 -2.5t-23 4.5t-23.5 11.5t-19.5 16.5q-43 -52 -51 -80zM362 306q1 5 1 10v11l-85 -78l-95 -91l-61 -62q-28 -29 -49 -53q3 -33 28 -36t58 15q18 10 39 28.5t42.5 43t42 52.5t37 56.5t28 55t14.5 48.5zM73 70 q-1 -3 -1 -9l44 48l55 56q105 106 186 177q-6 8 -16.5 9.5t-25.5 -0.5q-29 -4 -46.5 -7.5t-37.5 -11.5q-25 -22 -51 -54t-48.5 -68t-38.5 -72.5t-20 -67.5z" />
<glyph unicode="&#xf9;" horiz-adv-x="450" d="M466 297q-14 -21 -31 -51t-32.5 -61.5t-27.5 -61.5t-15 -50q-3 -18 -0.5 -26.5t7.5 -11t12.5 -1t14.5 3.5q3 1 18 11l33 21l32 22l18 12q16 11 17.5 3t-10.5 -20q-5 -5 -22 -18t-36.5 -26.5t-37.5 -24.5t-24 -13t-15 2t-16.5 11.5t-13 17t-5.5 19.5q0 19 4.5 40t11.5 41 t16 40l15 36q6 15 0 24.5t-24 -8.5l-63 -60l-77 -72q-39 -36 -72.5 -63.5t-49.5 -32.5q-27 -9 -44 8.5t-15 42.5q2 23 12.5 53t27 61.5t36 64t39.5 61.5l37 53q18 23 31 38q5 6 13.5 8.5t14.5 0.5t7 -8.5t-8 -18.5q-23 -28 -48.5 -65t-48.5 -75t-41.5 -74t-25.5 -63 q-12 -41 0.5 -52.5t37.5 2.5q39 24 82.5 63.5t85.5 82.5l82 84q39 41 69 68q9 9 16 6t11 -11.5t4.5 -18t-2.5 -14.5zM410 431q5 -4 3 -9q-5 -3 -9 0l-63 42l-80 55q-6 4 -6 10q0 22 22 22q6 0 10 -4l54 -49z" />
<glyph unicode="&#xfa;" horiz-adv-x="450" d="M466 297q-14 -21 -31 -51t-32.5 -61.5t-27.5 -61.5t-15 -50q-3 -18 -0.5 -26.5t7.5 -11t12.5 -1t14.5 3.5q3 1 18 11l33 21l32 22l18 12q16 11 17.5 3t-10.5 -20q-5 -5 -22 -18t-36.5 -26.5t-37.5 -24.5t-24 -13t-15 2t-16.5 11.5t-13 17t-5.5 19.5q0 19 4.5 40t11.5 41 t16 40l15 36q6 15 0 24.5t-24 -8.5l-63 -60l-77 -72q-39 -36 -72.5 -63.5t-49.5 -32.5q-27 -9 -44 8.5t-15 42.5q2 23 12.5 53t27 61.5t36 64t39.5 61.5l37 53q18 23 31 38q5 6 13.5 8.5t14.5 0.5t7 -8.5t-8 -18.5q-23 -28 -48.5 -65t-48.5 -75t-41.5 -74t-25.5 -63 q-12 -41 0.5 -52.5t37.5 2.5q39 24 82.5 63.5t85.5 82.5l82 84q39 41 69 68q9 9 16 6t11 -11.5t4.5 -18t-2.5 -14.5zM353 427q-7 -3 -10 0q-4 5 1 10q2 2 20.5 18t53.5 49q62 56 66 57q16 4 22 -17q3 -10 -6 -16q-99 -65 -147 -101z" />
<glyph unicode="&#xfb;" horiz-adv-x="450" d="M466 297q-14 -21 -31 -51t-32.5 -61.5t-27.5 -61.5t-15 -50q-3 -18 -0.5 -26.5t7.5 -11t12.5 -1t14.5 3.5q3 1 18 11l33 21l32 22l18 12q16 11 17.5 3t-10.5 -20q-5 -5 -22 -18t-36.5 -26.5t-37.5 -24.5t-24 -13t-15 2t-16.5 11.5t-13 17t-5.5 19.5q0 19 4.5 40t11.5 41 t16 40l15 36q6 15 0 24.5t-24 -8.5l-63 -60l-77 -72q-39 -36 -72.5 -63.5t-49.5 -32.5q-27 -9 -44 8.5t-15 42.5q2 23 12.5 53t27 61.5t36 64t39.5 61.5l37 53q18 23 31 38q5 6 13.5 8.5t14.5 0.5t7 -8.5t-8 -18.5q-23 -28 -48.5 -65t-48.5 -75t-41.5 -74t-25.5 -63 q-12 -41 0.5 -52.5t37.5 2.5q39 24 82.5 63.5t85.5 82.5l82 84q39 41 69 68q9 9 16 6t11 -11.5t4.5 -18t-2.5 -14.5zM404 492q-23 -9 -53 -25.5t-66 -39.5q-12 -11 -9 3q1 3 2 5.5t4 6.5q15 8 81 62q53 41 54 40q3 -2 17.5 -28t41.5 -79q3 -8 3 -10q-2 -5 -3.5 -6t-2.5 -2 q-4 -1 -7 5l-15 22l-16 21l-19 19q-7 7 -12 6z" />
<glyph unicode="&#xfc;" horiz-adv-x="450" d="M466 297q-14 -21 -31 -51t-32.5 -61.5t-27.5 -61.5t-15 -50q-3 -18 -0.5 -26.5t7.5 -11t12.5 -1t14.5 3.5q3 1 18 11l33 21l32 22l18 12q16 11 17.5 3t-10.5 -20q-5 -5 -22 -18t-36.5 -26.5t-37.5 -24.5t-24 -13t-15 2t-16.5 11.5t-13 17t-5.5 19.5q0 19 4.5 40t11.5 41 t16 40l15 36q6 15 0 24.5t-24 -8.5l-63 -60l-77 -72q-39 -36 -72.5 -63.5t-49.5 -32.5q-27 -9 -44 8.5t-15 42.5q2 23 12.5 53t27 61.5t36 64t39.5 61.5l37 53q18 23 31 38q5 6 13.5 8.5t14.5 0.5t7 -8.5t-8 -18.5q-23 -28 -48.5 -65t-48.5 -75t-41.5 -74t-25.5 -63 q-12 -41 0.5 -52.5t37.5 2.5q39 24 82.5 63.5t85.5 82.5l82 84q39 41 69 68q9 9 16 6t11 -11.5t4.5 -18t-2.5 -14.5zM376 479q-3 -17 -28 -39q-22 -21 -37 -18q-22 4 -22 17q0 14 23 37q23 24 37 27q11 2 20.5 -6.5t6.5 -17.5zM516 469q-3 -17 -28 -39q-22 -21 -37 -18 q-22 4 -22 17q0 14 23 37q23 24 37 27q11 2 20.5 -6.5t6.5 -17.5z" />
<glyph unicode="&#xfd;" horiz-adv-x="371" d="M266 0q16 44 34 122q8 34 12.5 57t6.5 37q-49 -43 -122 -92q-96 -65 -153 -87q-6 -2 -9 -2q-9 0 -15 7t-4 14q6 20 91 174q2 4 0.5 17t1.5 19q4 7 38 22q36 16 44 17q14 1 16 -16q-21 -9 -70 -78q-41 -60 -60 -98q-3 -8 -3 -13q0 -10 8 -13q10 -3 18 0q23 9 55.5 27.5 t74.5 47.5q33 23 56.5 41t37.5 31q5 9 11.5 15.5t13.5 7.5q17 1 25.5 -8t6.5 -19q-4 -5 -7.5 -10.5t-8.5 -14.5q-20 -72 -63 -201q152 28 291 28q25 0 43.5 -2t32.5 -4q11 -2 22.5 -9t21 -17t15.5 -22t6 -25t-6 -22q-13 -25 -65 -66q-8 -8 -14 -8q-2 0 -2 1q0 6 10 13 q59 56 59 99q0 36 -49 40q-14 1 -32.5 1.5t-41.5 0.5q-181 0 -296 -24q-295 -841 -715 -868q-144 -9 -264 87q-121 95 -121 213q0 39 15 75q77 179 480 338q139 54 281.5 96t292.5 71zM-763 -532q-6 -16 -9.5 -31.5t-3.5 -32.5q0 -105 106 -187q111 -85 250 -79 q242 9 460 361q135 218 222 484q-360 -74 -633 -199q-326 -150 -392 -316zM266 378q-7 -3 -10 0q-4 5 1 10q2 2 20.5 18t53.5 49q62 56 66 57q16 4 22 -17q3 -10 -6 -16q-99 -65 -147 -101z" />
<glyph unicode="&#xfe;" horiz-adv-x="393" d="M-74 -164q7 15 14 34l18 41q-76 -1 -152.5 -13.5t-158.5 -36.5q-233 -70 -397 -210q-91 -78 -136.5 -158t-45.5 -165q0 -54 19.5 -98.5t57.5 -82.5q72 -72 173 -72q65 0 121 31q113 61 229 231q43 62 86 137t84 166l44 98zM49 -92q-22 4 -35 3.5t-31 -0.5l-16 -39 l-16 -40q-121 -301 -247.5 -486.5t-255.5 -255.5q-68 -37 -137 -37q-109 0 -181 87q-74 87 -74 210q0 179 159 316q81 71 182.5 123.5t224.5 85.5q88 23 172 36.5t169 14.5l17 32l14 30l15 30q8 16 20 36q22 38 43 78l42 78q-20 18 -17 30q6 17 53 36l30 46l50 80l60 97 l64 101l60 92l44 69q5 8 36 20q13 4 13 -3q0 -4 -3 -5t-9 -10q-10 -14 -32 -49l-50 -79l-59 -95l-62 -98l-52 -87l-37 -61q41 16 73 23t58 7q72 0 72 -66q0 -52 -46 -116q122 32 140 33q4 1 7 0q1 -2 0 -3q-3 -3 -7 -4q-35 -10 -78 -24l-94 -30q-42 -38 -94.5 -62 t-118.5 -31q-21 -3 -21 19q0 6 4 10q13 8 67 27.5t150 51.5q51 58 51 121q0 54 -60 54q-23 0 -52.5 -10t-67.5 -30q-19 -32 -39 -60l-44 -65q-24 -36 -52.5 -86.5t-62.5 -126.5q16 0 30.5 -0.5t28.5 -2.5q30 -5 47.5 -26.5t17.5 -47.5q0 -12 -5 -22q-13 -25 -65 -66 q-9 -8 -15 -8q-2 0 -2 1q0 6 10 13q59 55 59 99q0 18 -10 29t-35 13z" />
<glyph unicode="&#xff;" horiz-adv-x="371" d="M266 0q16 44 34 122q8 34 12.5 57t6.5 37q-49 -43 -122 -92q-96 -65 -153 -87q-6 -2 -9 -2q-9 0 -15 7t-4 14q6 20 91 174q2 4 0.5 17t1.5 19q4 7 38 22q36 16 44 17q14 1 16 -16q-21 -9 -70 -78q-41 -60 -60 -98q-3 -8 -3 -13q0 -10 8 -13q10 -3 18 0q23 9 55.5 27.5 t74.5 47.5q33 23 56.5 41t37.5 31q5 9 11.5 15.5t13.5 7.5q17 1 25.5 -8t6.5 -19q-4 -5 -7.5 -10.5t-8.5 -14.5q-20 -72 -63 -201q152 28 291 28q25 0 43.5 -2t32.5 -4q11 -2 22.5 -9t21 -17t15.5 -22t6 -25t-6 -22q-13 -25 -65 -66q-8 -8 -14 -8q-2 0 -2 1q0 6 10 13 q59 56 59 99q0 36 -49 40q-14 1 -32.5 1.5t-41.5 0.5q-181 0 -296 -24q-295 -841 -715 -868q-144 -9 -264 87q-121 95 -121 213q0 39 15 75q77 179 480 338q139 54 281.5 96t292.5 71zM-763 -532q-6 -16 -9.5 -31.5t-3.5 -32.5q0 -105 106 -187q111 -85 250 -79 q242 9 460 361q135 218 222 484q-360 -74 -633 -199q-326 -150 -392 -316zM279 430q-3 -17 -28 -39q-22 -21 -37 -18q-22 4 -22 17q0 14 23 37q23 24 37 27q11 2 20.5 -6.5t6.5 -17.5zM419 420q-3 -17 -28 -39q-22 -21 -37 -18q-22 4 -22 17q0 14 23 37q23 24 37 27 q11 2 20.5 -6.5t6.5 -17.5z" />
<glyph unicode="&#x131;" horiz-adv-x="182" d="M243 78q-24 -24 -51 -44.5t-71 -40.5q-6 -3 -18.5 -0.5t-25 9.5t-22 20t-9.5 31q0 16 8 41.5t20 54t26 57.5l26 54l20 42q8 18 9 22q2 12 12 16.5t19 1.5t13.5 -14t-5.5 -29l-52 -99l-26 -50q-9 -16 -10.5 -19.5t-2.5 -6.5t-4.5 -11t-15.5 -33t-12.5 -38.5t6.5 -19.5 t17.5 -5.5t20.5 2.5q38 9 66.5 27t55.5 44q9 9 13 10t4.5 -2t-2.5 -8.5t-9 -11.5z" />
<glyph unicode="&#x152;" horiz-adv-x="808" d="M1053 640q-12 -16 -18 -16v1q0 3 3 11q7 11 7 21q0 18 -28 27q-24 9 -68 9q-36 0 -77 -6.5t-74 -19.5l-2 -2l-38 -53q-20 -28 -38.5 -58.5t-35.5 -61.5t-30 -61l7 -7q18 6 42 8.5t50 2.5q23 0 44 -2t35 -5q16 -4 16 -7t-8 -3q-3 0 -6 1q-11 4 -35 4q-18 0 -41.5 -3 t-47 -8t-46 -12t-38.5 -16l-3 -2q-3 -8 -7 -16l-7 -17l-29 -70q-16 -37 -29.5 -73t-23 -68.5t-11.5 -57.5q0 -2 -0.5 -2.5t-0.5 -2.5q-2 -6 -1.5 -11t0.5 -9q0 -14 6 -18.5t25 -11.5q19 -6 46.5 -8.5t59.5 -2.5q27 0 53.5 1.5t50 4.5t41 7t26.5 9q13 5 18 5t5 -2 q0 -7 -18 -17h-1q-13 -9 -43 -16t-67 -12t-77 -8t-73 -3h-15q-14 0 -23.5 8.5t-16 21t-9.5 28.5t-3 31v7q0 19 6.5 47.5t15.5 57.5l-9 5q-131 -175 -250 -213q-11 -4 -27 -4q-20 0 -41.5 7t-40.5 23.5t-33 44.5t-18 69q-1 8 -1.5 17t-0.5 17q0 59 17.5 123t46 126.5 t66 121.5t77 107.5t79 84.5t72.5 53q13 7 27 7q8 0 14 -4.5t7 -14.5l6 -5q15 3 27 3q27 0 50.5 -11t41 -32t27.5 -51t10 -67v-5q0 -12 -0.5 -26t-2.5 -24l9 -3q7 14 16 30l18 30l6 11l4 6q5 5 6 9.5t1 9.5q0 11 -10 26q-3 4 -3 13q0 6 8 14q9 5 29 13t32 12l3 2 q8 13 16.5 23t16.5 12v1q6 2 8 2q8 0 13 -9t9 -19l6 -3q18 5 39.5 7.5t41.5 2.5q26 0 49 -4t37 -12h1q4 -2 10.5 -8t12.5 -13.5t10 -16t4 -17.5t-5 -14v-1zM643 586q0 41 -11.5 69t-29.5 45.5t-41.5 25t-47.5 7.5q-22 0 -38 -4l-2 -1q-36 -24 -75 -63.5t-77.5 -89 t-73.5 -106.5t-61.5 -116.5t-42.5 -119t-16 -113.5v-8q0 -38 8.5 -62.5t21 -38.5t28.5 -19t31 -5q13 0 24 3l19 4q34 9 76 40t85 76.5t83 103t71 120.5t50 127.5t19 124.5z" />
<glyph unicode="&#x153;" horiz-adv-x="565" d="M741 278q-10 -11 -32.5 -26.5t-50.5 -19.5q-17 -3 -50.5 -4t-73.5 -2t-80 -1h-70l-24 -33q-12 -19 -23 -40t-19 -43.5t-9 -46.5q-2 -44 19.5 -58t47.5 -11q33 4 70.5 18t64.5 30q8 5 12 2t-4 -9q-11 -8 -26 -17.5t-33 -18.5t-37.5 -16.5t-37.5 -10.5q-15 -3 -33 4 t-33 19.5t-25 30t-9 37.5q1 14 3.5 29t6.5 29l-26 -23q-119 -102 -205 -114q-14 -2 -29.5 9t-15.5 27q2 83 134 245q4 7 -2 9q-9 5 -18 11.5t-9 12.5q0 3 3 8t26 6q37 1 38 1q4 0 11 4q22 21 44 22q8 1 19.5 -4.5t25.5 -13.5q2 -1 3.5 -2t3.5 -2q8 0 22 -1.5t28 -4.5 t25.5 -9.5t15.5 -17.5q38 45 79.5 77t75.5 45q19 7 33.5 -0.5t23.5 -22.5t10 -33t-7 -33q-16 -28 -54.5 -47t-88.5 -27h55q29 0 55 0.5t48.5 1.5t38.5 3q21 2 42.5 13t33.5 22q5 7 8.5 5t-1.5 -9zM580 325q10 16 11 28t-5 18.5t-17.5 6t-26.5 -8.5q-37 -21 -75 -55.5 t-72 -71.5q26 0 54 6t53 17.5t45.5 26.5t32.5 33zM50 36q-6 -11 -6 -22q0 -24 32 -18q68 11 163 98q100 89 115 162q7 30 -38 35q-24 3 -45 0.5t-39 -9.5q-2 1 -17 -9q-107 -99 -165 -237z" />
<glyph unicode="&#x178;" horiz-adv-x="662" d="M510 50q19 25 80 152l40 82l38 81q3 10 2 11q-1 4 -6 -1q-127 -112 -276 -214q-193 -130 -317 -165q-9 -2 -17.5 1.5t-16 12t-12 19.5t-4.5 24q0 11 4 20q17 55 99 176l87 131l46 72q67 115 67 188q0 88 -110 97q-96 7 -239 -79q-73 -45 -120.5 -92t-70.5 -98 q-16 -35 -16 -66q0 -23 8 -41t34 -35q11 -8 21.5 -12.5t19.5 -5.5q14 -1 14 -7t-19 -3q-66 12 -85 55q-5 13 -8 27t-3 31q0 18 3 33.5t8 29.5q40 101 173 190q142 95 263 98q59 1 108 -46q50 -48 50 -99q0 -34 -16.5 -79.5t-51.5 -102.5q-17 -29 -50 -79l-84 -123 q-42 -60 -66.5 -100.5t-34.5 -63.5q-11 -25 -11 -37q0 -14 14 -14q9 0 33 6q120 33 317 169q91 63 160.5 119t118.5 107l2 5l18 25l20 31q10 15 29 15q2 0 4 -2q9 -21 -1 -31q-8 -5 -16 -13l-19 -19l-58 -127l-66 -145q5 -5 11 -13.5t10.5 -16.5t7.5 -15.5t3 -10.5 q0 -9 -19 -34q-9 -11 -16 -17t-13 -7q-8 -1 -21 -5l-29 -9q-32 -53 -58.5 -90.5t-47.5 -63.5q-61 -76 -122 -110q-96 -55 -169 -53q-61 1 -97 31q-34 27 -34 67q0 49 49 88q130 100 458 151zM497 24q-48 -7 -98 -18t-104 -25q-80 -22 -137.5 -46t-93.5 -53q-46 -36 -46 -81 q0 -75 114 -73q83 1 162 53q31 21 60.5 49t56.5 64q12 16 33 48zM591 147l-19 -39l-27 -51q8 1 18 4l24 7q21 12 22 32q1 21 -18 47zM573 779q-3 -17 -28 -39q-22 -21 -37 -18q-22 4 -22 17q0 14 23 37q23 24 37 27q11 2 20.5 -6.5t6.5 -17.5zM713 769q-3 -17 -28 -39 q-22 -21 -37 -18q-22 4 -22 17q0 14 23 37q23 24 37 27q11 2 20.5 -6.5t6.5 -17.5z" />
<glyph unicode="&#x2c6;" horiz-adv-x="256" d="M159 492q-23 -9 -53 -25.5t-66 -39.5q-12 -11 -9 3q1 3 2 5.5t4 6.5q15 8 81 62q53 41 54 40q3 -2 17.5 -28t41.5 -79q3 -8 3 -10q-2 -5 -3.5 -6t-2.5 -2q-4 -1 -7 5l-15 22l-16 21l-19 19q-7 7 -12 6z" />
<glyph unicode="&#x2da;" horiz-adv-x="230" d="M114 580q11 6 21 10t19 5q43 4 43 -42q0 -10 -5 -30q-6 -17 -14.5 -32t-22.5 -29q-30 -31 -64 -40q-5 -2 -9 -2h-9q-41 0 -41 41q0 6 1 12t3 12q5 15 11.5 29t17.5 27q23 30 49 39zM145 568q-24 -2 -42 -18q-32 -26 -38 -60q0 -3 -0.5 -6t-0.5 -7q0 -18 10 -26.5t22 -5.5 q23 5 43 24.5t29 49.5q3 10 3 21q0 30 -26 28z" />
<glyph unicode="&#x2dc;" horiz-adv-x="296" d="M28 432q-2 0 -2 2q0 1 7 12q44 42 64 42q6 0 19 -5l32 -13q21 -9 34.5 -12.5t21.5 -3.5q34 0 50 16q8 6 11 6t3 -3t-5 -11q-38 -38 -59 -38q-15 0 -53 16q-41 18 -54 18q-23 0 -46 -13z" />
<glyph unicode="&#x2000;" horiz-adv-x="603" />
<glyph unicode="&#x2001;" horiz-adv-x="1206" />
<glyph unicode="&#x2002;" horiz-adv-x="603" />
<glyph unicode="&#x2003;" horiz-adv-x="1206" />
<glyph unicode="&#x2004;" horiz-adv-x="402" />
<glyph unicode="&#x2005;" horiz-adv-x="301" />
<glyph unicode="&#x2006;" horiz-adv-x="201" />
<glyph unicode="&#x2007;" horiz-adv-x="201" />
<glyph unicode="&#x2008;" horiz-adv-x="150" />
<glyph unicode="&#x2009;" horiz-adv-x="241" />
<glyph unicode="&#x200a;" horiz-adv-x="67" />
<glyph unicode="&#x2010;" horiz-adv-x="260" d="M87 166q-17 0 -17 9q0 18 32 18h141q17 0 17 -10q0 -17 -26 -17h-147z" />
<glyph unicode="&#x2011;" horiz-adv-x="260" d="M87 166q-17 0 -17 9q0 18 32 18h141q17 0 17 -10q0 -17 -26 -17h-147z" />
<glyph unicode="&#x2013;" horiz-adv-x="339" d="M89 170q-19 0 -19 8q0 16 38 16h210q21 0 21 -8q0 -14 -30 -14q-46 -2 -101 -2h-119z" />
<glyph unicode="&#x2014;" horiz-adv-x="542" d="M90 173q-20 0 -20 5q0 8 29 8h425q18 0 18 -6q0 -7 -25 -7h-427z" />
<glyph unicode="&#x2018;" horiz-adv-x="147" d="M274 590q2 2 5 2q7 0 7 -7q0 -3 -4 -6q-60 -43 -64 -98q-2 -8 1.5 -17t9.5 -22q4 -6 -16 -21q-19 -13 -24 -11q-7 1 -14 25q-6 24 -4 33q17 47 103 122z" />
<glyph unicode="&#x2019;" horiz-adv-x="156" d="M188 404q-2 -2 -5 -2q-7 0 -7 6q0 3 4 7q59 41 65 98q1 7 -2.5 16.5t-8.5 21.5q-5 5 14 20q18 14 25 12q8 -1 14 -24q7 -23 4 -33q-18 -51 -103 -122z" />
<glyph unicode="&#x201a;" horiz-adv-x="186" d="M32 -58q-3 -3 -6 -3q-6 0 -6 7q0 2 3 7q59 40 65 98q1 8 -2 17l-9 21q-5 6 14 20q18 14 25 12q9 -2 15 -24q7 -22 3 -33q-18 -50 -102 -122z" />
<glyph unicode="&#x201c;" horiz-adv-x="268" d="M395 580q2 2 6 2q6 0 6 -7q0 -3 -3 -6q-59 -42 -65 -98q-1 -8 3 -17l8 -22q5 -5 -15 -21q-19 -13 -24 -11q-8 3 -15 25q-6 22 -3 33q17 48 102 122zM273 580q2 2 6 2q6 0 6 -7q0 -3 -3 -6q-60 -42 -65 -98q-1 -13 11 -39q4 -6 -15 -21q-19 -13 -25 -11q-7 3 -14 25 q-6 22 -3 33q17 48 102 122z" />
<glyph unicode="&#x201d;" horiz-adv-x="279" d="M188 404q-2 -2 -5 -2q-7 0 -7 6q0 3 4 7q59 41 65 98q1 7 -2.5 16.5t-8.5 21.5q-5 5 14 20q18 14 25 12q8 -1 14 -24q7 -23 4 -33q-18 -51 -103 -122zM311 404q-4 -2 -6 -2q-7 0 -7 6q0 3 4 7q59 41 65 98q1 7 -2.5 16.5t-8.5 21.5q-5 5 14 20q18 14 25 12q9 -2 15 -24 q7 -22 3 -33q-18 -50 -102 -122z" />
<glyph unicode="&#x201e;" horiz-adv-x="308" d="M154 -59q-2 -3 -6 -3q-6 0 -6 7q0 2 3 7q60 41 65 98q1 12 -11 38q-5 6 14 20t26 12q8 -2 14 -24q6 -24 3 -33q-18 -50 -102 -122zM32 -59q-2 -3 -6 -3q-6 0 -6 7q0 2 3 7q60 41 65 98q1 12 -11 38q-5 6 14 20t26 12q8 -2 14 -24q6 -24 3 -33q-18 -50 -102 -122z" />
<glyph unicode="&#x2022;" horiz-adv-x="212" d="M172 229q0 -27 -18.5 -46.5t-47.5 -19.5q-28 0 -47 19.5t-19 46.5q0 29 19 47.5t47 18.5q29 0 47.5 -18.5t18.5 -47.5z" />
<glyph unicode="&#x2026;" horiz-adv-x="378" d="M298 42q0 -3 -6 -7.5t-14 -7.5t-15.5 -4t-10.5 2q-2 3 -4 10.5t-3 16t-1 15.5t2 10t8 7t13.5 7t13.5 4.5t8 -1.5q3 -2 4.5 -9.5t2.5 -15.5t1.5 -16t0.5 -11zM186 47q0 -3 -6 -7t-14 -7t-15.5 -4t-10.5 2q-2 3 -4 10.5t-3 16t-1 15.5t2 10t8 7t13.5 7t13.5 4t8 -2 q3 -2 4.5 -9t2.5 -15.5t1.5 -16.5t0.5 -11zM72 42q0 -3 -6 -7.5t-13.5 -7.5t-14.5 -4t-10 2q-2 3 -4 10.5t-3 16t-1 15.5t2 10t8 7t13 7t13.5 4.5t9.5 -1.5q2 -2 3 -10l2 -15q1 -8 1 -16v-11z" />
<glyph unicode="&#x202f;" horiz-adv-x="241" />
<glyph unicode="&#x2039;" horiz-adv-x="197" d="M58 158q-9 -16 3 -122q2 -11 -6 -11q-4 0 -6 9q-34 130 -30 139q5 11 62 49l45 30l46 30q10 6 11 2q3 -4 -3 -10q-54 -42 -84 -71t-38 -45z" />
<glyph unicode="&#x203a;" horiz-adv-x="255" d="M170 150q9 18 -3 122q-2 11 5 11q5 0 7 -9q34 -130 30 -139q-5 -11 -62 -49l-45 -30l-46 -30q-5 -3 -9 -3q-7 0 -7 6q0 2 4 6l90 76q31 28 36 39z" />
<glyph unicode="&#x205f;" horiz-adv-x="301" />
<glyph unicode="&#x20ac;" horiz-adv-x="488" d="M61 277q-19 0 -19 8q0 15 38 15h30q47 77 122 142q16 14 40 28.5t50 26.5t52.5 19.5t49.5 7.5q19 0 36.5 -5t27 -15.5t10 -26t-14.5 -36.5q-6 -8 -14 -11.5t-13.5 -3t-6 6.5t9.5 17q12 15 14 24t-4.5 14.5t-19.5 7.5t-30 2q-79 0 -165 -73q-57 -48 -97 -119l-4 -6h210 q21 0 21 -7q0 -15 -30 -15q-17 0 -41.5 -0.5t-52.5 -0.5h-58h-61q-11 -21 -18.5 -40.5t-12.5 -37.5h165q21 0 21 -8q0 -14 -30 -14q-32 -1 -74 -1h-86q-3 -23 -3 -42q0 -32 8 -55.5t24 -41.5q14 -16 37 -19.5t45 -3.5q16 0 35 5t38 12.5t36.5 16t31.5 16.5q8 5 11.5 2 t-4.5 -9q-11 -8 -26 -17.5t-33 -18.5t-37 -16.5t-38 -10.5q-27 -7 -54 -7q-57 0 -92.5 33t-35.5 96q0 14 1.5 28.5t6.5 31.5h-35q-18 0 -18 8q0 15 37 15h23q13 40 33 78h-36z" />
<glyph unicode="&#x2122;" horiz-adv-x="555" d="M480 619q4 -5 1 -13.5t-8 -2.5q-20 13 -57 21t-69 10q5 -8 -1 -19t-11 -23l-41 -60l-45 -71.5t-39 -71.5t-23 -62q0 -6 0.5 -15t6.5 -12q5 0 2 -3q27 -17 77 13q30 18 66.5 55t72 80t66 85.5t48.5 71.5q4 13 9 26t10 21t12.5 5t7.5 -11q0 -12 -6 -26.5t-14 -22.5 q-8 -21 -17 -50.5t-17 -61t-14.5 -62t-7.5 -55.5q-1 -17 6 -21.5t25 9.5q20 16 47.5 47.5t54 66t48.5 66.5t30 49l22 47q11 23 23 34q5 5 13 0.5t6 -12.5q-2 -14 -14 -33.5t-26 -37.5q-13 -27 -26.5 -59t-24.5 -63.5t-19.5 -61t-10.5 -52.5q-2 -16 2 -28t16 -14q11 -2 17 3 q2 2 3 0t-1 -5q-8 -7 -22 -5t-23.5 14.5t-7.5 30.5q0 19 5 43t13 50l17 53l19 50l-35 -51l-38 -53q-19 -27 -40 -50.5t-43 -39.5q-10 -8 -20 -9t-17.5 2.5t-12.5 10.5t-6 16q-1 13 3 35.5t10 49t14 53.5l13 47l-57 -76q-29 -37 -58.5 -69t-57.5 -58t-55 -42 q-29 -18 -56 -19.5t-38 12.5q-5 1 -6 9q-5 7 -5.5 17t1.5 21q0 4 3 4q6 27 23.5 63.5t38.5 72.5l40 66l31 46l11 24q6 12 7 19q-16 3 -46.5 5t-66 0.5t-71.5 -8.5t-63 -21q-24 -13 -33.5 -29.5t-7.5 -34.5q1 -17 8.5 -27t13.5 -16q3 -2 1.5 -3t-5.5 1q-20 17 -27 45 q-5 21 6.5 42.5t38.5 36.5q37 20 82.5 28t91.5 8t88 -5.5t72 -12.5q5 3 7 3.5t8 -0.5q5 -1 13.5 -4.5t16.5 -8t14.5 -9t7.5 -8.5z" />
</font>
</defs>
</svg>
